<?xml version="1.0" encoding="utf-8"?>
<!-- Generator: Adobe Illustrator 23.0.3, SVG Export Plug-In . SVG Version: 6.00 Build 0)  -->
<svg version="1.1" id="a" xmlns="http://www.w3.org/2000/svg" xmlns:xlink="http://www.w3.org/1999/xlink" x="0px" y="0px"
	 viewBox="0 0 147 110" style="enable-background:new 0 0 147 110;" xml:space="preserve">
<style type="text/css">
	.st0{fill:#5AC8F5;}
	.st1{fill:#FF8726;}
	.st2{fill:#323C46;}
</style>
<g>
	<path class="st0" d="M104.8,21.8c0.1,0.1,0.3,0.3,0.4,0.4C105.1,22.1,104.9,21.9,104.8,21.8z"/>
	<path class="st0" d="M101.9,19C101.9,19,102,19,101.9,19C102,19,102,19,101.9,19z"/>
	<path class="st0" d="M109,78.7c5-7.3,8-16.2,8-25.8s-2.9-18.5-8-25.8C120.3,45,118.8,62.2,109,78.7L109,78.7z"/>
	<path class="st0" d="M99.3,16.8c0.4,0.3,0.8,0.7,1.3,1C100.1,17.4,99.7,17.1,99.3,16.8z"/>
	<path class="st0" d="M92.5,12.4c2.3,1.2,4.5,2.6,6.6,4.2C97,15.1,94.8,13.6,92.5,12.4z"/>
	<path class="st1" d="M107.2,77.3l-7.5-6.5l1.4-5.4l-5-9.7L96,48.5l-4.2-2.4l-5.4,3.6l-11.8-5.5V33l3.3-3.7l8.8-0.7l11.6,2.6L109,27
		c-1.2-1.7-2.4-3.3-3.8-4.8L97.5,27l-12.6-4l-5.7,2.1l-4.7-2.5l3-7.9l8.4,2.5l6.2-5.1C86,9,78.9,7.2,71.3,7.2
		c-6.3,0-12.2,1.3-17.7,3.5l2.9,4.1l11.1,2.9v5.3h-5.5l-3.8,8l-7.5,4.3H41l0.2,5.4l2.9,2.5l-0.7,4.7l5.4-1.4l2.5,4h10.2l3.8,6.8h6.5
		l-2.9,8.6l-4.7,4.3v4.7l-4.7,3.6l-1.1,7.9l-6.5-2.2l-1.4-5.7l1.1-15.1l-8.6-1.4l-3.9-9.1l3-4.2l-7-5l-4.9-10.6
		c-2.9,6-4.6,12.8-4.6,19.9c0,25.2,20.5,45.7,45.7,45.7c15.6,0,29.4-7.9,37.7-19.8L107.2,77.3L107.2,77.3z"/>
	<path class="st0" d="M53.6,10.7C43.4,15,35.1,22.9,30.2,32.9C35.3,23,43,15.5,53.6,10.7z"/>
</g>
<path class="st2" d="M104.9,19.4c-3.4-3.4-7.4-6.4-11.8-8.6l0,0c-6.5-3.4-13.9-5.3-21.7-5.3h-0.1c-13.1,0-24.9,5.3-33.5,13.9
	S23.9,39.7,23.9,52.8l0,0v0.1c0,13.1,5.3,24.9,13.9,33.5s20.4,13.9,33.5,13.9h0.1c5.4,0,10.6-0.9,15.4-2.6l-2.2,4.2
	c-0.4,0.8-0.1,1.9,0.7,2.4s1.9,0.1,2.4-0.7l4.4-8.4c0.2-0.4,0.3-0.9,0.1-1.3s-0.4-0.8-0.9-1l-8.4-4.4c-0.8-0.4-1.9-0.1-2.4,0.7
	c-0.4,0.8-0.1,1.9,0.7,2.4l0,0l5,2.6c-4.7,1.7-9.7,2.6-14.9,2.6h-0.1l0,0c-12.1,0-23.1-4.9-31-12.9S27.3,65,27.3,52.8v-0.1l0,0
	c0-5.5,1-10.7,2.9-15.6l3.2,7c0.1,0.3,0.3,0.5,0.6,0.7l5.6,3.9l-2,2.8c-0.4,0.5-0.4,1.1-0.2,1.7l3.9,9.2c0.2,0.5,0.7,1,1.3,1l7,1.2
	l-1,13.5c0,0.2,0,0.4,0,0.6l1.4,5.7c0.1,0.6,0.6,1.1,1.1,1.2l6.5,2.2c0.5,0.2,1,0.1,1.5-0.2s0.7-0.7,0.8-1.3l1-7.2l4.1-3.2
	c0.4-0.3,0.7-0.8,0.7-1.4v-3.9L70,67c0.2-0.2,0.4-0.4,0.5-0.7l2.9-8.6c0.2-0.5,0.1-1.1-0.2-1.6c-0.3-0.5-0.9-0.7-1.4-0.7h-5.4
	l-3.3-5.9c-0.3-0.5-0.9-0.9-1.5-0.9h-9.2l-2-3.1c-0.4-0.6-1.2-1-1.9-0.8l-2.8,0.8l0.3-2c0.1-0.6-0.1-1.2-0.6-1.6l-2.3-2L42.8,37h8
	c0.3,0,0.6-0.1,0.9-0.2l7.5-4.3c0.3-0.2,0.6-0.5,0.7-0.8l3.3-7h4.4c0.5,0,0.9-0.2,1.2-0.5s0.5-0.8,0.5-1.2v-5.3
	c0-0.8-0.5-1.5-1.3-1.7l-10.5-2.7l-1.3-1.8C61,9.8,66,8.9,71.3,8.9h0.1c6.3,0,12.2,1.3,17.6,3.7l-3.4,2.7L78,13.1
	c-0.9-0.3-1.8,0.2-2.1,1.1l-3,7.9c-0.3,0.8,0,1.8,0.8,2.2l4.7,2.5c0.4,0.2,1,0.3,1.4,0.1l5.2-1.9l12,3.8c0.5,0.1,1,0.1,1.4-0.2
	l6.4-4c0.5,0.5,0.9,1.1,1.4,1.7L98,29.4L87,26.9c-0.2,0-0.3,0-0.5,0l-8.8,0.7c-0.4,0-0.9,0.2-1.2,0.6l-3.3,3.7
	c-0.3,0.3-0.4,0.7-0.4,1.2v11.2c0,0.7,0.4,1.3,1,1.6l11.8,5.5c0.6,0.3,1.2,0.2,1.7-0.1l4.5-3l2.4,1.4l0.1,6.3c0,0.3,0.1,0.5,0.2,0.8
	l4.7,9.1l-1.3,4.7c-0.2,0.7,0,1.3,0.6,1.8l7.5,6.5l0,0l0.5,0.4c-2,2.7-4.2,5.1-6.7,7.2c-0.7,0.6-0.8,1.7-0.2,2.5
	c0.6,0.7,1.7,0.8,2.5,0.2c10.1-8.7,16.6-21.6,16.6-36l0,0v-0.1C118.7,39.8,113.4,27.9,104.9,19.4L104.9,19.4z M47.9,48.4l1.8,2.9
	c0.3,0.5,0.9,0.8,1.5,0.8h9.1l3.3,5.9c0.3,0.5,0.9,0.9,1.5,0.9h4l-2,5.9l-4.3,4c-0.4,0.3-0.6,0.8-0.6,1.3v3.8l-4,3.1
	c-0.4,0.3-0.6,0.7-0.7,1.2l-0.8,5.8l-3.5-1.2l-1.1-4.5l1.1-14.8c0.1-0.9-0.6-1.7-1.5-1.8l-7.7-1.3L41,52.9l2.4-3.3
	c0.1,0,0.2,0,0.3,0L47.9,48.4L47.9,48.4z M55.2,15.8c0.2,0.3,0.6,0.6,1,0.7l9.8,2.5v2.1h-3.8c-0.7,0-1.3,0.4-1.6,1L57,29.7l-6.7,3.8
	H41c-0.5,0-0.9,0.2-1.3,0.5s-0.5,0.8-0.5,1.3l0.2,5.4c0,0.5,0.2,1,0.6,1.3l2.2,1.9l-0.3,2.3l-5.4-3.8L32.1,33
	c2.1-4.1,4.9-7.9,8.1-11.2c3.7-3.7,8-6.7,12.8-8.9L55.2,15.8L55.2,15.8z M97.3,25.1l-11.8-3.7c-0.4-0.1-0.8-0.1-1.1,0l-5,1.9
	l-2.6-1.4l1.9-5l6.9,2.1c0.6,0.2,1.2,0,1.6-0.3l5.3-4.3c3.7,2,7,4.5,9.9,7.5c0,0,0.1,0,0.1,0.1L97.3,25.1L97.3,25.1z M115.2,52.9
	L115.2,52.9c0,8.5-2.5,16.5-6.7,23.2l-0.3-0.2l-6.7-5.7l1.2-4.3c0.1-0.4,0.1-0.9-0.1-1.3l-4.8-9.3l-0.1-6.8c0-0.6-0.3-1.2-0.9-1.5
	l-4.2-2.4c-0.6-0.3-1.3-0.3-1.8,0.1l-4.6,3L76.3,43v-9.4l2.4-2.6l7.8-0.6L97.8,33c0.3,0.1,0.7,0,1-0.1l9.4-3.7
	C112.7,36,115.2,44.1,115.2,52.9L115.2,52.9L115.2,52.9z"/>
</svg>
