<?xml version="1.0" encoding="utf-8"?>
<!-- Generator: Adobe Illustrator 23.0.3, SVG Export Plug-In . SVG Version: 6.00 Build 0)  -->
<svg version="1.1" id="Layer_1" xmlns="http://www.w3.org/2000/svg" xmlns:xlink="http://www.w3.org/1999/xlink" x="0px" y="0px"
	 viewBox="0 0 147 110" style="enable-background:new 0 0 147 110;" xml:space="preserve">
<style type="text/css">
	.st0{fill:#FF8726;}
	.st1{fill:#323C46;}
</style>
<path class="st0" d="M113.7,16.5v68.2c0,5.8-4.7,10.5-10.5,10.5c0,0,0,0,0,0H90.9c-0.9,0.1-1.7-0.6-1.7-1.6
	c-0.1-0.9,0.6-1.7,1.6-1.7c0.1,0,0.1,0,0.2,0h12.3c4,0,7.2-3.2,7.2-7.2V18.1H43.8c-4,0-7.2,3.2-7.2,7.2v12.8c0,0.9-0.8,1.6-1.7,1.6
	c-0.9,0-1.6-0.7-1.6-1.6V25.3c0-5.8,4.7-10.5,10.5-10.5H112C112.9,14.8,113.7,15.6,113.7,16.5C113.7,16.5,113.7,16.5,113.7,16.5
	L113.7,16.5L113.7,16.5z M35,51.3v35.3c0,3.8,3.1,6.9,6.8,6.9h35.3c3.8,0,6.9-3.1,6.9-6.9V44.5H41.8C38,44.5,35,47.6,35,51.3
	L35,51.3z"/>
<path class="st1" d="M104.9,25.6c0-1-0.8-1.7-1.7-1.7h-8.4c-1,0-1.7,0.8-1.7,1.8c0,0.9,0.8,1.7,1.7,1.7h4.1L83.4,42.8H41.8
	c-4.7,0-8.5,3.8-8.5,8.5c0,0,0,0,0,0v35.3c0,4.7,3.8,8.5,8.5,8.5c0,0,0,0,0,0h35.3c4.7,0,8.5-3.8,8.5-8.5c0,0,0,0,0,0V45.4
	l15.8-15.8v4.3c0,1,0.8,1.7,1.7,1.7c1,0,1.7-0.8,1.7-1.7V25.6z M80.8,90.3c-1,1-2.3,1.5-3.7,1.5H41.8c-2.9,0-5.2-2.3-5.2-5.2V51.3
	c0-2.9,2.3-5.2,5.2-5.2h40.4c0,0.1,0.1,0.1,0.1,0.2v40.4C82.4,88,81.8,89.4,80.8,90.3L80.8,90.3z"/>
</svg>
