<?xml version="1.0" encoding="utf-8"?>
<!-- Generator: Adobe Illustrator 23.0.3, SVG Export Plug-In . SVG Version: 6.00 Build 0)  -->
<svg version="1.1" id="Layer_1" xmlns="http://www.w3.org/2000/svg" xmlns:xlink="http://www.w3.org/1999/xlink" x="0px" y="0px"
	 viewBox="0 0 147 110" style="enable-background:new 0 0 147 110;" xml:space="preserve">
<style type="text/css">
	.st0{fill-rule:evenodd;clip-rule:evenodd;fill:#FF8726;}
	.st1{fill:#323C46;}
</style>
<path class="st0" d="M139.9,22.5v6H6.9v-6c0-2.7,2.2-5,5-5H135C137.7,17.5,140,19.7,139.9,22.5L139.9,22.5z M92.9,63.1
	c-0.4,2.6,1.2,3.9,3.3,6.6L93,75.1c-3.3-0.7-5.2-1.4-7.4,0.2c-2.2,1.6-2,3.7-2.3,7l-6.1,1.5c-1.9-2.8-2.7-4.7-5.3-5.1
	c-2.7-0.4-4,1.2-6.6,3.3L60,78.8c0.7-3.3,1.5-5.2-0.1-7.4l0,0c-1.6-2.2-3.7-2-7-2.3L51.4,63c2.8-1.8,4.7-2.7,5.1-5.3
	c0.4-2.6-1.2-4-3.3-6.6l3.2-5.4c3.3,0.7,5.2,1.4,7.4-0.2c2.2-1.6,2-3.7,2.3-7l6.1-1.5c1.9,2.8,2.7,4.7,5.3,5.1l0,0
	c2.6,0.4,4-1.2,6.6-3.4l5.4,3.2c-0.7,3.3-1.4,5.2,0.1,7.4l0,0c1.6,2.2,3.7,2,7,2.3l1.5,6.1C95.2,59.6,93.3,60.4,92.9,63.1L92.9,63.1
	L92.9,63.1z M80.8,60.4c0-3.4-2.7-6.1-6.1-6.1s-6.1,2.7-6.1,6.1s2.7,6.1,6.1,6.1S80.8,63.8,80.8,60.4z"/>
<path class="st1" d="M94.7,63.4c0.1-0.5,0.2-0.8,0.3-1.1c0.1-0.2,0.3-0.4,0.5-0.6c0.3-0.3,0.8-0.7,1.4-1.1c0.6-0.4,1.3-0.8,2.1-1.4
	c0.6-0.4,0.9-1.2,0.7-1.9l-1.5-6.1c-0.2-0.7-0.8-1.3-1.5-1.3c-0.9-0.1-1.6-0.1-2.3-0.2c-0.5,0-0.9-0.1-1.3-0.2
	c-0.6-0.1-0.9-0.2-1.3-0.4c-0.3-0.2-0.6-0.4-0.9-0.8c0,0,0,0,0,0c-0.2-0.3-0.4-0.6-0.5-0.9s-0.1-0.5-0.1-0.9c0-0.5,0.1-1,0.2-1.7
	s0.3-1.5,0.5-2.5c0.2-0.7-0.2-1.5-0.8-1.8L85,37.3c-0.6-0.4-1.4-0.3-2,0.2c-1.2,1-2.1,1.8-2.8,2.3c-0.4,0.3-0.7,0.4-1,0.5
	c-0.3,0.1-0.6,0.2-0.9,0.2c-0.2,0-0.3,0-0.5,0c0,0,0,0,0,0c-0.5-0.1-0.8-0.2-1-0.3c-0.2-0.1-0.4-0.3-0.6-0.5
	c-0.3-0.3-0.7-0.8-1.1-1.4c-0.4-0.6-0.8-1.3-1.4-2.1c-0.4-0.6-1.2-0.9-1.9-0.7l-6.1,1.5c-0.7,0.2-1.2,0.8-1.3,1.5
	c-0.1,0.9-0.1,1.6-0.2,2.3c0,0.5-0.1,0.9-0.2,1.3c-0.1,0.6-0.2,1-0.4,1.3s-0.4,0.6-0.8,0.9c-0.3,0.3-0.6,0.4-0.9,0.5
	s-0.5,0.1-0.9,0.1c-0.5,0-1-0.1-1.7-0.2s-1.5-0.3-2.5-0.5c-0.7-0.2-1.5,0.2-1.8,0.8l-3.2,5.4c-0.4,0.6-0.3,1.4,0.2,2
	c1,1.2,1.8,2.1,2.3,2.8c0.3,0.4,0.4,0.7,0.5,1c0.1,0.3,0.2,0.5,0.2,0.9c0,0.2,0,0.3,0,0.5c-0.1,0.5-0.2,0.8-0.4,1.1
	c-0.1,0.2-0.3,0.4-0.5,0.6c-0.3,0.3-0.8,0.7-1.4,1.1c-0.6,0.4-1.3,0.8-2.1,1.4c-0.6,0.4-0.9,1.2-0.7,1.9l1.5,6.1
	c0.2,0.7,0.8,1.3,1.5,1.3c0.9,0.1,1.6,0.1,2.3,0.2c0.5,0,0.9,0.1,1.3,0.2c0.5,0.1,1,0.2,1.3,0.4c0.3,0.2,0.6,0.4,0.9,0.8l0,0
	c0.2,0.3,0.4,0.6,0.5,0.9c0.1,0.3,0.1,0.5,0.1,0.9c0,0.4-0.1,1-0.2,1.7c-0.1,0.7-0.3,1.5-0.5,2.5c-0.2,0.7,0.2,1.5,0.8,1.8l5.4,3.2
	c0.6,0.4,1.4,0.3,2-0.2c1.2-1,2.1-1.8,2.8-2.3c0.4-0.3,0.7-0.4,1-0.5s0.6-0.2,0.9-0.2c0.2,0,0.3,0,0.5,0c0.5,0.1,0.8,0.2,1,0.3
	c0.2,0.1,0.4,0.3,0.6,0.5c0.3,0.3,0.7,0.8,1.1,1.4c0.4,0.6,0.8,1.3,1.4,2.2c0.4,0.6,1.2,0.9,1.9,0.7l6.1-1.5
	c0.7-0.2,1.2-0.8,1.3-1.5c0.1-0.9,0.1-1.6,0.2-2.3c0-0.5,0.1-0.9,0.2-1.3c0.1-0.6,0.2-0.9,0.4-1.3s0.4-0.6,0.8-0.9
	c0.3-0.3,0.6-0.4,0.9-0.5c0.3-0.1,0.6-0.1,0.9-0.1c0.4,0,1,0.1,1.7,0.2s1.5,0.3,2.5,0.5c0.7,0.2,1.5-0.2,1.8-0.8l3.2-5.4
	c0.4-0.6,0.3-1.4-0.2-2c-1-1.2-1.8-2.1-2.3-2.8c-0.3-0.4-0.4-0.7-0.5-0.9s-0.2-0.5-0.2-0.9C94.7,63.8,94.7,63.6,94.7,63.4L94.7,63.4
	L94.7,63.4z M88.5,72.5c-0.6,0-1.3,0.1-2,0.3c-0.7,0.2-1.3,0.5-1.9,1c-0.7,0.5-1.3,1.1-1.7,1.8c-0.3,0.5-0.5,1-0.7,1.6
	c-0.2,0.8-0.3,1.6-0.4,2.4c0,0.4-0.1,0.9-0.1,1.3l-3.7,0.9c-0.2-0.3-0.4-0.6-0.6-0.9c-0.3-0.4-0.6-0.9-0.9-1.3
	c-0.5-0.6-1.1-1.2-1.8-1.7c-0.7-0.5-1.6-0.8-2.6-0.9c-0.3-0.1-0.7-0.1-1-0.1c-0.7,0-1.4,0.1-2.1,0.4c-0.5,0.2-0.9,0.4-1.3,0.7
	c-0.6,0.4-1.2,0.8-1.7,1.3c-0.3,0.2-0.5,0.5-0.8,0.7L62,78c0.1-0.4,0.2-0.9,0.3-1.3c0.2-0.8,0.3-1.6,0.3-2.4c0-0.6-0.1-1.3-0.3-1.9
	s-0.5-1.3-1-1.9c0,0,0,0,0,0c-0.5-0.7-1.1-1.3-1.8-1.7c-0.5-0.3-1-0.5-1.5-0.7c-0.8-0.2-1.6-0.3-2.4-0.4c-0.4,0-0.9-0.1-1.3-0.1
	l-0.9-3.7c0.3-0.2,0.6-0.4,0.9-0.6c0.9-0.6,1.8-1.2,2.5-2c0.4-0.4,0.7-0.9,1-1.5s0.4-1.2,0.5-1.8l0,0c0-0.3,0.1-0.7,0.1-1
	c0-0.7-0.1-1.5-0.4-2.1c-0.2-0.5-0.4-0.9-0.7-1.3c-0.4-0.6-0.8-1.2-1.3-1.7c-0.2-0.3-0.5-0.5-0.7-0.8l2-3.3c0.4,0.1,0.9,0.2,1.3,0.3
	c0.8,0.2,1.6,0.3,2.4,0.3c0.6,0,1.3-0.1,2-0.3s1.3-0.5,1.9-1l0,0c0.7-0.5,1.3-1.1,1.7-1.8c0.3-0.5,0.5-1,0.7-1.5
	c0.2-0.8,0.3-1.6,0.4-2.4c0-0.4,0.1-0.9,0.1-1.3l3.7-0.9c0.2,0.3,0.4,0.6,0.6,0.9c0.3,0.5,0.6,0.9,0.9,1.3c0.5,0.6,1.1,1.2,1.8,1.7
	c0.7,0.5,1.6,0.8,2.6,0.9h0c0.3,0,0.7,0.1,1,0.1c0.7,0,1.4-0.1,2.1-0.4c0.5-0.2,0.9-0.4,1.3-0.7c0.6-0.4,1.2-0.8,1.7-1.3
	c0.3-0.2,0.5-0.5,0.8-0.7l3.2,1.9c-0.1,0.5-0.2,0.9-0.3,1.3c-0.2,0.8-0.3,1.6-0.3,2.4c0,0.6,0.1,1.3,0.3,2c0.2,0.7,0.5,1.3,1,1.9
	c0,0,0,0,0,0c0.5,0.7,1.1,1.3,1.8,1.7c0.5,0.3,1,0.5,1.6,0.7c0.8,0.2,1.6,0.3,2.4,0.4c0.4,0,0.9,0.1,1.3,0.1l0.9,3.7
	c-0.3,0.2-0.6,0.4-0.9,0.6c-0.4,0.3-0.9,0.6-1.3,0.9c-0.6,0.5-1.2,1.1-1.7,1.8c-0.5,0.7-0.8,1.6-0.9,2.5c0,0,0,0,0,0
	c-0.1,0.3-0.1,0.7-0.1,1c0,0.7,0.1,1.4,0.4,2.1c0.2,0.5,0.4,0.9,0.7,1.3c0.4,0.6,0.8,1.2,1.3,1.7c0.2,0.3,0.5,0.6,0.7,0.8l-1.9,3.3
	c-0.4-0.1-0.9-0.2-1.3-0.3C90.1,72.6,89.3,72.5,88.5,72.5L88.5,72.5z M74.7,52.6c-2.2,0-4.1,0.9-5.6,2.3c-1.4,1.4-2.3,3.4-2.3,5.5
	s0.9,4.1,2.3,5.6c1.4,1.4,3.4,2.3,5.6,2.3s4.1-0.9,5.6-2.3c1.4-1.4,2.3-3.4,2.3-5.5s-0.9-4.1-2.3-5.5C78.9,53.5,76.9,52.6,74.7,52.6
	z M77.8,63.5c-0.8,0.8-1.9,1.3-3.1,1.3c-1.2,0-2.3-0.5-3.1-1.3c-0.8-0.8-1.3-1.9-1.3-3.1c0-1.2,0.5-2.3,1.3-3.1
	c0.8-0.8,1.9-1.3,3.1-1.3c1.2,0,2.3,0.5,3.1,1.3s1.3,1.9,1.3,3.1C79.1,61.6,78.6,62.7,77.8,63.5z M140,35.2c-1,0-1.8,0.8-1.8,1.8
	l0,0v42.5l0,7.9l0,0c0,0.9-0.4,1.7-0.9,2.3c-0.6,0.6-1.4,0.9-2.3,0.9H11.9c-0.9,0-1.7-0.4-2.3-0.9c-0.6-0.6-0.9-1.4-0.9-2.3V29.6
	H140c1,0,1.8-0.8,1.8-1.8c0,0,0,0,0-0.1c0,0,0,0,0-0.1v-5.1c0-1.9-0.8-3.6-2-4.8c-1.2-1.2-2.9-2-4.8-2H11.9c-1.9,0-3.6,0.8-4.8,2
	c-1.2,1.2-2,2.9-2,4.8v64.8c0,1.9,0.8,3.6,2,4.8c1.2,1.2,2.9,2,4.8,2H135c1.9,0,3.6-0.8,4.8-2c1.2-1.2,2-2.9,2-4.8l0,0l0-7.9V79l0,0
	V36.9C141.8,35.9,141,35.2,140,35.2L140,35.2z M9.7,20.3c0.6-0.6,1.4-1,2.3-1h123.1c0.9,0,1.7,0.4,2.3,1c0.6,0.6,0.9,1.4,0.9,2.3
	v3.5H8.7v-3.5C8.7,21.7,9.1,20.9,9.7,20.3L9.7,20.3z"/>
</svg>
