<?xml version="1.0" encoding="utf-8"?>
<!-- Generator: Adobe Illustrator 23.0.3, SVG Export Plug-In . SVG Version: 6.00 Build 0)  -->
<svg version="1.1" id="Layer_1" xmlns="http://www.w3.org/2000/svg" xmlns:xlink="http://www.w3.org/1999/xlink" x="0px" y="0px"
	 viewBox="0 0 147 110" style="enable-background:new 0 0 147 110;" xml:space="preserve">
<style type="text/css">
	.st0{fill:#FF8726;}
	.st1{fill:#FFFFFF;}
	.st2{fill:#393F45;}
</style>
<path class="st0" d="M63.5,52.6v8.8c0,1-0.7,1.7-1.7,1.8c-1,0-1.7-0.7-1.8-1.7c0,0,0-0.1,0-0.1v-8.8l-1.8,1.7
	c-0.7,0.7-1.8,0.6-2.4-0.1c-0.6-0.7-0.6-1.7,0-2.4l4.7-4.7c0.7-0.7,1.8-0.7,2.4,0l4.7,4.7c0.7,0.7,0.6,1.8-0.1,2.4
	c-0.7,0.6-1.7,0.6-2.4,0C65.2,54.4,63.5,52.6,63.5,52.6z M79.3,55.5c-0.7,0.7-0.7,1.8,0,2.4l4.7,4.7c0.7,0.7,1.8,0.7,2.4,0l4.7-4.7
	c0.7-0.7,0.7-1.7,0.1-2.4c-0.7-0.7-1.7-0.7-2.4-0.1c0,0-0.1,0-0.1,0.1L87,57.3v-8.9c0-1-0.7-1.7-1.7-1.8c-1,0-1.7,0.7-1.8,1.7
	c0,0,0,0.1,0,0.1v8.8l-1.8-1.8C81.1,54.8,80,54.8,79.3,55.5L79.3,55.5z M98.4,21.9H65.9c-1.1,0-2.1,1.4-2.1,3v15.6
	c0,1.7,0.9,1.3,2.1,1.3h32.5c1.1,0,2.1-1.4,2.1-3V24.9C100.4,23.3,99.5,21.9,98.4,21.9L98.4,21.9z M98.4,68.2H65.9
	c-1.1,0-2.1-0.4-2.1,1.3v15.6c0,1.7,0.9,3,2.1,3h32.5c1.1,0,2.1-1.4,2.1-3V71.3C100.4,69.6,99.5,68.2,98.4,68.2L98.4,68.2z"/>
<path class="st1" d="M84,31.8c0-2.3,1.8-4.2,4.1-4.2s4.2,1.8,4.2,4.1c0,0,0,0.1,0,0.1c0,2.3-1.9,4.1-4.2,4.1
	C85.9,35.9,84,34.1,84,31.8z M88.2,74c-2.3,0-4.1,1.9-4.1,4.2s1.9,4.1,4.2,4.1s4.1-1.9,4.1-4.2c0-1.1-0.4-2.2-1.2-2.9
	C90.3,74.5,89.3,74,88.2,74L88.2,74z"/>
<path class="st2" d="M108,20.5C91.6,4,65.7,1.4,46.4,14.4C27,27.3,19.5,52.2,28.4,73.7c8.9,21.5,31.8,33.8,54.6,29.2
	c22.9-4.5,39.3-24.6,39.3-47.9C122.4,42,117.2,29.6,108,20.5L108,20.5z M105.6,87.1c-15.3,15.3-39.3,17.7-57.3,5.6
	c-18-12-25-35.1-16.7-55.1c8.3-20,29.5-31.4,50.8-27.1c21.2,4.2,36.5,22.9,36.5,44.5C118.9,67,114.1,78.6,105.6,87.1L105.6,87.1z
	 M94,31.8c0-3.2-2.6-5.9-5.9-5.9c-3.2,0-5.9,2.6-5.9,5.9s2.6,5.9,5.9,5.9C91.4,37.7,94,35.1,94,31.8z M85.7,31.8
	c0-1.3,1.1-2.4,2.4-2.4c1.3,0,2.4,1.1,2.4,2.4c0,0,0,0,0,0c0,1.3-1.1,2.4-2.4,2.4C86.8,34.3,85.7,33.2,85.7,31.8z M57.1,28.9v5.8
	c0,1-0.8,1.7-1.7,1.7s-1.7-0.8-1.7-1.7v-5.8c0-1,0.8-1.7,1.7-1.7S57.1,28,57.1,28.9z M100.8,21.6c0.9,0.9,1.4,2.1,1.4,3.4v13.8
	c0,2.6-2.1,4.8-4.7,4.8c0,0,0,0,0,0H49.6c-2.6,0-4.8-2.1-4.8-4.8V24.9c0-2.6,2.1-4.8,4.8-4.8h5.8c1,0,1.7,0.7,1.8,1.7
	c0,1-0.7,1.7-1.7,1.8c0,0-0.1,0-0.1,0h-5.8c-0.7,0-1.3,0.6-1.3,1.3v13.8c0,0.3,0.1,0.7,0.4,0.9c0.2,0.2,0.6,0.4,0.9,0.4h47.8
	c0.7,0,1.3-0.6,1.3-1.3V24.9c0-0.7-0.6-1.3-1.3-1.3H66.9c-0.7,0-1.3,0.6-1.3,1.3v0v9.7c0,1-0.7,1.7-1.7,1.8c-1,0-1.7-0.7-1.8-1.7
	c0,0,0-0.1,0-0.1v-9.7c0-2.6,2.1-4.8,4.8-4.8l0,0h30.5C98.7,20.2,99.9,20.7,100.8,21.6z M94,78.2c0-3.2-2.6-5.9-5.9-5.9
	c-3.2,0-5.9,2.6-5.9,5.9s2.6,5.9,5.9,5.9C91.4,84,94,81.4,94,78.2z M85.7,78.2c0-1.3,1.1-2.4,2.4-2.4c1.3,0,2.4,1.1,2.4,2.4
	c0,0,0,0,0,0c0,1.3-1.1,2.4-2.4,2.4C86.8,80.6,85.7,79.5,85.7,78.2z M57.1,75.2v5.8c0,1-0.8,1.7-1.7,1.7s-1.7-0.8-1.7-1.7l0,0v-5.8
	c0-1,0.8-1.7,1.7-1.7S57.1,74.3,57.1,75.2z M100.8,67.9c0.9,0.9,1.4,2.1,1.4,3.4v13.8c0,2.6-2.1,4.8-4.7,4.8c0,0,0,0,0,0H66.9
	c-2.6,0-4.8-2.1-4.8-4.8v-9.7c0-1,0.7-1.7,1.7-1.8c1,0,1.7,0.7,1.8,1.7c0,0,0,0.1,0,0.1v9.7c0,0.3,0.1,0.7,0.4,0.9
	c0.2,0.2,0.6,0.4,0.9,0.4h30.5c0.7,0,1.3-0.6,1.3-1.3V71.3c0-0.7-0.6-1.3-1.3-1.3H49.6c-0.7,0-1.3,0.6-1.3,1.3l0,0v13.8
	c0,0.3,0.1,0.7,0.4,0.9c0.2,0.2,0.6,0.4,0.9,0.4h5.8c1,0,1.7,0.8,1.7,1.7c0,1-0.8,1.7-1.7,1.7h-5.8c-2.6,0-4.8-2.1-4.8-4.8V71.3
	c0-2.6,2.1-4.8,4.8-4.8c0,0,0,0,0,0h47.8C98.7,66.5,99.9,67,100.8,67.9L100.8,67.9z"/>
</svg>
