<?xml version="1.0" encoding="utf-8"?>
<!-- Generator: Adobe Illustrator 23.0.3, SVG Export Plug-In . SVG Version: 6.00 Build 0)  -->
<svg version="1.1" id="Layer_1" xmlns="http://www.w3.org/2000/svg" xmlns:xlink="http://www.w3.org/1999/xlink" x="0px" y="0px"
	 viewBox="0 0 147 110" style="enable-background:new 0 0 147 110;" xml:space="preserve">
<style type="text/css">
	.st0{fill:#FF8726;}
	.st1{fill:#393F45;}
</style>
<path class="st0" d="M21.5,42c0-2.7,2.2-4.9,4.9-4.9c0,0,0,0,0,0h68.7c2.7,0,4.9,2.2,4.9,4.9c0,0,0,0,0,0v28.2
	c0,2.7-2.2,4.9-4.9,4.9c0,0,0,0,0,0H26.4c-2.7,0-4.9-2.2-4.9-4.9c0,0,0,0,0,0L21.5,42L21.5,42z"/>
<path class="st1" d="M66,9.2c-0.2-0.9,0.4-1.9,1.3-2.1C70.8,6.4,74.3,6,77.8,6c0.5,0,1,0,1.5,0c1,0,1.7,0.9,1.6,1.8
	c0,0.9-0.8,1.7-1.7,1.6c-0.5,0-0.9,0-1.4,0c-3.3,0-6.5,0.3-9.7,1C67.2,10.7,66.2,10.1,66,9.2C66,9.2,66,9.2,66,9.2L66,9.2z M52.7,17
	c2-1.3,4-2.4,6.2-3.4c0.9-0.4,1.2-1.5,0.8-2.3c-0.4-0.8-1.4-1.2-2.2-0.8c-2.3,1.1-4.5,2.3-6.7,3.7c-0.8,0.5-1,1.6-0.5,2.4
	C50.8,17.3,51.9,17.5,52.7,17C52.7,17,52.7,17,52.7,17L52.7,17z M93.7,97.9c-2.6,1-5.2,1.7-7.9,2.2c-0.9,0.2-1.5,1.1-1.3,2.1
	c0.2,0.9,1,1.5,1.9,1.3c2.9-0.5,5.7-1.3,8.5-2.3c0.9-0.3,1.4-1.3,1-2.2C95.7,98,94.7,97.6,93.7,97.9C93.8,97.9,93.8,97.9,93.7,97.9
	L93.7,97.9z M116.5,25c-6.6-8.4-15.7-14.5-26.1-17.3c-0.9-0.2-1.9,0.3-2.1,1.2c-0.2,0.9,0.3,1.9,1.2,2.1
	c24.4,6.5,38.8,31.5,32.3,55.9c-2.8,10.6-9.4,19.8-18.4,26c-0.8,0.5-1,1.6-0.5,2.4s1.6,1,2.4,0.5l0,0c22.4-15.3,28.2-45.8,12.9-68.2
	C117.8,26.6,117.2,25.8,116.5,25L116.5,25z M32.5,46.2v19.9c0,1,0.7,1.7,1.7,1.8c1,0,1.7-0.7,1.8-1.7c0,0,0-0.1,0-0.1V46.2
	c0-1-0.8-1.7-1.8-1.7C33.3,44.6,32.6,45.3,32.5,46.2z M94.8,35.4h-68c-3.8,0-6.8,3.1-6.8,6.8v28c0,3.8,3,6.8,6.8,6.8c0,0,0,0,0,0
	h7.9c1,0,1.7-0.7,1.8-1.7c0-1-0.7-1.7-1.7-1.8c0,0-0.1,0-0.1,0h-7.9c-1.9,0-3.4-1.5-3.4-3.4v-28c0-1.9,1.5-3.4,3.4-3.4h68
	c1.9,0,3.4,1.5,3.4,3.4v28c0,1.9-1.5,3.4-3.4,3.4H49c-0.5,0-0.8-0.4-0.8-0.8V46.2c0-1-0.7-1.7-1.7-1.8c-1,0-1.7,0.7-1.8,1.7
	c0,0,0,0.1,0,0.1v26.5c0,2.4,1.9,4.3,4.3,4.3h45.8c3.8,0,6.8-3,6.8-6.8c0,0,0,0,0,0v-28C101.7,38.4,98.6,35.4,94.8,35.4z M71.3,65.1
	l16.1-15.2c0.7-0.7,0.7-1.8,0-2.4c-0.6-0.6-1.7-0.7-2.4-0.1l-15,14.1L64,55.6c-0.7-0.7-1.8-0.7-2.4,0c-0.7,0.7-0.7,1.8,0,2.4
	c0,0,0.1,0.1,0.1,0.1l7.3,6.9C69.6,65.7,70.6,65.7,71.3,65.1z M74.2,100.6c-5.9-0.5-11.7-2.1-17-4.8c-0.8-0.5-1.9-0.3-2.4,0.6
	c-0.5,0.8-0.3,1.9,0.6,2.4c0.1,0.1,0.2,0.1,0.3,0.1c5.7,2.9,11.9,4.6,18.3,5.1c1,0.1,1.8-0.6,1.9-1.6
	C75.9,101.6,75.2,100.7,74.2,100.6C74.3,100.6,74.2,100.6,74.2,100.6L74.2,100.6z"/>
</svg>
