<?xml version="1.0" encoding="utf-8"?>
<!-- Generator: Adobe Illustrator 23.0.3, SVG Export Plug-In . SVG Version: 6.00 Build 0)  -->
<svg version="1.1" id="body_1" xmlns="http://www.w3.org/2000/svg" xmlns:xlink="http://www.w3.org/1999/xlink" x="0px" y="0px"
	 viewBox="0 0 147 110" style="enable-background:new 0 0 147 110;" xml:space="preserve">
<style type="text/css">
	.st0{fill:#FF8726;}
	.st1{fill:#393F45;}
</style>
<g transform="matrix(0.34571967 0 0 0.34571967 -0 1.1005782)">
	<path class="st0" d="M143.6,132.5l-0.1,0.2l-0.1-0.1L143.6,132.5z M212.3,165.3l-68.8-32.6c-0.5,1-0.7,2.2-0.8,3.3l0,0v58.4
		c0,2.8,1.5,5.5,4,6.9l0,0l61.4,29.2c2.4,1.4,5.5,1.4,7.9,0l0,0l61.4-29.2c2.5-1.4,4-4,4-6.9l0,0v-62.3L212.3,165.3z M146.7,129.2
		c-1.3,0.8-2.4,1.9-3.1,3.3l0,0l44.1-22.8L146.7,129.2z M198.4,92.5L207,84v49c0,2.8,2.2,5,5,5c2.8,0,5-2.2,5-5l0,0V84l8.6,8.6
		c1.3,1.3,3.1,1.8,4.8,1.3s3.1-1.8,3.5-3.5c0.5-1.7,0-3.6-1.3-4.8l0,0l-17.1-17.2c-2-2-5.1-2-7.1,0l0,0l-17.1,17.1
		c-1.3,1.3-1.8,3.1-1.4,4.9c0.5,1.7,1.8,3.1,3.6,3.6C195.3,94.4,197.2,93.8,198.4,92.5z"/>
	<path class="st1" d="M344.6,204.1c-0.1,0.4-0.1,0.7-0.3,1.1c-20.7,54.9-73.3,91.3-132,91.4c-3.1,0-6.2-0.1-9.3-0.3
		c-74.2-4.8-132-66.4-132.1-140.8c0-3.1,0.1-6.2,0.3-9.3c0.2-2.8,2.6-4.9,5.3-4.7c2.8,0.2,4.9,2.6,4.7,5.3c-0.2,2.9-0.3,5.8-0.3,8.6
		c0,22.1,5.6,43.8,16.2,63.1c0.2,0.3,0.4,0.6,0.6,0.9c11.6,20.6,28.5,37.7,49,49.5c40.6,23.3,90.6,23.2,131.1-0.3
		c40.5-23.5,65.4-66.8,65.4-113.7c0-2.2-0.1-4.4-0.2-6.5v-0.1c-0.3-5.3-0.9-10.6-1.8-15.9l0,0v-0.2c-0.2-1-0.3-1.9-0.5-2.9l0,0
		l-0.1-0.6c-2.5-12.4-6.9-24.4-12.9-35.6c-0.2-0.2-0.4-0.5-0.5-0.8C316,71.5,299.1,54,278.5,42c-37.6-22-83.7-23.9-123-5
		c-0.3,0.2-0.7,0.3-1,0.4c-29.1,14.3-51.9,38.8-64,68.9l0,0l11-4.7c2.5-1.1,5.5,0.1,6.6,2.6s-0.1,5.5-2.6,6.6l0,0L83.8,120
		c-1.2,0.6-2.6,0.6-3.9,0.1s-2.3-1.5-2.8-2.7l0,0l-9.2-21.7c-1.1-2.6,0.1-5.5,2.7-6.6s5.5,0.1,6.6,2.7l0,0l4.3,10.2
		C104.6,44.8,162.4,9.3,224,14.5s112.7,49.8,126.1,110.1v0.1c0.1,0.7,0.3,1.3,0.4,2c0.1,0.3,0.1,0.6,0.2,0.8c0.2,1,0.4,1.9,0.5,2.9
		c0,0.1,0,0.3,0.1,0.4c0.2,1.1,0.4,2.1,0.5,3.2C355.4,157.7,352.9,181.8,344.6,204.1L344.6,204.1L344.6,204.1z M189.9,114.2
		L153,131.7l59.2,28.1l67-32.2c1.5-0.7,3.4-0.6,4.8,0.3c1.5,0.9,2.3,2.5,2.3,4.2l0,0v62.3c0,4.6-2.4,8.9-6.4,11.2l0,0l-0.4,0.2
		L218.2,235c-3.8,2.1-8.4,2.1-12.2,0l0,0l-61.4-29.2l-0.4-0.2c-4-2.3-6.5-6.6-6.5-11.2l0,0V136c0-1.4,0.2-2.9,0.7-4.2
		c0.1-0.5,0.2-0.9,0.4-1.3c0.2-0.4,0.4-0.8,0.8-1.1c1.1-1.9,2.7-3.4,4.6-4.5l0,0l0.4-0.2l41-19.5c2.4-0.9,5.2,0.2,6.3,2.5
		C193,110,192.1,112.8,189.9,114.2L189.9,114.2z M210.1,169.9l-62.4-29.6v54.2c0,1,0.5,2,1.4,2.5l0,0l61.1,29l0.4,0.2
		c0.4,0.3,0.9,0.4,1.5,0.4c0.5,0,1-0.1,1.5-0.4l0,0l0.4-0.2l61.1-29c0.9-0.5,1.4-1.5,1.4-2.5l0,0V140l-62,29.8
		C213.1,170.5,211.5,170.5,210.1,169.9L210.1,169.9z"/>
</g>
</svg>
