<?xml version="1.0" encoding="utf-8"?>
<!-- Generator: Adobe Illustrator 23.0.3, SVG Export Plug-In . SVG Version: 6.00 Build 0)  -->
<svg version="1.1" id="Layer_1" xmlns="http://www.w3.org/2000/svg" xmlns:xlink="http://www.w3.org/1999/xlink" x="0px" y="0px"
	 viewBox="0 0 147 110" style="enable-background:new 0 0 147 110;" xml:space="preserve">
<style type="text/css">
	.st0{fill:#FF8726;}
	.st1{fill:#323C46;}
</style>
<path class="st0" d="M52.2,57.1c0,1-0.8,1.8-1.8,1.8H39.1c-1,0-1.8-0.8-1.8-1.8s0.8-1.8,1.8-1.8h11.4C51.4,55.3,52.2,56.1,52.2,57.1
	z M50.4,62.7H38.9c-1,0-1.8,0.8-1.8,1.8s0.8,1.8,1.8,1.8h11.5c1,0,1.8-0.8,1.8-1.8S51.4,62.7,50.4,62.7z M39.1,51.5h4
	c1,0,1.8-0.8,1.8-1.8S44.1,48,43.1,48h-4c-1,0-1.8,0.8-1.8,1.8S38.1,51.5,39.1,51.5z M125.8,30.1c5.9-2.8,8.5-9.8,5.7-15.7
	s-9.8-8.5-15.7-5.7s-8.5,9.8-5.7,15.7C112.8,30.3,119.9,32.9,125.8,30.1z M79.2,40.8l20.8-9.7l-0.9,2.4c-0.3,0.9,0.1,1.9,1.1,2.2
	s1.9-0.1,2.2-1l2.3-6.3c0.2-0.4,0.1-0.9-0.1-1.3c-0.2-0.4-0.6-0.8-1-0.9l-6.3-2.3c-0.9-0.3-1.9,0.1-2.2,1c-0.3,0.9,0.1,1.9,1.1,2.2
	l0,0l2.4,0.9l-20.8,9.7c-0.9,0.4-1.3,1.5-0.8,2.3C77.2,40.8,78.3,41.2,79.2,40.8L79.2,40.8z M126.2,79.9c-5.9-2.8-13-0.2-15.7,5.7
	s-0.2,13,5.7,15.7s13,0.2,15.7-5.7S132.2,82.6,126.2,79.9z M102.8,75.4c-0.3-0.9-1.3-1.4-2.2-1.1c-0.9,0.3-1.4,1.3-1.1,2.2l0,0
	l0.9,2.4l-20.8-9.7c-0.9-0.4-1.9,0-2.3,0.8s0,1.9,0.8,2.3l20.8,9.7L96.6,83c-0.9,0.3-1.4,1.3-1.1,2.2c0.3,0.9,1.3,1.4,2.2,1.1
	l6.3-2.3c0.4-0.2,0.8-0.5,1-0.9c0.2-0.4,0.2-0.9,0.1-1.3L102.8,75.4L102.8,75.4z"/>
<path class="st1" d="M48.7,46c0.6,0.6,1.5,1,2.4,1h6.7c0.5,0,0.9-0.2,1.3-0.5c0.7-0.7,0.7-1.8,0-2.5l-8.9-8.9H33.4
	c-0.9,0-1.8,0.4-2.4,1s-1,1.5-1,2.4v32.4c0,0.9,0.4,1.8,1,2.4s1.5,1,2.4,1h22.8c0.9,0,1.8-0.4,2.4-1s1-1.5,1-2.4V51.5
	c0-1-0.8-1.8-1.8-1.8s-1.8,0.8-1.8,1.8l0,0v19.3H33.4V38.6h14.3v5C47.7,44.5,48.1,45.4,48.7,46L48.7,46z M51.2,41l2.4,2.5h-2.4V41z
	 M44.9,23.4c-9,0-17.2,3.7-23.1,9.6c-5.9,5.9-9.6,14.1-9.6,23.1c0,9,3.7,17.2,9.6,23.1c5.9,5.9,14.1,9.6,23.1,9.6
	c9,0,17.2-3.7,23.1-9.6c5.9-5.9,9.6-14.1,9.6-23.1c0-9-3.7-17.2-9.6-23.1C62.1,27.1,53.9,23.4,44.9,23.4z M65.6,76.8
	c-5.3,5.3-12.6,8.6-20.7,8.6s-15.4-3.3-20.7-8.6c-5.3-5.3-8.6-12.6-8.6-20.7s3.3-15.4,8.6-20.7c5.3-5.3,12.6-8.6,20.7-8.6
	s15.4,3.3,20.7,8.6c5.3,5.3,8.6,12.6,8.6,20.7S70.9,71.5,65.6,76.8z M108.5,25.1c1.2,2.5,2.9,4.4,5.1,5.8c2.2,1.3,4.7,2.1,7.2,2.1
	c1.9,0,3.9-0.4,5.7-1.3c2.5-1.1,4.4-3,5.8-5.1s2.1-4.6,2.1-7.2c0-1.9-0.4-3.9-1.3-5.7c-1.1-2.5-2.9-4.4-5.1-5.8
	c-2.2-1.3-4.7-2.1-7.2-2.1c-1.9,0-3.9,0.4-5.7,1.3c-2.5,1.2-4.4,3-5.8,5.1s-2.1,4.7-2.1,7.2C107.2,21.3,107.6,23.3,108.5,25.1
	C108.5,25.1,108.5,25.1,108.5,25.1z M110.7,19.4c0-1.9,0.5-3.8,1.5-5.4c1-1.6,2.4-2.9,4.3-3.8c1.4-0.6,2.8-0.9,4.3-0.9
	c1.9,0,3.8,0.5,5.3,1.5c1.6,1,2.9,2.4,3.8,4.3c0.6,1.4,0.9,2.8,0.9,4.3c0,1.9-0.5,3.8-1.5,5.4c-1,1.6-2.4,2.9-4.3,3.8
	c-1.4,0.6-2.8,1-4.3,1c-1.9,0-3.8-0.5-5.3-1.5c-1.6-1-2.9-2.5-3.8-4.3l0,0C111,22.3,110.7,20.8,110.7,19.4z M132.8,83.4
	c-1.3-2.2-3.3-4-5.8-5.1c-1.8-0.9-3.8-1.3-5.7-1.3c-2.6,0-5.1,0.7-7.2,2.1s-4,3.3-5.1,5.8l0,0c-0.9,1.8-1.3,3.8-1.3,5.7
	c0,2.6,0.7,5.1,2.1,7.2s3.3,4,5.8,5.1c1.8,0.9,3.8,1.3,5.7,1.3c2.6,0,5.1-0.7,7.2-2.1c2.1-1.3,4-3.3,5.1-5.8
	c0.9-1.8,1.3-3.8,1.3-5.7C134.8,88,134.1,85.5,132.8,83.4L132.8,83.4z M130.4,94.8c-0.9,1.8-2.2,3.3-3.8,4.3c-1.6,1-3.5,1.5-5.3,1.5
	c-1.4,0-2.9-0.3-4.3-0.9c-1.8-0.9-3.3-2.2-4.3-3.8c-1-1.6-1.5-3.5-1.5-5.3c0-1.4,0.3-2.9,0.9-4.3l0,0c0.9-1.8,2.2-3.3,3.8-4.3
	c1.6-1,3.5-1.5,5.3-1.5c1.4,0,2.9,0.3,4.3,0.9c1.8,0.9,3.3,2.2,4.3,3.8c1,1.6,1.5,3.5,1.5,5.3C131.3,92,131,93.5,130.4,94.8z"/>
</svg>
