<?xml version="1.0" encoding="utf-8"?>
<!-- Generator: Adobe Illustrator 23.0.3, SVG Export Plug-In . SVG Version: 6.00 Build 0)  -->
<svg version="1.1" id="Layer_1" xmlns="http://www.w3.org/2000/svg" xmlns:xlink="http://www.w3.org/1999/xlink" x="0px" y="0px"
	 viewBox="0 0 147 110" style="enable-background:new 0 0 147 110;" xml:space="preserve">
<style type="text/css">
	.st0{fill:#FF8726;}
	.st1{fill:#323C46;}
</style>
<path class="st0" d="M87.2,80.3l5.7,22.6H53.7l5.9-22.6H87.2z M132.3,7.9H14.8c-2.7,0-5,2.2-5,5v6h127.4v-5.9
	C137.2,10.1,135,7.9,132.3,7.9L132.3,7.9z M96.8,49.2L75.4,32.8c-0.3-0.2-0.7-0.4-1.1-0.4c-0.3,0-0.5,0.1-0.8,0.2
	c-0.6,0.3-1,0.9-1,1.6v26.5c0,0.7,0.4,1.3,1,1.6c0.2,0.1,0.5,0.2,0.7,0.2c0.4,0,0.8-0.2,1.2-0.4l5.3-4.6l4.7,9.6
	c0.3,0.6,0.9,1,1.6,1c0.3,0,0.5-0.1,0.8-0.2l5.2-2.5c0.4-0.2,0.7-0.6,0.9-1c0.2-0.4,0.1-0.9-0.1-1.3l-4.7-9.5l6.7-1.1
	c0.7-0.1,1.2-0.6,1.4-1.3C97.6,50.3,97.3,49.6,96.8,49.2L96.8,49.2z M30.6,34.1H17.7c-1,0-1.8,0.8-1.8,1.8s0.8,1.8,1.8,1.8h12.9
	c1,0,1.8-0.8,1.8-1.8S31.6,34.1,30.6,34.1z M30.6,45.3H17.7c-1,0-1.8,0.8-1.8,1.8s0.8,1.8,1.8,1.8h12.9c1,0,1.8-0.8,1.8-1.8
	S31.6,45.3,30.6,45.3z M30.6,56.5H17.7c-1,0-1.8,0.8-1.8,1.8s0.8,1.8,1.8,1.8h12.9c1,0,1.8-0.8,1.8-1.8S31.6,56.5,30.6,56.5z"/>
<path class="st1" d="M137.3,25.7c-1,0-1.8,0.8-1.8,1.8l0,0l0,47.7c0,0.9-0.4,1.7-0.9,2.3c-0.6,0.6-1.4,0.9-2.3,0.9h-92V20.1h97
	c0.5,0,0.9-0.2,1.2-0.5c0.3-0.3,0.5-0.8,0.5-1.2v-5.3c0-1.9-0.8-3.6-2-4.8c-1.2-1.2-2.9-2-4.8-2H14.8c-1.9,0-3.6,0.8-4.8,2
	c-1.2,1.2-2,2.9-2,4.8v62c0,1.9,0.8,3.6,2,4.8c1.2,1.2,2.9,2,4.8,2h42.4L52,101.4c-0.1,0.5,0,1.1,0.3,1.5s0.8,0.7,1.4,0.7h39.2
	c0.5,0,1.1-0.3,1.4-0.7c0.3-0.4,0.4-1,0.3-1.5l-5.1-19.5h42.7c1.9,0,3.6-0.8,4.8-2c1.2-1.2,2-2.9,2-4.8V27.4
	C139,26.5,138.2,25.7,137.3,25.7L137.3,25.7z M12.5,10.8c0.6-0.6,1.4-0.9,2.3-0.9h117.5c0.9,0,1.7,0.4,2.3,0.9
	c0.6,0.6,0.9,1.4,0.9,2.3v3.5h-124v-3.5C11.5,12.2,11.9,11.4,12.5,10.8L12.5,10.8z M12.5,77.4c-0.6-0.6-0.9-1.4-0.9-2.3v-55h25.3
	v58.2h-22C13.9,78.4,13.1,78,12.5,77.4L12.5,77.4z M90.7,100.1H56l4.8-18.2h25.1L90.7,100.1L90.7,100.1z M99.1,51.4
	c0.3-1.3-0.2-2.8-1.3-3.6L76.5,31.4c-0.6-0.5-1.4-0.7-2.1-0.7c-0.5,0-1.1,0.1-1.6,0.4c-1.2,0.6-1.9,1.8-1.9,3.1v26.5
	c0,1.4,0.8,2.6,2.1,3.2c0.5,0.2,1,0.3,1.4,0.3c0.8,0,1.6-0.3,2.3-0.8l3.6-3.1l3.7,7.6c0.6,1.2,1.8,2,3.2,2c0.5,0,1-0.1,1.5-0.4
	l5.2-2.5c0.8-0.4,1.5-1.1,1.8-2c0.3-0.9,0.2-1.8-0.2-2.7l-3.6-7.4l4.4-0.7C97.7,53.8,98.8,52.8,99.1,51.4z M86.7,52.1l5.7,11.6
	l-5.2,2.5l-5.7-11.7l-7.1,6.1V34.2l21.3,16.4L86.7,52.1L86.7,52.1z"/>
</svg>
