<?xml version="1.0" encoding="utf-8"?>
<!-- Generator: Adobe Illustrator 23.0.3, SVG Export Plug-In . SVG Version: 6.00 Build 0)  -->
<svg version="1.1" id="body_1" xmlns="http://www.w3.org/2000/svg" xmlns:xlink="http://www.w3.org/1999/xlink" x="0px" y="0px"
	 viewBox="0 0 147 110" style="enable-background:new 0 0 147 110;" xml:space="preserve">
<style type="text/css">
	.st0{fill:#FF8726;}
	.st1{fill:#393F45;}
</style>
<g transform="matrix(0.34571967 0 0 0.34571967 -0 1.1005782)">
	<path class="st0" d="M242.4,54.9c0,8.2-2.9,15.2-8.7,21c-5.8,5.8-12.8,8.7-21,8.7c-8.2,0-15.2-2.9-21-8.7c-5.8-5.8-8.7-12.8-8.7-21
		s2.9-15.2,8.7-21c5.8-5.8,12.8-8.7,21-8.7c8.2,0,15.2,2.9,21,8.7C239.5,39.7,242.4,46.7,242.4,54.9c0,0.3,0,0.7,0,1"/>
	<path class="st1" d="M351.4,188.9l-18.1-20.1c-0.9-1-2.1-1.6-3.5-1.7c-1.3-0.1-2.6,0.4-3.6,1.3l0,0l-20.1,18.1c-2,1.9-2.1,5-0.3,7
		c1.8,2,4.9,2.2,7,0.4l0,0l10.6-9.5c-7,53.7-51.6,94.7-105.7,97.1l0,0V89.2c18-2.6,30.9-18.7,29.6-36.8
		c-1.3-18.1-16.4-32.2-34.6-32.2s-33.3,14-34.6,32.2s11.6,34.2,29.6,36.8l0,0v192.3c-54-2.4-98.6-43.2-105.7-96.8l0,0l10.3,9.3
		c2.1,1.8,5.2,1.6,7-0.4s1.7-5.1-0.3-7l0,0l-20-18.1c-2.1-1.8-5.2-1.7-7.1,0.4l0,0L73.8,189c-1.8,2.1-1.7,5.2,0.4,7.1
		c2.1,1.8,5.2,1.7,7.1-0.4l0,0L91.9,184c7.1,61.4,59,107.7,120.8,107.8s113.8-46.2,121-107.5l0,0l10.4,11.5c1.2,1.4,3,2,4.8,1.6
		c1.8-0.4,3.2-1.7,3.8-3.4C353,192.1,352.6,190.2,351.4,188.9z M188,54.9c0-11.8,8.3-21.9,19.9-24.2c11.5-2.3,23.1,3.9,27.6,14.8
		s0.7,23.4-9.1,30c-9.8,6.5-22.8,5.2-31.2-3.1C190.6,67.7,188,61.4,188,54.9z"/>
</g>
</svg>
