<?xml version="1.0" encoding="utf-8"?>
<!-- Generator: Adobe Illustrator 23.0.3, SVG Export Plug-In . SVG Version: 6.00 Build 0)  -->
<svg version="1.1" id="body_1" xmlns="http://www.w3.org/2000/svg" xmlns:xlink="http://www.w3.org/1999/xlink" x="0px" y="0px"
	 viewBox="0 0 147 110" style="enable-background:new 0 0 147 110;" xml:space="preserve">
<style type="text/css">
	.st0{fill:#FF8726;}
	.st1{fill:#393F45;}
</style>
<g transform="matrix(0.34571967 0 0 0.34571967 -0 1.1005782)">
	<path class="st0" d="M212.6,130c-9.5,0-18-5.7-21.7-14.4c-3.6-8.8-1.6-18.8,5.1-25.5c6.7-6.7,16.8-8.7,25.5-5.1
		c8.8,3.6,14.5,12.2,14.5,21.6C236,119.5,225.5,130,212.6,130z"/>
	<path class="st1" d="M363.3,148.6c-0.6,1.9-2.3,3.3-4.3,3.5l0,0l-41.9,3.6v130.9c0,2.8-2.2,5-5,5l0,0h-71c-2.8,0-5-2.2-5-5
		s2.2-5,5-5l0,0h66V151.1c0-2.6,2-4.8,4.6-5l0,0l34.3-3L212.6,31.7L79.2,143.2l34.3,3c2.6,0.2,4.6,2.4,4.6,5l0,0v130.5h61v-90.5
		c0-2.8,2.2-5,5-5l0,0h57c2.8,0,5,2.2,5,5l0,0v65c0,2.8-2.2,5-5,5s-5-2.2-5-5l0,0v-60h-47v90.5c0,2.8-2.2,5-5,5l0,0h-71
		c-2.8,0-5-2.2-5-5l0,0v-131l-41.9-3.6c-2-0.2-3.7-1.6-4.3-3.5c-0.6-1.9,0-4,1.6-5.3l0,0l145.9-122c1.9-1.5,4.6-1.5,6.4,0l0,0
		l145.9,121.9C363.3,144.6,363.9,146.7,363.3,148.6z M212.6,78.1c11.5,0,21.9,6.9,26.3,17.6c4.4,10.6,2,22.9-6.2,31
		c-8.1,8.1-20.4,10.6-31,6.2c-10.6-4.4-17.6-14.8-17.6-26.3C184.2,90.9,196.9,78.2,212.6,78.1z M212.6,88.1c-7.5,0-14.2,4.5-17,11.4
		c-2.8,6.9-1.3,14.8,4,20.1c5.3,5.3,13.2,6.9,20.1,4c6.9-2.9,11.4-9.6,11.4-17C231,96.4,222.8,88.2,212.6,88.1z"/>
</g>
</svg>
