<?xml version="1.0" encoding="utf-8"?>
<!-- Generator: Adobe Illustrator 23.0.3, SVG Export Plug-In . SVG Version: 6.00 Build 0)  -->
<svg version="1.1" id="body_1" xmlns="http://www.w3.org/2000/svg" xmlns:xlink="http://www.w3.org/1999/xlink" x="0px" y="0px"
	 viewBox="0 0 147 110" style="enable-background:new 0 0 147 110;" xml:space="preserve">
<style type="text/css">
	.st0{fill:#FF8726;}
	.st1{fill:#393F45;}
</style>
<g transform="matrix(0.34571967 0 0 0.34571967 -0 1.1005782)">
	<path class="st0" d="M165.6,151.9c1.3,38.4-7.8,79.5-19.7,122.4l0,0h-64c-11.9-43-21-84-19.7-122.4l0,0H165.6z M244.4,45.4
		C248.2,66,262.6,86,281,87.9l0,0l9-14.4C288.3,61.3,268.1,44.8,244.4,45.4z"/>
	<path class="st1" d="M409.6,177.9c-0.2-2.6-2.4-4.7-5-4.6l0,0h-33.8c1.2-1.9,2.7-4.1,4.2-6.6c4.9-7.6,9.3-15.5,13.2-23.6
		c2-4.5,3.7-9.1,5.1-13.8c1.3-4.6,2-9.4,2.1-14.2l0,0V115c0-1.2,0-2.3,0-3.4c0-13.7-1.7-24.6-4.4-33.4c-4-13.2-10.2-21.4-15.6-26.3
		c-2.7-2.6-5.8-4.6-9.2-6.2l0,0l-19.6-16.9c-1.4-1.2-3.4-1.5-5.1-0.9c-1.3,0.5-2.5,1.2-3.5,2.1c-2,1.6-3.8,3.3-5.5,5.3
		c-2.7,3.1-5.2,6.4-7.4,9.8c-1.1,1.6-2,3.3-2.8,4.8c-0.7,1.4-1.4,2.8-1.8,4.3c-0.6,1.9,0.1,4,1.6,5.3l0,0l13.1,11
		c1.8,6.5,2.7,13.3,2.6,20.1c0,5.3-0.5,10.6-1.3,15.9c-2.1-3.3-4.6-6.5-7.3-9.4c-1.7-1.9-3.6-3.6-5.6-5.2c-1.8-1.5-3.8-2.7-5.9-3.7
		l0,0l-0.2-0.1c-3-1.3-6.3-2-9.5-2c-2.3,0-4.6,0.3-6.8,0.8c-3.2,0.7-6.2,1.6-9.6,2.4c-2,0.4-4,0.8-6,1l0,0l0.1-0.1
		c1-2.2,2.3-4.3,3.8-6.2c2.6-3.3,5.4-6.5,8.5-9.4c1.4-1.3,2.6-2.4,3.4-3.1c0.4-0.4,0.8-0.7,1-0.8l0,0l0.1-0.1
		c2.4-1.3,3.3-4.2,2.2-6.6c-1.2-2.4-4-3.5-6.5-2.4c-0.3,0.1-0.6,0.3-0.8,0.4c-0.4,0.2-0.6,0.4-0.9,0.6c-0.5,0.4-1.1,0.9-1.8,1.5
		s-1.4,1.2-2.2,1.9c-0.9-1.6-1.9-3.2-3-4.7c-4.8-6.1-11-11-18-14.4c-8.1-4.1-17-6.2-26-6.3l0,0h-1.3c-1.5,0-2.8,0.7-3.8,1.8
		c-0.9,1.1-1.3,2.6-1,4.1c2,11.2,6.8,21.7,14,30.5c3.4,4.2,7.5,7.9,12.1,10.8l0,0l0.7,0.4c-1.4-0.5-2.7-1-4-1.5
		c-1.4-0.6-2.9-1.1-4.4-1.5c-1.7-0.5-3.4-0.7-5.2-0.7c-1.4,0-2.8,0.2-4.2,0.5c-5,1.2-9.6,3.6-13.5,6.9c-6.3,5.3-11.2,11.9-14.5,19.4
		c-3.6,7.8-5.5,16.4-5.6,25c0,0.6,0,1.1,0,1.7c0.2,4.5,1.1,9,2.5,13.3c2,5.7,4.4,11.2,7.4,16.4c1.2,2.2,2.4,4.2,3.2,5.7l0,0l0.1,0.1
		h-31.7c-2.8,0-5,2.2-5,5s2.2,5,5,5l0,0h203.5c-0.2,3.2-0.9,6.4-2,9.4c-2.5,6.7-7.1,13.3-13.6,19.3c-9.8,9-23.9,16.9-41,22.3
		c-18.8,5.9-38.4,8.8-58.1,8.6c-15.8,0-33.2-3.5-49.1-8.5c-14.3-4.4-28-10.3-41.1-17.4c-1.6-0.9-3.5-0.9-5.1,0s-2.5,2.6-2.5,4.4
		c0,1.8,1.1,3.5,2.7,4.3c13.7,7.5,28.1,13.6,43,18.3c16.7,5.2,34.9,9,52.2,9c33.8,0,64.5-7.6,87.2-20.3c11.3-6.4,20.6-14,27.2-22.7
		c3.2-4.2,5.8-8.9,7.7-13.9c1.8-4.9,2.7-10,2.7-15.2C409.7,179.8,409.6,178.8,409.6,177.9z M333.8,50c1.9-3,4.1-5.9,6.5-8.5
		c0.8-1,1.7-1.9,2.7-2.7l0,0l17.4,14.9c0.5,0.4,1.1,0.8,1.7,1c1.3,0.5,2.5,1.2,3.7,2c3.2,2.2,8.1,6.6,12.2,15.1s7.5,21,7.5,39.7
		c0,1.1,0,2.2,0,3.3l0,0v0.1c-0.2,5.4-1.2,10.7-3,15.8c-3,8.3-6.9,16.3-11.5,23.8c-2.2,3.6-4.3,7-6.2,10c-1.9,3-3.6,5.6-4.8,7.7
		c-0.2,0.3-0.4,0.7-0.5,1.1l0,0H317c1.9-2.2,3.7-4.7,5.6-7.3c7.3-10.6,13.2-22.1,17.5-34.3c4.6-13,7.7-27.2,7.7-41.3
		c0.1-8.3-1.1-16.5-3.5-24.4c-0.3-0.9-0.8-1.8-1.6-2.4l0,0l-11.4-9.5C332,52.9,332.8,51.4,333.8,50z M257.1,64.8
		c-2.7-4.4-4.8-9.1-6.2-14.1c10.1,1.2,19.5,5.5,27,12.3c2,1.8,3.7,3.9,5.1,6.1c0.9,1.4,1.5,2.9,1.9,4.4c-1.6,1.8-3.2,3.8-4.6,5.8
		c-0.7,1-1.4,2-2,3.1c-2.7-0.7-5.3-1.8-7.6-3.3C265.1,75.5,260.4,70.5,257.1,64.8z M238.7,172.9c-0.2-0.5-0.4-1.1-0.6-1.6
		c-0.4-0.9-0.9-1.9-1.5-2.9c-1-1.8-2.2-3.9-3.5-6.3c-2.1-3.8-4-7.8-5.6-11.9c-1.6-4.1-2.6-8.5-2.9-12.9c0-0.5,0-0.9,0-1.4
		c0.1-9.6,2.9-18.9,8-27c2.3-3.6,5.1-6.9,8.4-9.6c2.7-2.3,6-4,9.4-4.9c0.6-0.2,1.3-0.2,1.9-0.2c1.2,0,2.4,0.3,3.6,0.7
		c2.1,0.7,5,2.1,8.9,3.3c4.9,1.5,10,2.2,15.1,2.2c5.8,0,11.6-0.8,17.2-2.4c2.2-0.6,4.2-1.1,5.9-1.5c1.5-0.4,3.1-0.6,4.7-0.6
		c1.9,0,3.8,0.4,5.6,1.2c1.9,1,3.7,2.2,5.2,3.7c3.3,3,6.3,6.4,8.7,10.2c1.2,1.9,2.4,3.8,3.3,5.8c0.8,1.6,1.4,3.4,1.9,5.1
		c-1.9,6.2-4.2,12.3-6.9,18.2c-3.2,7-7.1,13.8-11.5,20.1c-3.2,4.8-7,9.1-11.3,13l0,0h-64.3C238.8,173.1,238.7,173,238.7,172.9z
		 M165.6,141.9H62.1c-5.4,0-9.8,4.3-10,9.7c-0.2,6.8-0.1,13.5,0.2,20.4c-1-0.4-2.2-0.8-3.5-1.2c-2.1-0.7-4.2-1.2-6.3-1.7
		c-2.4-0.5-4.9-0.8-7.4-0.8c-2,0-4,0.2-6,0.7c-1.5,0.4-3,0.9-4.4,1.7c-2.3,1.2-4.2,3-5.7,5.1c-1.6,2.4-2.7,5.1-3.1,8
		c-0.2,1.3-0.3,2.7-0.3,4.1c0.1,4.1,0.8,8.3,2,12.2c2.1,6.7,5,13.1,8.7,19c1.8,2.9,3.9,5.7,6.1,8.3c2.1,2.5,4.4,4.7,7,6.6
		c2.2,1.6,5.4,1.2,7-1.1c1.6-2.2,1.2-5.4-1.1-7c-2.7-2.1-5.2-4.6-7.2-7.3c-3.7-4.9-6.8-10.2-9.1-15.9c-1.1-2.6-2-5.3-2.6-8.1
		c-0.6-2.2-0.9-4.5-0.9-6.8c0-0.8,0.1-1.6,0.2-2.4c0.2-1.4,0.7-2.6,1.4-3.8c0.4-0.6,0.8-1.1,1.3-1.6c0.8-0.7,1.7-1.1,2.7-1.4
		c1.3-0.3,2.7-0.5,4-0.5c1.8,0,3.7,0.2,5.5,0.6c2.5,0.5,4.9,1.2,7.3,2.1c1,0.4,1.7,0.7,2.3,0.9l0,0l0.6,0.2l0.1,0.1
		c0.7,0.3,1.4,0.5,2.2,0.5c2.8,31.8,10.7,63.8,19.2,94.4c1.2,4.3,5.1,7.3,9.6,7.3l0,0h64c4.5,0,8.4-3,9.6-7.3
		c11.3-40.5,21.5-83.8,20.1-125.5C175.4,146.1,171,141.9,165.6,141.9z M145.8,274.3h-64c-11.9-43-21-84-19.7-122.4l0,0h103.5
		C166.9,190.3,157.8,231.4,145.8,274.3z M94.2,67c-1.5-1.2-2.1-3.2-1.6-5c0.4-1.8,1.9-3.3,3.7-3.7c1.9-0.4,3.8,0.2,5,1.7
		c3.2,3.1,6.1,6.6,8.7,10.2c1.9,2.7,3.3,5.6,4.3,8.7c0.5,1.7,0.8,3.4,0.8,5.2c0,1.5-0.2,3.1-0.7,4.6c-0.6,2-1.7,3.9-3.1,5.4
		c-1,1.1-2.2,2.2-3.3,3.2c-0.6,0.5-1.1,1-1.6,1.5c-0.6,0.6-1,1.3-1.3,2.1c-0.4,1-0.6,2.2-0.6,3.3c0.1,2.6,0.8,5.2,1.9,7.5
		c1.3,2.8,2.9,5.6,4.7,8.1c1.6,2.3,1,5.4-1.2,7c-2.3,1.6-5.4,1-7-1.2c-2.2-3.1-4.1-6.3-5.7-9.8c-1.7-3.6-2.7-7.6-2.8-11.6
		c0-2.4,0.4-4.8,1.4-7.1c0.8-2,2-3.8,3.5-5.4c1.3-1.3,2.4-2.3,3.3-3.1c0.5-0.4,1-0.9,1.4-1.4s0.7-1,0.9-1.6c0.2-0.5,0.2-1,0.2-1.6
		c0-0.8-0.1-1.6-0.4-2.4c-0.4-1.3-0.9-2.5-1.6-3.6C100.7,74,97.7,70.3,94.2,67z M122.7,67c-1.5-1.2-2.1-3.2-1.7-5
		c0.4-1.9,1.9-3.3,3.8-3.7s3.8,0.3,5,1.7c3.2,3.1,6.1,6.6,8.7,10.3c1.9,2.7,3.3,5.6,4.3,8.7c0.5,1.7,0.8,3.4,0.8,5.2
		c0,1.6-0.2,3.1-0.7,4.6c-0.6,2-1.7,3.9-3.1,5.4c-1,1.1-2.2,2.2-3.3,3.2c-0.6,0.5-1.1,1-1.6,1.5c-0.6,0.6-1,1.3-1.3,2.1
		c-0.4,1-0.6,2.2-0.6,3.3c0.1,2.6,0.8,5.2,1.9,7.5c1.3,2.8,2.9,5.6,4.8,8.1c1.6,2.3,1,5.4-1.2,7c-2.2,1.6-5.4,1-7-1.2
		c-2.2-3.1-4.1-6.3-5.7-9.8c-1.7-3.6-2.7-7.6-2.8-11.6c0-2.4,0.4-4.8,1.4-7.1c0.8-2,2-3.8,3.5-5.4c1.3-1.3,2.5-2.3,3.3-3.1
		c0.5-0.4,0.9-0.9,1.4-1.4c0.4-0.5,0.7-1,0.9-1.6c0.1-0.5,0.2-1,0.2-1.6c0-0.8-0.1-1.6-0.4-2.4c-0.4-1.3-0.9-2.5-1.6-3.6
		C129.1,74.1,126.1,70.3,122.7,67z"/>
</g>
</svg>
