<?xml version="1.0" encoding="utf-8"?>
<!-- Generator: Adobe Illustrator 23.0.3, SVG Export Plug-In . SVG Version: 6.00 Build 0)  -->
<svg version="1.1" id="body_1" xmlns="http://www.w3.org/2000/svg" xmlns:xlink="http://www.w3.org/1999/xlink" x="0px" y="0px"
	 viewBox="0 0 147 110" style="enable-background:new 0 0 147 110;" xml:space="preserve">
<style type="text/css">
	.st0{fill:#FF8726;}
	.st1{fill:#393F45;}
</style>
<g transform="matrix(0.34571967 0 0 0.34571967 -0 1.1005782)">
	<path class="st0" d="M368.6,58.7v11.2h-312V58.7c0-5.3,2.1-10.3,5.8-14c3.7-3.7,8.8-5.8,14-5.8l0,0h272.3
		C359.7,38.8,368.6,47.7,368.6,58.7z M292.7,85.7c-1.2-2.5-4.2-3.5-6.7-2.3l0,0l-24.3,11.8c-2.5,1.2-3.5,4.2-2.3,6.7
		s4.2,3.5,6.7,2.3l0,0l13-6.3c-4.8,16.4-11.4,28.9-19.3,38.6c-5.9,7.2-13.1,13.3-21.1,18c-11.7,6.9-25,10.8-39.4,13
		c-14.4,2.2-29.6,2.7-44.9,2.7c-10.7,0-21.4-0.2-32-0.2c-2.8,0-5,2.2-5,5s2.2,5,5,5c10.4,0,21.1,0.2,32,0.2
		c13.8,0,27.8-0.4,41.4-2.1c10.1-1.2,20-3.4,29.7-6.7c14.2-4.9,27.5-12.7,38.5-24.5c10.6-11.4,19.1-26.6,24.9-46.4l0,0l6.8,13.9
		c0.8,1.6,2.4,2.7,4.1,2.8c1.8,0.1,3.5-0.7,4.5-2.2c1-1.5,1.1-3.4,0.4-5L292.7,85.7z"/>
	<path class="st1" d="M366.3,41.1c-4.7-4.7-11-7.3-17.6-7.3l0,0H76.4c-6.6,0-12.9,2.6-17.6,7.3s-7.3,11-7.3,17.6l0,0V207
		c0,6.6,2.6,12.9,7.3,17.6c4.7,4.7,11,7.3,17.6,7.3l0,0h17.3c1.8,0,3.4-1,4.3-2.5c0.9-1.5,0.9-3.5,0-5c-0.9-1.5-2.5-2.5-4.3-2.5l0,0
		H76.4c-8.2,0-14.8-6.7-14.8-14.8l0,0V58.7c0-3.9,1.6-7.7,4.3-10.5c2.8-2.8,6.6-4.3,10.5-4.3l0,0h272.3c3.9,0,7.7,1.6,10.5,4.3
		c2.8,2.8,4.3,6.6,4.3,10.5l0,0V207c0,8.2-6.6,14.8-14.8,14.8l0,0h-225c-1.8,0-3.4,1-4.3,2.5s-0.9,3.5,0,5c0.9,1.5,2.5,2.5,4.3,2.5
		l0,0h81.7l-37.6,37.6c-1.3,1.3-1.8,3.1-1.4,4.9c0.5,1.7,1.8,3.1,3.6,3.6c1.7,0.5,3.6-0.1,4.9-1.4l0,0l38.3-38.3l38.3,38.3
		c1.3,1.3,3.1,1.8,4.9,1.4c1.7-0.5,3.1-1.8,3.6-3.6c0.5-1.7-0.1-3.6-1.4-4.9l0,0L221,231.8h127.8c13.7,0,24.8-11.1,24.8-24.8l0,0
		V58.7C373.6,52.1,371,45.8,366.3,41.1z"/>
</g>
</svg>
