<?xml version="1.0" encoding="utf-8"?>
<!-- Generator: Adobe Illustrator 23.0.3, SVG Export Plug-In . SVG Version: 6.00 Build 0)  -->
<svg version="1.1" id="body_1" xmlns="http://www.w3.org/2000/svg" xmlns:xlink="http://www.w3.org/1999/xlink" x="0px" y="0px"
	 viewBox="0 0 147 110" style="enable-background:new 0 0 147 110;" xml:space="preserve">
<style type="text/css">
	.st0{fill:#FF8726;}
	.st1{fill:#393F45;}
</style>
<g transform="matrix(0.34571967 0 0 0.34571967 -0 1.1005782)">
	<path class="st0" d="M194.9,248.9c0-28.5,23.1-51.7,51.7-51.7s51.7,23.1,51.7,51.7s-23.1,51.7-51.7,51.7S194.9,277.5,194.9,248.9"
		/>
	<path class="st0" d="M63.8,58.3h86.3v86.3H63.8V58.3z"/>
	<path class="st0" d="M361.4,107.3h-96.1l48-96.1L361.4,107.3L361.4,107.3"/>
	<path class="st1" d="M365.9,105l-48-96c-0.8-1.7-2.6-2.8-4.5-2.8s-3.6,1.1-4.5,2.8l0,0l-15.1,30.1c-50.9-41-125-35.1-168.7,13.6
		c-0.2,0.2-0.3,0.4-0.5,0.7l0,0H63.8c-2.8,0-5,2.2-5,5l0,0v86.4c0,2.8,2.2,5,5,5l0,0h31l0.3,3.4v0.4c7.7,50.2,45.5,90.6,95.2,101.5
		c2.4,22.1,17.5,40.8,38.7,47.8c21.2,6.9,44.4,0.8,59.5-15.6c15-16.4,19.1-40.1,10.3-60.6c32-28.7,46.8-72,38.9-114.3l0,0h23.9
		c1.7,0,3.3-0.9,4.3-2.4S366.7,106.6,365.9,105L365.9,105L365.9,105z M313.4,22.4l40,79.9h-80L313.4,22.4z M68.8,63.4h76.3v76.4
		H68.8L68.8,63.4z M246.5,295.6c-24.8,0-45.3-19.5-46.6-44.2c0.1-0.4,0.1-0.9,0-1.3c0-0.4,0-0.8,0-1.1c0-18.9,11.4-35.9,28.8-43.2
		s37.5-3.2,50.9,10.1c13.4,13.4,17.4,33.4,10.1,50.9C282.5,284.3,265.5,295.6,246.5,295.6L246.5,295.6z M329.6,134.9
		c0,31.3-13,61.3-35.9,82.6c-13.4-20.2-38.2-29.6-61.6-23.4c-23.4,6.1-40.4,26.5-42.1,50.6c-44.4-10.8-78-47.4-85-92.6l0,0l-0.2-2.4
		h45.3c2.8,0,5-2.2,5-5l0,0V58.3c0-2.8-2.2-5-5-5l0,0h-11.7c41.6-39.9,106.6-42.1,150.8-5l0,0L260.9,105c-0.8,1.5-0.7,3.4,0.2,4.9
		s2.5,2.4,4.3,2.4l0,0h62C328.9,119.7,329.6,127.3,329.6,134.9z"/>
</g>
</svg>
