<?xml version="1.0" encoding="UTF-8"?>
<!DOCTYPE svg PUBLIC "-//W3C//DTD SVG 1.1//EN" "http://www.w3.org/Graphics/SVG/1.1/DTD/svg11.dtd">
<!-- Creator: CorelDRAW 2019 (64-Bit) -->
<svg xmlns="http://www.w3.org/2000/svg" xml:space="preserve" width="3in" height="3in" version="1.1" style="shape-rendering:geometricPrecision; text-rendering:geometricPrecision; image-rendering:optimizeQuality; fill-rule:evenodd; clip-rule:evenodd"
viewBox="0 0 3000 3000"
 xmlns:xlink="http://www.w3.org/1999/xlink">
 <defs>
  <style type="text/css">
 
    .fil0 {fill:#0056ed;fill-rule:nonzero}
   
  </style>
 </defs>
 <g id="Layer_x0020_1">
  <metadata id="CorelCorpID_0Corel-Layer"/>
  <path class="fil0" d="M1499.5 3c414.2,0 789.2,167.9 1060.65,439.35 271.45,271.45 439.35,646.45 439.35,1060.65 0,414.2 -167.9,789.2 -439.35,1060.65 -271.44,271.45 -646.45,439.35 -1060.65,439.35 -414.2,0 -789.2,-167.9 -1060.65,-439.35 -271.45,-271.44 -439.35,-646.45 -439.35,-1060.65 0,-414.2 167.9,-789.2 439.35,-1060.65 271.45,-271.45 646.45,-439.35 1060.65,-439.35zm-627.82 1473.47c0,-18.41 32.27,-43.47 43.98,-55.17 56.87,-56.88 52.12,-64.59 103.86,-15.9 32.59,30.66 73.5,21.14 110.23,2.89 18.05,-8.98 29.32,-15 39.37,-31.01 27.29,-43.53 -4.61,-102.32 41.61,-102.32 107.24,0 135.09,-13.62 134.43,41.49 -0.52,43.39 11.3,72.06 49.93,90.8 111.78,54.24 125.61,-33.14 151.5,-33.14 28.94,0 32.21,11.43 64.77,43.98 32.56,32.56 43.98,35.83 43.98,64.77 0,26.16 -85.29,39.14 -34.18,149.33 42.07,90.7 133.33,21.25 133.33,80.97 0,105.32 13.72,133.52 -41.46,134.46 -32.04,0.55 -40.33,-0.17 -60.86,12.7 -29.21,18.33 -72.01,100.22 -29.68,147.96 25.82,29.12 32.84,22.71 32.84,53.52 0,6.91 -82.73,95.96 -102.36,95.96 -39.52,0 -42.02,-89.05 -160.85,-32.91 -16,7.57 -29.83,21.58 -37.38,36.19 -23.78,46.01 15.29,95.87 -51.26,95.87l-83.17 0c-73.22,0 -3.2,-88.53 -80.9,-130.21 -113.04,-60.65 -130.5,31.05 -165.39,31.05 -15.63,0 -22.61,-11.3 -31.19,-19.98 -9.25,-9.36 -16.28,-16.3 -25.59,-25.59 -17.59,-17.59 -45.57,-39.39 -45.57,-56.78 0,-27.16 51.17,-43.7 51.17,-89.56 0,-30.17 -1.16,-38.27 -19.04,-73.71 -40.88,-81 -131.28,-9.13 -131.28,-83.02l0 -83.17c0,-82.64 91.55,-2.91 132.06,-88.65 56.26,-119.07 -32.9,-121.86 -32.9,-160.84zm204.7 -108.76c-39.2,0 -34.43,-51.18 -108.75,-51.18 -38.59,0 -69,41.81 -90.36,63.17 -43,43 -103.96,92.01 -27.18,166.31 9.55,9.24 20.33,16.8 16.61,34 -13.13,60.8 -42.26,45.5 -62.06,46.93 -46.3,3.36 -86.51,33.17 -86.51,76.62l0 118.35c0,37.44 26.93,70.68 62.47,78.26 22.42,4.79 46.41,-3.24 62.91,7.46 12.94,8.39 24.95,43.83 24.95,48.62 0,26.98 -54.38,42.41 -54.38,99.16 0,44.2 39.52,73.11 63.18,96.75 24.78,24.78 54.42,63.18 96.75,63.18 56.52,0 71.67,-54.37 99.16,-54.37 6.26,0 20.89,7.27 25.76,9.42 59.96,26.41 -0.24,73.46 55.45,120.47 14.33,12.09 28.19,20.44 53.13,20.44l118.34 0c29.64,0 52.95,-21.94 64.28,-41.28 8.03,-13.7 10.15,-23.25 12.07,-42.31 2.88,-28.75 -12.75,-48.52 44.79,-64.29 36.76,-10.07 43.97,51.92 105.97,51.92 43.59,0 65.55,-31.97 96.76,-63.18 31.49,-31.49 63.17,-48.38 63.17,-103.15 0,-69.36 -74.82,-47.93 -42.61,-122.57 18.44,-42.73 50.03,-14.46 86.22,-28.93 67.1,-26.82 55.55,-94.31 55.55,-168.36 0,-23.17 -4.19,-48.39 -14.05,-62.71 -9.42,-13.7 -25.83,-28.53 -42.99,-33.78 -55.6,-17 -68.51,12.34 -85.18,-29.98 -30.16,-76.55 43.06,-40.59 43.06,-132.62 0,-36.9 -41.15,-71.54 -61.57,-91.96 -27.65,-27.65 -53.73,-61.57 -98.35,-61.57 -80.37,0 -53.05,76.03 -128.42,42.06 -53.32,-24.03 9.33,-78.37 -61.56,-127.17 -27.8,-19.13 -97.59,-14.05 -136.28,-14.05 -120.72,0 -94.42,102.41 -101.68,122.22 -6.67,18.2 -41.1,28.11 -48.67,28.11zm278.29 -470.19c-32.68,0 -45.82,-40.69 -95.89,-76.84 -18.21,-13.15 -30.76,-12.72 -54.44,-12.72 -37.09,0 -79.82,52.63 -109.55,82.36 -42.31,42.3 -79.17,66.13 -79.17,115.95 0,47.16 49.32,82.91 88.76,122.35 14.13,14.13 23.74,31.19 45.58,31.19 21.7,0 25.59,-15.33 25.59,-31.99 0,-20.96 -102.36,-98.86 -102.36,-115.14 0,-31.39 21.94,-42.73 56.78,-77.57 84.48,-84.48 74.11,-93.82 137.54,-30.39 33.15,33.14 39.61,50.37 90.36,50.37 19.95,0 55.51,-20.1 74.93,-27.44 74.51,-28.14 78.61,-47.29 78.61,-129.3 -0.01,-84.22 -16.39,-70.37 179.12,-70.37 71.3,0 9.29,95.04 49.76,158.15 14.85,23.17 34.74,30.87 61.82,40.53 53.22,18.97 90.12,54.54 149.95,-1.12 16.06,-14.95 30.89,-30.61 46.29,-46.47 33.38,-34.37 44.48,-8.3 102.4,49.62 15.7,15.7 28.97,29.19 44.79,44.77 40.02,39.41 20,40.11 -40.06,102.3 -58.31,60.38 -21.17,98.91 -3.52,149.19 9.97,28.43 17.74,49.08 41.34,64.2 62.86,40.31 158.16,-21.54 158.16,49.76l0 143.94c0,15.06 -6.09,29.29 -17.52,33.66 -22.49,8.58 -103.31,-10.4 -141.15,15.57 -22.42,15.39 -30.25,35.31 -40.12,62.24 -13.87,37.85 -28.31,48.13 -28.31,90.04 0,66.98 120.5,101.64 83.81,150.95l-94.21 94.55c-20.09,20.11 -18.9,26.39 -47.18,26.39 -16.28,0 -94.18,-102.36 -115.15,-102.36 -38.09,0 -41.71,28.36 -23.26,48.84 13.51,15.01 28.72,28.59 43.25,43.12 32.11,32.11 53.33,67.97 107.95,67.97 40.83,0 78.26,-47.87 109.55,-79.16 46.88,-46.89 82.36,-68.76 82.36,-122.35 0,-36.93 -20.21,-50.6 -39.19,-69.57 -73.53,-73.53 -54.19,-48.19 -22.86,-139.61 20.35,-59.41 98.78,-3.73 158.01,-40.3 16.81,-10.38 38.38,-36.99 38.38,-63.98l0 -172.72c0,-30.54 -16.1,-51.83 -34.62,-64.54 -42.04,-28.82 -87.86,-9.36 -134.71,-15.63 -16.95,-2.27 -20.54,-11.44 -25.9,-25.28 -37.84,-97.54 -46.08,-73.87 20.11,-140.06 30.67,-30.67 40.78,-35.41 40.78,-83.96 0,-39.45 -57.55,-84.75 -80.76,-107.96 -44.72,-44.71 -63.76,-80.76 -123.95,-80.76 -61.04,0 -85.89,89.56 -134.34,89.56l-71.38 -27.78c-14.63,-5.53 -24.12,-8.97 -27.15,-24.02 -7.62,-37.76 13.07,-92.89 -14.75,-135.58 -12.85,-19.72 -34.65,-36.53 -65.84,-36.53l-172.72 0c-26.18,0 -51.35,19.83 -62.72,36.44 -37.62,54.94 15.98,139.65 -39.14,159.17l-74.06 28.3zm-281.48 870.02c0,-178.56 214.94,-252.15 327.17,-135.25 70.37,73.3 72.96,190.93 -1.71,265.6 -127.6,127.6 -325.46,25.93 -325.46,-130.35zm-54.37 -22.39l0 38.39c0,61.33 39.53,124.33 71.16,155.94 92.16,92.17 235.76,94.27 335.58,14.1 34.02,-27.32 45.74,-41.33 63.96,-86.37 41.67,-103.03 21.06,-190.21 -46.2,-271.47l-32.44 -28.35c-6.27,-4.36 -11.87,-7.01 -17.82,-10.96 -87,-57.81 -221.14,-46.94 -293.51,26.37 -40.97,41.52 -80.74,95.73 -80.74,162.35zm342.25 -569.35c0,31.04 26.39,39.06 47.09,21.53 49.94,-42.25 88.31,-70.81 163.01,-83.3 46.89,-7.83 100.09,-2.93 141.35,10.98 45.29,15.27 72.26,32.39 106.43,59.91 41.68,33.57 79.7,100.56 92.37,153.93 20.52,86.5 -0.69,190.45 -55.41,255.04 -3.79,4.48 -5.49,5.63 -9.09,10.09 -12.45,15.38 -25.15,25.2 -25.15,38.83 0,21.8 31.48,40.28 53.55,15.17 5.04,-5.73 4.07,-6.37 9.68,-12.72 5.03,-5.67 7.14,-6.84 12.24,-13.35 100.19,-127.9 102.67,-294.01 9.64,-429.24l-70.39 -73.56c-64.26,-48.19 -132.7,-70.76 -213.11,-74.98 -18.37,-0.96 -69.83,6.33 -85.7,10.29 -25.12,6.27 -49.43,14.18 -70.95,25.01 -51.93,26.12 -49.37,29.16 -85.9,58.05 -9.65,7.63 -19.64,11.64 -19.64,28.33zm946.24 1184.96l-33.29 -57.91c-187.68,178.83 -432.02,285.84 -691.34,302.2 -23.43,1.47 -46.89,2.44 -70.37,2.44 -522.5,0 -976.19,-368.8 -1081.52,-880.79l-36.62 -227.61 161.76 0 -193.51 -335.17 -193.49 335.17 162.33 0 22.21 164.01c78.96,582.97 571.24,1009.76 1158.84,1009.76 71.05,0 142.09,-6.72 211.97,-19.53 217.02,-39.8 421,-143.05 583.03,-292.56zm522.78 -801.88l-131.89 0 -21.78 -171.08c-58.32,-598.6 -563.09,-1054.64 -1164.11,-1054.64 -84.89,0 -169.78,9.43 -252.67,27.7 -216.58,47.74 -417.87,159.09 -574.7,315.71l33.62 58.46c178.05,-184.09 414.22,-300.65 669.36,-329.28 41.3,-4.63 82.83,-7.17 124.39,-7.17 545.22,0 1013.15,403.81 1092.44,943.31l31.89 216.99 -193.68 0 193.59 335.28 193.53 -335.28zm-320.85 -1065.61c-258.4,-258.4 -615.4,-418.24 -1009.73,-418.24 -394.33,0 -751.32,159.83 -1009.73,418.24 -258.41,258.41 -418.24,615.4 -418.24,1009.73 0,394.33 159.83,751.33 418.24,1009.73 258.4,258.41 615.4,418.24 1009.73,418.24 394.33,0 751.32,-159.83 1009.73,-418.24 258.41,-258.41 418.24,-615.4 418.24,-1009.73 0,-394.33 -159.83,-751.33 -418.24,-1009.73z"/>
 </g>
</svg>
