<?xml version="1.0" encoding="UTF-8"?>
<!DOCTYPE svg PUBLIC "-//W3C//DTD SVG 1.1//EN" "http://www.w3.org/Graphics/SVG/1.1/DTD/svg11.dtd">
<!-- Creator: CorelDRAW 2019 (64-Bit) -->
<svg xmlns="http://www.w3.org/2000/svg" xml:space="preserve" width="2.164in" height="2.169in" version="1.1" style="shape-rendering:geometricPrecision; text-rendering:geometricPrecision; image-rendering:optimizeQuality; fill-rule:evenodd; clip-rule:evenodd"
viewBox="0 0 2164 2169"
 xmlns:xlink="http://www.w3.org/1999/xlink">
 <defs>
  <style type="text/css">
   
    .fil0 {fill:#0056ed}
   
  </style>
 </defs>
 <g id="Layer_x0020_1">
  <metadata id="CorelCorpID_0Corel-Layer"/>
  <g id="_1965882296016">
   <path class="fil0" d="M1574.89 865.81c17.34,0 33.82,-15.32 33.82,-32.91l0 -626.09c0,-101.3 -103.27,-204.57 -204.57,-204.57l-1199.65 0c-101.3,0 -204.57,103.27 -204.57,204.57l0 1760.06c0,101.3 103.27,204.57 204.57,204.57l818.74 0c23.51,0 51.74,-67.78 -21.77,-67.76l-735.67 0.12c-50.74,0.01 -102.61,0.08 -142.09,-37.08 -42.04,-39.58 -56.14,-72.69 -56.14,-130.5l0 -465.3 863.72 0c31.17,0 31.17,-67.65 0,-67.65l-863.72 0 0 -632.87 1473.5 0 0 36.23c0,5.77 0.17,11.54 0.64,17.29 1.96,23.7 5.62,41.89 33.19,41.89zm-1497.44 -162.41l0 -478.25c0,-88.05 71.91,-159.96 159.96,-159.96l1133.78 0c88.04,0 159.96,71.93 159.96,159.96l0 478.25 -1453.71 0z"/>
   <path class="fil0" d="M2164.09 1592.22l0 -49.24c-5.99,-149.35 -67.16,-286.29 -172.75,-391.89 -97.94,-97.94 -251.47,-172.74 -391.43,-172.74 -163.7,0 -237.8,20.9 -374.03,112.12l-63.89 42.78 0 -76.89c0,-19.98 2.28,-44.02 -8.98,-61.57 -19.66,-30.65 -72.63,-18.43 -72.63,21.88l0 233.16c0,13.34 12.53,43.29 28.4,43.29l253 0c28.18,0 40.57,-51.11 12.73,-70.26 -3.65,-2.51 -7.76,-5.06 -12.16,-5.99 -12.33,-2.62 -32.17,-0.4 -45.22,-0.4l-80.96 0 47.85 -65.31c23.62,-32.23 91.76,-58.7 129.62,-70.24 24.29,-7.41 48.33,-13.92 73.47,-17.83 232.65,-36.16 449.61,77.88 549.5,291.47 93.24,199.35 54.59,427.07 -101.27,582.93 -157.75,157.76 -404.79,196.73 -602.65,92.9 -126.66,-66.46 -233.2,-194.64 -263.74,-335.61 -9.26,-42.75 -12.63,-85.59 -16.08,-129.07 -3.81,-47.96 -76.69,-35.64 -76.69,-3.34 0,166.91 54,312.37 172.74,431.12 97.94,97.94 251.47,172.74 391.43,172.74 49.15,0 99.16,-0.83 147.6,-9.92 48.36,-9.06 93.49,-26.3 138.33,-46.16 113.46,-50.25 231.45,-168.24 281.7,-281.7 33.07,-74.67 52.77,-154.84 56.07,-236.24z"/>
   <path class="fil0" d="M260.35 355.09c0,20.12 6.97,38.29 24.02,49.89 14.53,9.9 33.79,12.98 50.76,8.56 29.88,-7.78 41.03,-34.04 41.03,-62.83 0,-69.37 -115.81,-64.69 -115.81,4.38z"/>
   <path class="fil0" d="M568.68 355.09c0,20.12 6.97,38.29 24.02,49.89 14.53,9.9 33.79,12.98 50.76,8.56 29.88,-7.78 41.03,-34.04 41.03,-62.83 0,-69.37 -115.81,-64.69 -115.81,4.38z"/>
   <path class="fil0" d="M877.02 355.09c0,20.12 6.97,38.29 24.02,49.89 14.53,9.9 33.79,12.98 50.76,8.56 29.88,-7.78 41.03,-34.04 41.03,-62.83 0,-69.37 -115.81,-64.69 -115.81,4.38z"/>
   <path class="fil0" d="M1185.35 355.09c0,20.12 6.97,38.29 24.02,49.89 14.53,9.9 33.79,12.98 50.76,8.56 29.88,-7.78 41.03,-34.04 41.03,-62.83 0,-69.37 -115.81,-64.69 -115.81,4.38z"/>
  </g>
 </g>
</svg>
