<?xml version="1.0" encoding="UTF-8"?>
<!DOCTYPE svg PUBLIC "-//W3C//DTD SVG 1.1//EN" "http://www.w3.org/Graphics/SVG/1.1/DTD/svg11.dtd">
<!-- Creator: CorelDRAW 2019 (64-Bit) -->
<svg xmlns="http://www.w3.org/2000/svg" xml:space="preserve" width="3in" height="2.402in" version="1.1" style="shape-rendering:geometricPrecision; text-rendering:geometricPrecision; image-rendering:optimizeQuality; fill-rule:evenodd; clip-rule:evenodd"
viewBox="0 0 3000 2402"
 xmlns:xlink="http://www.w3.org/1999/xlink">
 <defs>
  <style type="text/css">

    .fil0 {fill:#0056ed}
    .fil1 {fill:#0056ed;fill-rule:nonzero}
   
  </style>
 </defs>
 <g id="Layer_x0020_1">
  <metadata id="CorelCorpID_0Corel-Layer"/>
  <g id="_1963725102192">
   <path class="fil0" d="M2521.15 1064.25l0 304.62c0,41.39 -33.59,75.05 -74.89,75.05l-384.57 0c-11.34,0 -20.57,-9.23 -20.57,-20.6 0,-11.38 9.21,-20.62 20.57,-20.62l384.57 0c18.61,0 33.75,-15.19 33.75,-33.83l0 -389.48c0,-18.65 -15.14,-33.84 -33.75,-33.84l-499.51 0c-18.61,0 -33.76,15.19 -33.76,33.84l0 389.48c0,18.65 15.15,33.83 33.76,33.83l51.1 0c11.36,0 20.56,9.24 20.56,20.62 0,11.37 -9.21,20.6 -20.56,20.6l-51.1 0c-41.3,0 -74.88,-33.67 -74.88,-75.05l0 -389.48c0,-41.39 33.59,-75.05 74.88,-75.05l499.51 0c41.3,0 74.89,33.66 74.89,75.05l0 43.65 71.27 0c41.29,0 74.88,33.66 74.88,75.04l0 389.49c0,41.38 -33.59,75.05 -74.88,75.05l-520.22 0c-11.36,0 -20.57,-9.23 -20.57,-20.61 0,-11.39 9.21,-20.6 20.57,-20.6l520.22 0c18.61,0 33.76,-15.19 33.76,-33.83l0 -389.49c0,-18.65 -15.14,-33.84 -33.76,-33.84l-71.27 0z"/>
   <path class="fil1" d="M597.39 633.29c3.61,0 7.23,0.84 10.57,2.55 12.67,6.54 25.83,12 39.08,16.27 9.58,3.06 16.07,12.02 16.07,22.1l0 71.93c0,8.51 6.92,15.43 15.41,15.43l96.37 0c8.47,0 15.39,-6.93 15.39,-15.43l0 -71.93c0,-10.08 6.51,-19.04 16.08,-22.1 13.26,-4.27 26.4,-9.73 39.07,-16.27 8.97,-4.6 19.83,-2.88 26.93,4.26l50.81 50.88c5.81,5.85 15.98,5.85 21.76,0l68.15 -68.3c2.9,-2.91 4.5,-6.79 4.5,-10.91 0,-4.11 -1.59,-8 -4.5,-10.93l-50.76 -50.87c-7.15,-7.12 -8.84,-18.04 -4.22,-27.02 6.5,-12.7 11.95,-25.86 16.24,-39.15 3.05,-9.6 11.96,-16.12 22.03,-16.12l71.77 0c8.48,0 15.38,-6.92 15.38,-15.43l0 -96.6c0,-8.49 -6.89,-15.41 -15.38,-15.41l-71.77 0c-10.06,0 -18.98,-6.51 -22.03,-16.11 -4.29,-13.28 -9.74,-26.45 -16.24,-39.17 -4.61,-8.95 -2.92,-19.88 4.22,-27l50.76 -50.9c2.9,-2.93 4.5,-6.79 4.5,-10.91 0,-4.13 -1.59,-8 -4.5,-10.9l-68.15 -68.32c-5.78,-5.79 -15.94,-5.81 -21.76,0l-50.81 50.9c-7.11,7.16 -17.96,8.84 -26.93,4.24 -12.69,-6.54 -25.81,-12 -39.09,-16.29 -9.56,-3.07 -16.06,-11.99 -16.06,-22.08l0 -71.91c0,-8.5 -6.92,-15.43 -15.39,-15.43l-96.37 0c-8.49,0 -15.41,6.92 -15.41,15.43l0 71.91c0,10.09 -6.5,19.01 -16.05,22.08 -13.29,4.29 -26.44,9.75 -39.09,16.29 -8.95,4.58 -19.85,2.91 -26.96,-4.24l-50.78 -50.9c-5.82,-5.81 -15.96,-5.79 -21.76,0l-68.17 68.3c-2.91,2.93 -4.5,6.79 -4.5,10.93 0,4.11 1.59,7.98 4.5,10.91l50.8 50.9c7.11,7.12 8.8,18.04 4.21,27 -6.5,12.7 -11.97,25.89 -16.24,39.19 -3.07,9.58 -11.98,16.09 -22.03,16.09l-71.77 0c-8.48,0 -15.4,6.93 -15.4,15.41l0 96.6c0,8.51 6.91,15.43 15.4,15.43l71.77 0c10.05,0 18.96,6.52 22.03,16.09 4.27,13.31 9.74,26.5 16.24,39.17 4.59,8.98 2.9,19.9 -4.21,27.02l-50.8 50.87c-6,6.03 -6,15.83 0.02,21.83l68.15 68.3c5.8,5.85 15.94,5.85 21.76,0l50.78 -50.88c4.46,-4.46 10.38,-6.81 16.37,-6.81zm129.31 -382.47c-84.27,0 -152.8,68.69 -152.8,153.15 0,84.43 68.53,153.12 152.8,153.12 84.27,0 152.82,-68.69 152.82,-153.12 0,-84.47 -68.56,-153.15 -152.82,-153.15zm0 352.68c-109.8,0 -199.11,-89.52 -199.11,-199.53 0,-110.07 89.3,-199.56 199.11,-199.56 109.8,0 199.13,89.5 199.13,199.56 0,110 -89.33,199.53 -199.13,199.53zm48.2 204.48l-96.37 0c-34.03,0 -61.7,-27.73 -61.7,-61.84l0 -55.54c-4.93,-1.89 -9.81,-3.92 -14.64,-6.09l-39.2 39.29c-24.08,24.09 -63.22,24.05 -87.24,0l-68.17 -68.3c-24.04,-24.15 -24.04,-63.36 0,-87.46l39.2 -39.29c-2.19,-4.85 -4.2,-9.75 -6.09,-14.67l-55.41 0c-34.02,0 -61.7,-27.74 -61.7,-61.84l0 -96.6c0,-34.11 27.68,-61.83 61.7,-61.83l55.41 0c1.89,-4.93 3.91,-9.83 6.09,-14.67l-39.2 -39.29c-24.06,-24.11 -24.06,-63.34 0,-87.46l68.17 -68.29c24.04,-24.11 63.19,-24.13 87.24,0l39.18 39.27c4.85,-2.17 9.74,-4.19 14.66,-6.09l0 -55.52c0,-34.12 27.68,-61.84 61.7,-61.84l96.37 0c34.03,0 61.7,27.72 61.7,61.84l0 55.52c4.93,1.9 9.79,3.93 14.64,6.09l39.18 -39.27c24.07,-24.13 63.18,-24.11 87.28,0l68.13 68.29c11.66,11.69 18.07,27.22 18.07,43.74 0,16.5 -6.41,32.03 -18.07,43.72l-39.18 39.27c2.16,4.86 4.18,9.75 6.07,14.69l55.42 0c34.02,0 61.7,27.72 61.7,61.83l0 96.6c0,34.1 -27.68,61.84 -61.7,61.84l-55.42 0c-1.89,4.91 -3.91,9.81 -6.07,14.67l39.18 39.29c11.66,11.67 18.07,27.18 18.07,43.72 0,16.53 -6.41,32.04 -18.04,43.74l-68.15 68.3c-24.1,24.07 -63.2,24.09 -87.28,0l-39.18 -39.29c-4.85,2.17 -9.72,4.19 -14.64,6.09l0 55.54c0,34.11 -27.68,61.84 -61.7,61.84z"/>
   <path class="fil0" d="M2153.01 861.63c0,13.07 10.54,23.64 23.58,23.64 13.04,0 23.6,-10.57 23.6,-23.64l0 -194.11c0,-10.49 -6.91,-19.6 -16.86,-22.65l-0.56 -0.17c-2.11,-0.59 -4.29,-0.9 -6.48,-0.9l-706.09 0c-13.04,0 -23.58,10.59 -23.58,23.65 0,13.06 10.55,23.63 23.58,23.63l682.82 0 0 170.55z"/>
   <path class="fil0" d="M278.62 222.59c0,-14.16 -11.44,-25.65 -25.57,-25.65l-166.74 0c-47.6,0 -86.31,38.83 -86.31,86.53l0 805.02c0,47.7 38.7,86.54 86.31,86.54l457.31 0 0 67.42 -33.01 0c-14.13,0 -25.59,11.48 -25.59,25.64l0 69.49 -50.72 0c-9.56,0 -18.31,5.33 -22.71,13.83l-56.63 109.42 -329.4 0c-14.13,0 -25.57,11.49 -25.57,25.65 0,14.16 11.44,25.62 25.57,25.62l1412.2 0c14.13,0 25.59,-11.45 25.59,-25.62 0,-14.17 -11.45,-25.65 -25.59,-25.65l-329.39 0 -56.64 -109.42c-4.4,-8.5 -13.13,-13.83 -22.68,-13.83l-50.75 0 0 -69.49c0,-14.16 -11.43,-25.64 -25.57,-25.64l-33 0 0 -67.42 457.31 0c47.59,0 86.31,-38.85 86.31,-86.54l0 -805.02c0,-47.69 -38.73,-86.53 -86.31,-86.53l-166.77 0c-14.11,0 -25.59,11.5 -25.59,25.65 0,14.15 11.47,25.65 25.59,25.65l166.77 0c19.39,0 35.16,15.8 35.16,35.23l0 724.64 -1361.04 0 0 -724.64c0,-19.43 15.78,-35.23 35.16,-35.23l166.74 0c14.13,0 25.57,-11.49 25.57,-25.65zm508.98 1071.13c14.1,0 25.56,-11.49 25.56,-25.62 0,-14.15 -11.44,-25.64 -25.56,-25.64l-192.83 0 0 -67.42 273.8 0 0 93.06c0,14.16 11.46,25.62 25.58,25.62l32.99 0 0 43.87 -390.95 0 0 -43.87 251.41 0zm-337.76 95.11l563.64 0 37.28 72.01 -638.16 0 37.25 -72.01zm-398.69 -329.46l1361.04 0 0 29.12c0,19.43 -15.76,35.28 -35.16,35.28l-1290.73 0c-19.4,0 -35.16,-15.85 -35.16,-35.28l0 -29.12z"/>
   <path class="fil0" d="M1815.27 1112.55c0,-14.16 -11.44,-25.65 -25.57,-25.65l-166.74 0c-47.6,0 -86.31,38.83 -86.31,86.53l0 805.02c0,47.7 38.7,86.54 86.31,86.54l457.31 0 0 67.42 -33 0c-14.13,0 -25.59,11.48 -25.59,25.64l0 69.49 -50.73 0c-9.56,0 -18.3,5.33 -22.71,13.83l-56.62 109.42 -329.4 0c-14.13,0 -25.57,11.49 -25.57,25.65 0,14.16 11.44,25.62 25.57,25.62l1412.2 0c14.13,0 25.59,-11.45 25.59,-25.62 0,-14.17 -11.45,-25.65 -25.59,-25.65l-329.38 0 -56.65 -109.42c-4.4,-8.5 -13.13,-13.83 -22.68,-13.83l-50.75 0 0 -69.49c0,-14.16 -11.44,-25.64 -25.57,-25.64l-33.01 0 0 -67.42 457.31 0c47.6,0 86.31,-38.85 86.31,-86.54l0 -805.02c0,-47.69 -38.72,-86.53 -86.31,-86.53l-166.76 0c-14.11,0 -25.59,11.5 -25.59,25.65 0,14.15 11.48,25.65 25.59,25.65l166.76 0c19.39,0 35.16,15.8 35.16,35.23l0 724.64 -1361.04 0 0 -724.64c0,-19.43 15.77,-35.23 35.15,-35.23l166.74 0c14.13,0 25.57,-11.49 25.57,-25.65zm508.98 1071.13c14.11,0 25.56,-11.49 25.56,-25.62 0,-14.15 -11.44,-25.64 -25.56,-25.64l-192.83 0 0 -67.42 273.8 0 0 93.06c0,14.16 11.46,25.62 25.59,25.62l32.99 0 0 43.87 -390.95 0 0 -43.87 251.41 0zm-337.76 95.11l563.64 0 37.27 72.01 -638.16 0 37.25 -72.01zm-398.69 -329.46l1361.04 0 0 29.12c0,19.43 -15.76,35.28 -35.16,35.28l-1290.73 0c-19.4,0 -35.15,-15.85 -35.15,-35.28l0 -29.12z"/>
  </g>
 </g>
</svg>
