<?xml version="1.0" encoding="UTF-8"?>
<!DOCTYPE svg PUBLIC "-//W3C//DTD SVG 1.1//EN" "http://www.w3.org/Graphics/SVG/1.1/DTD/svg11.dtd">
<!-- Creator: CorelDRAW 2019 (64-Bit) -->
<svg xmlns="http://www.w3.org/2000/svg" xml:space="preserve" width="3in" height="3in" version="1.1" style="shape-rendering:geometricPrecision; text-rendering:geometricPrecision; image-rendering:optimizeQuality; fill-rule:evenodd; clip-rule:evenodd"
viewBox="0 0 3000 3000"
 xmlns:xlink="http://www.w3.org/1999/xlink">
 <defs>
  <style type="text/css">
  
    .fil0 {fill:#0056ed}
   
  </style>
 </defs>
 <g id="Layer_x0020_1">
  <metadata id="CorelCorpID_0Corel-Layer"/>
  <path class="fil0" d="M3000 67.35l0 -67.35 -488.74 0c-32.38,0 -108.49,92.69 -131.6,116.57 -26.93,27.82 -25.35,34.76 -69.78,35.63 -38.98,0.78 -135.85,-10.06 -167.85,2.27 -30.8,11.86 -18.46,109.84 -18.37,138.28 0.07,24.35 3,68.5 -9.93,89.88 -8.85,14.63 -34.26,34.03 -47.17,46.94 -29.46,29.45 -59.19,58.61 -88.34,88.37 -56.43,57.63 -83.9,38.28 -155.89,38.23 -19.43,-0.01 -76.2,-5.19 -91.45,6.15 -10.72,7.97 -11.95,28.07 -12.14,40.03 -0.56,34.5 0.68,67.95 2.54,102.33 0.99,18.52 2.43,38.98 -3.09,56.92 -5.47,17.75 -17.3,32.11 -29.67,45.56 -21.41,23.29 -45.13,45.58 -67.54,67.99 -28.22,28.22 -64.11,81.14 -106.35,85.63 -27.84,2.96 -60.62,0.52 -88.77,-0.56 -22.59,-0.87 -68.49,-3.79 -89.54,2.18 -4.5,1.28 -8.43,3.37 -11.64,6.81 -18.65,19.94 -10.06,92.93 -10.04,119.95 0.02,29.37 2.1,70.62 -10.14,97.76 -9.04,20.04 -26.36,36.41 -42.15,51.25 -30.33,28.52 -60.63,56.23 -90.13,85.73 -19.78,19.78 -39.03,40.49 -59.14,59.85 -12.2,11.74 -25.15,23.11 -41.2,29.19 -18.22,6.91 -39.14,6.28 -58.32,5.64 -36.04,-1.2 -71.53,-2.82 -107.67,-2.82l-17.27 0 0.39 -17.27c3.14,-140.85 117.2,-297.57 222.48,-384.14 10.26,-8.44 29.53,-19.85 40.66,-30.2 -8.15,-19.09 -25.42,-36.82 -35.71,-58.68 -61.21,21.47 -174,157.2 -202.11,204.23 -83,138.89 -105.32,239.88 -105.32,401.9 0,191.59 97.67,374.83 242.35,497.22 95.48,80.77 214.06,137.36 338.24,155.04 49.17,7 105.15,7.59 154.88,8.69 75.86,1.67 151.84,1.75 227.72,1.48 124.15,-0.44 248.39,-3.04 372.49,-3.04l31.64 0 -17.61 26.28c-17.07,25.49 -99.76,83.41 -128.61,102.19 -101.13,65.82 -205.3,106.76 -322.67,133.8 -254.05,58.53 -517.46,7.33 -735.18,-134.59 -272.66,-177.74 -443.96,-475.87 -449.7,-801.79l-67.35 0c0.79,46.17 4.82,91.21 11.87,137.1 4.87,31.67 12.56,66.58 13.27,98.44l0.39 17.27 -413.38 0 0 -539.41 421.39 0c38,0 52.67,-70.74 64.88,-99.03 13.65,-31.61 29.25,-64.81 40.3,-97.33 4.7,-13.83 10.07,-31.83 6.32,-46.47 -4.4,-17.2 -23.44,-35.28 -35.81,-47.15 -32.79,-31.49 -66.43,-61.32 -98.7,-93.59 -24.55,-24.55 -50.26,-48.2 -75.2,-72.41 -25.13,-24.39 -60.88,-57.78 -80.16,-86.57l-7.68 -11.47 372 -375.31 11.62 7.94c19.33,13.21 44.49,40.69 61.14,57.67 31.55,32.19 62.64,64.82 94.07,97.12 20.26,20.83 131.27,135.52 152.85,140.89 36.28,0 98.41,-33.93 132.38,-48.96 28.33,-12.53 103.55,-28.49 103.55,-66.88l0 -421.39 539.41 0 0 303.37 67.35 0 0 -337.05c0,-21.24 -12.45,-33.67 -33.68,-33.67l-606.75 0c-6.39,0 -12.57,1.26 -17.7,5.25 -23.54,18.33 -19.56,90.18 -18.47,116.82 0.96,23.16 2.49,46.43 2.49,69.61 0,88.49 0,176.97 0,265.46l0 15.54 -15.49 1.29c-21.93,1.82 -54.56,18.1 -74.89,27.2 -19.71,8.82 -40.67,18.07 -61.72,22.98l-11.37 2.65 -6.5 -9.7c-13.47,-20.13 -31.89,-39.95 -48.57,-57.49 -22.83,-23.99 -46.68,-47.13 -70.64,-69.98 -37.92,-36.17 -77.11,-71.56 -114.13,-108.58 -14.36,-14.36 -59.2,-64.58 -80.04,-66.07 -20.11,-1.43 -54.68,33.99 -67.5,46.61 -23.59,23.22 -46.41,47.44 -69.34,71.33 -34.26,35.69 -68.71,71.15 -103.69,106.13 -38.77,38.76 -79.04,76.37 -117.98,115.13 -17.36,17.28 -94.58,92.78 -106.12,114.07 1.69,36.47 39.15,64.42 62.94,88.2 37.55,37.55 73.51,77.2 110.24,115.62 23.35,24.43 46.99,48.77 71.46,72.09 17.46,16.65 37.45,35.37 57.5,48.8l9.7 6.49 -2.65 11.38c-4.91,21.06 -14.15,42.01 -22.98,61.72 -9.1,20.33 -25.38,52.96 -27.2,74.89l-1.29 15.5 -407.74 -0.18c-14.41,-0.13 -46.2,-0.9 -57.56,9.56 -6.36,5.85 -7.39,16.2 -7.39,24.29l0 606.75c0,6.39 1.26,12.57 5.25,17.7 18.33,23.54 90.18,19.56 116.82,18.47 23.16,-0.96 46.43,-2.49 69.61,-2.49 88.49,0 176.97,0 265.46,0l15.54 0 1.29 15.49c1.82,21.93 18.1,54.56 27.2,74.89 8.82,19.71 18.07,40.67 22.98,61.72l2.65 11.37 -9.7 6.5c-20.13,13.47 -39.95,31.89 -57.49,48.57 -23.98,22.82 -47.13,46.68 -69.97,70.63 -36.17,37.93 -71.56,77.11 -108.59,114.14 -12.46,12.46 -67.24,61.78 -67.86,79.64 -0.59,16.76 38.08,53.15 48.9,63.96l350.78 350.78c11.91,11.92 48.15,51.09 66.17,51.48 14.55,0.31 37,-21.73 46.54,-30.91 37.44,-36.04 73,-75.32 109.89,-112.21 25.7,-25.7 52.61,-50.46 78.71,-75.79 23.94,-23.23 60.48,-57.08 78.79,-84.41l6.5 -9.7 11.36 2.65c21.06,4.9 42.03,14.15 61.73,22.98 20.33,9.1 52.96,25.38 74.89,27.2l15.5 1.29 -0.18 407.74c-0.13,14.41 -0.9,46.2 9.56,57.56 5.85,6.36 16.2,7.39 24.29,7.39l606.75 0c6.39,0 12.57,-1.26 17.7,-5.25 23.54,-18.33 19.56,-90.18 18.47,-116.82 -0.96,-23.16 -2.49,-46.43 -2.49,-69.61 0,-88.49 0,-176.97 0,-265.46l0 -15.54 15.49 -1.29c21.93,-1.82 54.56,-18.1 74.89,-27.2 19.7,-8.82 40.67,-18.07 61.73,-22.98l11.36 -2.65 6.5 9.7c13.47,20.12 31.89,39.95 48.57,57.49 22.83,23.98 46.68,47.13 70.64,69.97 37.92,36.17 77.11,71.56 114.13,108.58 14.36,14.36 59.2,64.58 80.04,66.07 20.11,1.43 54.68,-33.99 67.5,-46.61 23.59,-23.22 46.41,-47.44 69.34,-71.33 34.26,-35.69 68.71,-71.15 103.69,-106.13 38.77,-38.76 79.04,-76.37 117.98,-115.13 17.36,-17.28 94.54,-92.74 106.11,-114.06 -2.3,-42.9 -62.06,-79.37 -85.56,-114.47l-17.6 -26.28 31.63 0c58.99,0 117.98,-0.02 176.98,0 3.28,0 6.57,0.04 9.86,0.09 21.06,0.37 75.31,5.35 91.56,-9.23 6.76,-6.07 8.09,-15.94 8.09,-24.54l0 -1719.15c0,-21.23 -12.44,-33.67 -33.67,-33.67l-404.5 0c-21.23,0 -33.68,12.44 -33.68,33.67l0 370.83 -370.83 0c-21.24,0 -33.67,12.45 -33.67,33.68l0 269.7 -370.83 0c-21.23,0 -33.67,12.44 -33.67,33.67l0 320.27 -370.83 0c-21.23,0 -33.68,12.44 -33.68,33.67l0 219.14 -370.82 0c-40.51,0 -52.82,-86.25 -57.41,-115.35 -5.05,-32.1 -10.05,-71.24 -10.05,-103.79l0 -16.89 16.89 0c51.25,0 103.04,1.89 154.18,0.97 22.23,-0.41 48.72,-1.26 69.2,-10.85 19.96,-9.34 38.3,-28.76 53.29,-44.5 33.95,-35.69 66.77,-71.67 101.67,-106.58 21.9,-21.89 71.81,-82.2 99.04,-89.72 25.52,-7.05 72.98,-3.69 100.08,-2.6 25.6,1.03 58.46,3.54 83.62,0.24 6.57,-0.86 12.56,-3.04 17.43,-7.65 19.96,-18.9 16,-75.36 14.46,-100.4 -1.85,-30.2 -6.57,-69.07 -1.27,-98.59 6.4,-35.66 103.4,-118.01 132.22,-146.86 13.34,-13.36 34.44,-38.81 51.39,-46.35 11.33,-5.05 23.78,-5.37 35.98,-5.33 20.67,0.08 41.33,0.9 62.06,0.91 25.14,0.01 93.26,7.62 112.35,-8.58 5.16,-4.38 7.65,-10.42 8.94,-16.93 5.09,-25.61 2.49,-61.65 1.28,-87.92 -1.3,-27.94 -3.47,-58.8 -0.52,-86.55 3.65,-34.48 20.13,-41.12 41.46,-62.19 31.07,-30.7 60.22,-62.07 89.92,-94 13.87,-14.91 29.76,-32.52 48.92,-40.44 18.5,-7.65 41.38,-6.85 61.08,-6.56 41.26,0.59 81.59,0.75 122.89,-0.96 10.7,-0.44 21.35,-3 28.91,-11.06 19.99,-21.31 14.73,-79.3 12.93,-106.31 -1.78,-26.99 -4.46,-56.08 -1.61,-82.98 3.63,-34.28 20.17,-41.15 41.46,-62.19 22.57,-22.31 77,-91.77 108.26,-91.77l457.14 0zm-809 151.69l134.9 0 0 134.91 -134.9 0 0 -134.91zm-404.51 404.5l134.91 0 0 134.91 -134.91 0 0 -134.91zm-404.5 404.5l134.91 0 0 134.91 -134.91 0 0 -134.91zm-426.3 758.44l358.95 0 0 303.63 -20.72 -4.83c-88.69,-20.67 -211.6,-112.75 -267.73,-183.76 -11.83,-14.96 -26.4,-30.74 -37.02,-46.31 -9.22,-13.52 -16.19,-30.04 -22.86,-44.94l-10.62 -23.78zm426.3 294.99l0 -547.8 337.16 0 0 589.97 -16.89 0c-39.59,0 -79.18,0.68 -118.77,0.62 -43.08,-0.07 -88.85,-0.15 -131.61,-5.11 -18.56,-2.15 -43.29,3.22 -58.41,-9.54 -8.47,-7.15 -11.48,-17.39 -11.48,-28.14zm404.5 -901.74l337.16 0 0 943.91 -337.16 0 0 -943.91zm404.51 -303.38l337.15 0 0 1247.29 -337.15 0 0 -1247.29zm404.5 -404.5l337.15 0 0 1651.8 -337.15 0 0 -1651.8zm-2296.52 1851.48l287.72 -291.09 11.8 8.92c14.78,11.19 34.39,41.32 45.12,57.06 11.01,16.16 22.26,34.22 34.41,49.42 25.59,32 54.63,62.65 83.65,91.54 28.86,28.75 59.22,57.19 90.76,82.98 14.38,11.76 32.03,22.65 47.53,33.04 15.56,10.44 46.72,30.28 57.47,44.95l8.51 11.61 -285.91 289.29 -381.06 -377.72zm1749.32 65.56c48.33,-25.58 84.89,-56.13 127.59,-89.51 27.9,-21.8 95.24,-108.39 126.81,-108.39l252.81 0c21.84,0 62.8,42.74 77.58,57.74 17.15,17.39 43.06,43.4 56.54,63.52l7.68 11.47 -372.09 375.41 -11.65 -8.13c-6.14,-4.28 -12.85,-10.77 -18.4,-15.83 -10.95,-9.99 -21.74,-20.17 -32.49,-30.37 -30.31,-28.8 -60.28,-58.02 -89.89,-87.52 -21.62,-21.54 -126.19,-124 -132.9,-149.11l-3.47 -13 11.89 -6.29zm-800.73 130.77c28.37,0.63 61.02,8.31 89.17,13.26 39.57,6.94 78.76,12.02 119.02,12.02 31.73,0 63.63,0.78 95.33,-0.05 32.26,-0.85 63.64,-4.03 95.57,-8.7 35.61,-5.2 69.8,-16.54 106.16,-16.54l16.89 0 0 413 -539.41 0 0 -413.38 17.27 0.39z"/>
 </g>
</svg>
