<?xml version="1.0" encoding="UTF-8"?>
<!DOCTYPE svg PUBLIC "-//W3C//DTD SVG 1.1//EN" "http://www.w3.org/Graphics/SVG/1.1/DTD/svg11.dtd">
<!-- Creator: CorelDRAW 2019 (64-Bit) -->
<svg xmlns="http://www.w3.org/2000/svg" xml:space="preserve" width="2.351in" height="2.252in" version="1.1" style="shape-rendering:geometricPrecision; text-rendering:geometricPrecision; image-rendering:optimizeQuality; fill-rule:evenodd; clip-rule:evenodd"
viewBox="0 0 2351 2252"
 xmlns:xlink="http://www.w3.org/1999/xlink">
 <defs>
  <style type="text/css">
  
    .fil0 {fill:#0056ed}
   
  </style>
 </defs>
 <g id="Layer_x0020_1">
  <metadata id="CorelCorpID_0Corel-Layer"/>
  <g id="_1965882295696">
   <path class="fil0" d="M1516.85 1510.71l-385.12 -0.93c-19.34,0.23 -39.5,1.23 -57.2,-8.09 -10.11,-5.33 -17.41,-13.08 -26.17,-20.13 -27.92,-22.48 -53.97,-44.81 -85.18,-62.88 -108.78,-62.98 -245.15,-78.96 -364.71,-38.93 -20.91,7 -42.68,13.79 -62.43,23.66 -18.83,9.42 -36.91,20.29 -55.52,30.13l-37.98 20.1 -18.59 -38.74c-6.98,-14.56 -11.97,-29.74 -18,-44.68 -8.28,-20.52 -24.78,-36.41 -40.63,-51.25 -24.62,-23.05 -65.47,-37.48 -99,-37.48l-267.63 0 0 972.55 243.87 0c72.4,0 128.54,-26.74 163.11,-92.08l12.76 -24.12 27.19 2.27c30.04,2.51 68.33,19.27 97.17,29.48 43.04,15.23 86.13,30.31 129.38,44.94 27.92,9.45 55.89,18.77 84.06,27.44 10.24,3.15 20.5,6.24 30.85,8.98 4.07,1.08 8.74,2.54 12.94,3.09l853.11 0.14c5.61,-1.98 20.5,-20.07 25.43,-24.96l72.77 -72.34 1.37 -1.14c51.94,-43.35 94.41,-96.86 147.38,-139.13 7.49,-5.98 13.96,-13.33 20.81,-20.22l289.92 -280.42c22.44,-22.45 45.88,-43.88 68.33,-66.31 16.08,-16.06 31.99,-33.09 44.08,-52.43 21.17,-33.88 26.4,-70.63 26.4,-109.9 0,-61.43 -35.19,-114.54 -84.66,-148.67 -66.47,-45.88 -164.39,-42.35 -226.13,10.32 -8.88,7.57 -16.17,16.59 -25.39,23.97 -46.93,37.56 -90.2,79.7 -133.96,120.83 -43.59,40.98 -86.89,82.55 -133.52,120.09 -10.8,8.7 -18.88,18.67 -30.74,26.61l-49.66 33.26 -13.56 -58.21c-5.17,-22.18 -33.35,-50.29 -50.71,-64.28 -25.3,-20.38 -52.12,-35.27 -84.45,-40.55zm-401.19 317.38l0 64.72 353.19 0c67.63,0 127.41,-25.94 167.67,-81.33 20.4,-28.07 41.05,-52.94 67.94,-75.13 17.2,-14.19 34.29,-28.09 50.02,-43.95 13.38,-13.5 27.66,-25.74 42.22,-37.92l237.62 -218.12 0.24 -0.21c13.23,-11.53 26.2,-23.33 40.35,-33.75 59.41,-43.75 122.44,-48.35 176.09,7.33 25.59,26.55 41.28,59.12 37.63,96.63 -6.61,68.05 -69.77,113.98 -114.43,158.71 -14.4,14.42 -29.67,27.69 -45.3,40.75 -17.12,14.31 -32.88,30.4 -48.8,46.01 -25.28,24.78 -50.28,49.82 -75.3,74.86 -39.46,39.5 -78.28,79.71 -119.28,117.64 -6.82,6.31 -14.35,11.29 -21.5,17.09l-100.98 100.65c-13.53,13.48 -29.36,24.31 -42.77,37.79 -12.95,13.02 -24.83,27.07 -37.62,40.27 -18.86,19.47 -46.97,49.22 -75.96,49.22l-793.76 0c-14.26,0 -31.78,-5.65 -45.5,-9.78 -19.18,-5.77 -38.19,-12.1 -57.15,-18.54 -29.04,-9.86 -57.8,-20.53 -86.89,-30.23l-131.48 -43.83c-4.65,-1.5 -9.52,-2.44 -14.24,-3.75 -29.05,-8.03 -53.04,-26.14 -53.04,-58.77l0 -432.53c0,-37.28 41.77,-71.06 69.6,-90.81 39.96,-28.35 86.69,-51.23 133.72,-65.01 29.13,-8.54 59.5,-13.83 89.91,-13.83 146.81,0 222.89,37.06 323.27,142.49 1.35,1.41 4.83,5.02 6.54,5.71 3.25,1.26 13.66,0.85 17.36,0.76 20.53,-0.53 41.04,-1.62 61.59,-1.62 63.69,0 127.37,-1.84 191.07,-1.93 41.92,-0.06 83.86,0.14 125.75,1.85 24.18,0.99 64.63,1.91 86.35,11.37 33.11,14.44 59.56,39.4 72.46,73.5 11.23,29.68 10.56,62.78 -0.91,92.28 -19.25,49.54 -64.96,81.41 -118.24,81.41l-367.45 0zm-858.84 361.23l-198.17 0 0 -847.87 41.31 0c54.32,0 177.28,-10.65 220.5,21.17 22.69,16.7 39.46,48.96 39.46,77.19l0 655.92c0,55.06 -50.76,93.6 -103.1,93.6z"/>
   <path class="fil0" d="M1804.54 219.64l-77.5 -69.15c-36.63,-30.11 -90.41,-61.14 -133.07,-82.16 -77.73,-38.29 -188.67,-66.19 -275.91,-66.19 -119.08,0 -215.72,13.26 -324.08,65.29 -72.25,34.69 -144.47,84.53 -201.35,141.08 -7.06,7.02 -12.56,14.89 -19.27,22.14 -6.78,7.33 -13.52,13.45 -19.74,21.42 -16.43,21.02 -33.46,41.96 -48.75,63.83 -20.39,29.17 -36.7,60.24 -52.41,92.11 -38.16,77.48 -66.19,188.95 -66.19,275.91 0,133.87 12.98,201.05 65.52,324.09 20.62,48.29 57.76,102.93 90.26,144.31 3.26,4.15 6.98,7.69 10.22,11.7l40.25 45.33 91.99 76.62c108.48,76.7 249.48,129.72 383.54,129.72l3.76 0c31.37,0 63.03,0.11 94.3,-2.59 34.01,-2.93 66.73,-9.54 99.81,-17.8 44.66,-11.17 84.09,-27.13 126.22,-45.12 53.24,-22.73 136.88,-78.94 177.65,-120.06 7.5,-7.57 16.16,-13.24 23.6,-20.61l39.13 -43.8c6.07,-7.77 12.66,-14.97 18.56,-22.88 31.16,-41.77 61.16,-85.15 82.41,-132.94 18.33,-41.22 34.24,-82.04 45.39,-125.89 12.36,-48.66 19.19,-98.87 20.94,-148.96l0 -52.17c-1.73,-49.35 -8.39,-98.84 -20.39,-146.83 -11.18,-44.66 -27.14,-84.08 -45.13,-126.22 -29.7,-69.57 -80.07,-133.71 -129.78,-190.19zm-508.7 1132.2c-41.95,0 -83.28,-4.21 -124.4,-12.44 -12.91,-2.58 -25.67,-5.58 -38.48,-8.61 -5.75,-1.35 -14.68,-3.82 -20.5,-3.95l-5.72 -0.13 181.31 -525.74c3.83,-11.5 6.07,-26.73 16.44,-34.31l6.01 -4.4 0.61 7.4c0.48,4.08 4.03,13.43 5.41,17.53 4.41,13.15 9.04,26.24 13.68,39.31 13.47,37.97 27.26,75.83 41.08,113.68 20.4,55.87 41.33,111.63 61.44,167.59 3.9,10.86 7.8,21.72 11.84,32.54l65.13 174.25 -4.62 1.07c-11.14,2.6 -21.91,5.67 -32.83,9.03 -21.59,6.65 -42.02,11.84 -64.24,16.26 -36.06,7.16 -75.33,10.93 -112.15,10.93zm-586.3 -901.78c8.42,6.16 9.07,15.13 12.57,24.14l256.26 701.7c6.67,16.91 12.19,34.19 18.33,51.28 6.15,17.13 11.77,35.66 19.62,52.02l3.76 7.84 -8.47 -1.97c-31.54,-7.34 -115.31,-68.95 -141.35,-91.91 -139.57,-123.08 -220.13,-297.82 -220.13,-484.25 0,-45.83 5.21,-93.91 15.14,-138.6 5.59,-25.17 13.39,-49.66 22.16,-73.89 4.85,-13.37 12.41,-30.39 15.57,-43.96l1.43 -6.15 5.09 3.73zm1150.43 -41.03c10.78,12.41 23.92,46.7 30.47,63.08 62.05,155 60.54,352.27 -12.24,503.42 -11.7,24.3 -24.37,47.5 -38.1,70.69 -13.35,22.54 -28.85,43.47 -45.02,64.05 -30.72,39.08 -70.48,78.13 -110.46,107.94l-71.52 48.99 0.73 -8.75c0.7,-8.35 7.56,-27.07 10.28,-35.39 6.91,-21.11 14.14,-42.13 21.4,-63.11 11.04,-31.9 22.78,-63.81 33.45,-95.86l115.97 -334.01c33.51,-92.69 60.49,-169.98 60.49,-271.1 0,-15.94 -2.77,-31.27 -2.77,-47.21l0 -11.17 7.32 8.43zm-955.71 -4.21c23.74,0 90.24,5.59 90.24,-29.15 0,-31.13 -45.47,-20.69 -65.58,-18.45l-171.76 3.29 1.43 -5.35c3.86,-14.48 64.26,-86.11 78.04,-99.88 5.05,-5.05 10.36,-8.03 15.56,-12.6 16.06,-14.14 31.85,-29.12 48.37,-42.67 21.44,-17.6 45.34,-32.19 69.09,-46.43 166.63,-99.91 394.2,-115.78 572.2,-37.15 43.96,19.42 156.79,79.87 182.37,118.07l4.35 6.5 -7.81 0c-54.96,0 -106.91,41.57 -106.91,98.57 0,80.27 28.59,99.47 64.26,163.7 59.63,107.38 60,168.63 30.63,285.03 -8.55,33.89 -21.28,66.45 -30.57,100.07 -9.13,33.01 -20.06,66.2 -30.04,99.01 -6.74,22.16 -13.46,44.35 -19.81,66.62 -2.11,7.42 -8.74,28.32 -8.9,35.5l-0.09 4.08 -13.48 0 -0.32 -3.83c-1.03,-12.3 -8.63,-29.7 -12.65,-41.74 -4.63,-13.89 -9.29,-27.78 -13.88,-41.69 -4.55,-13.77 -10.02,-27.19 -14.58,-40.94 -4.83,-14.58 -9.74,-29.15 -14.59,-43.72 -18.98,-56.93 -37.73,-113.94 -56.92,-170.8l-116.76 -346.04 5.81 0c20.49,0 39.97,-1.22 60.34,-3.13 14.26,-1.34 32.69,-5.47 32.69,-23.24 0,-6.59 -1.35,-13.42 -6.57,-17.91 -13.99,-12.03 -56.72,-2.7 -75.2,-2.89l-111.62 4.61c-11.5,0.63 -23.9,-0.04 -35.41,-0.57 -16.54,-0.76 -33.07,-1.81 -49.6,-2.85 -26.56,-1.68 -54.83,-4.27 -81.36,-4.15 -11.96,0.06 -25.3,3.67 -28.13,16.94 -1.67,7.8 1.14,18.76 7.78,23.63 4.95,3.65 15.55,5.4 21.67,6.14 19.33,2.33 37.66,3.43 57.14,3.43l2.93 0 62.47 171.92c9.54,28.75 21.24,56.76 31.23,85.36 2.78,7.96 5.16,16.16 4.75,24.68 -0.39,8.16 -3.32,16.27 -6.14,23.86 -4.97,13.42 -10.04,26.61 -14.57,40.21l-86.78 260.38c-4.86,14.57 -9.72,29.15 -14.57,43.73 -4.81,14.44 -10.69,28.87 -14.14,43.7l-3.31 14.23 -120.99 -355.77c-19.55,-57.49 -39.11,-114.96 -58.42,-172.53 -12.95,-38.61 -25.86,-77.26 -38.38,-116.02 -4.3,-13.31 -8.59,-26.66 -12.62,-40.06 -1.3,-4.3 -4.91,-15.12 -5.01,-19.43l-0.09 -4.26 4.27 0z"/>
  </g>
 </g>
</svg>
