<?xml version="1.0" encoding="UTF-8"?>
<!DOCTYPE svg PUBLIC "-//W3C//DTD SVG 1.1//EN" "http://www.w3.org/Graphics/SVG/1.1/DTD/svg11.dtd">
<!-- Creator: CorelDRAW 2019 (64-Bit) -->
<svg xmlns="http://www.w3.org/2000/svg" xml:space="preserve" width="3.059in" height="2.274in" version="1.1" style="shape-rendering:geometricPrecision; text-rendering:geometricPrecision; image-rendering:optimizeQuality; fill-rule:evenodd; clip-rule:evenodd"
viewBox="0 0 3059 2274"
 xmlns:xlink="http://www.w3.org/1999/xlink">
 <defs>
  <style type="text/css">
  
    .fil0 {fill:#0056ed}
  
  </style>
 </defs>
 <g id="Layer_x0020_1">
  <metadata id="CorelCorpID_0Corel-Layer"/>
  <g id="_1964802574096">
   <path class="fil0" d="M1748.71 1789.41l-1653.67 0c-52.42,0 -94.83,-42.83 -94.83,-95.16l0 -1601.8c0,-51.32 42.17,-92.49 93.28,-92.49l2003.3 0c50.76,0 93.93,40.05 93.93,91.49l0 877.69 5.9 -1.79c63.01,-19.1 128.66,-28.64 194.49,-28.64 178.29,0 346.04,69.49 472.11,195.56 126.07,126.06 195.57,293.83 195.57,472.11 0,178.29 -69.49,346.06 -195.57,472.12 -126.07,126.06 -293.83,195.55 -472.11,195.55 -178.27,0 -346.04,-69.49 -472.09,-195.55 -79.67,-79.67 -138.06,-177.47 -169.35,-285.78l-0.95 -3.3zm642.4 -804.33c-342.57,0 -621.29,278.72 -621.29,621.3 0,342.57 278.71,621.3 621.29,621.3 342.59,0 621.32,-278.7 621.32,-621.3 0,-342.59 -278.74,-621.3 -621.32,-621.3zm0 1204.46c-155.71,0 -302.24,-60.7 -412.34,-170.8 -110.11,-110.1 -170.81,-256.65 -170.81,-412.37 0,-155.72 60.7,-302.24 170.81,-412.35 110.1,-110.11 256.63,-170.81 412.34,-170.81 155.72,0 302.26,60.7 412.37,170.81 110.11,110.11 170.8,256.63 170.8,412.35 0,12.8 -10.38,23.18 -23.18,23.18 -12.81,0 -23.18,-10.37 -23.18,-23.18 0,-296 -240.82,-536.8 -536.81,-536.8 -295.98,0 -536.78,240.82 -536.78,536.8 0,295.98 240.8,536.81 536.78,536.81 12.81,0 23.18,10.37 23.18,23.18 0,12.8 -10.37,23.18 -23.18,23.18zm-246.75 -1203.93l0 -742.13 -85.48 0c-12.8,0 -23.18,-10.38 -23.18,-23.18 0,-12.8 10.38,-23.18 23.18,-23.18l85.48 0 0 -105.67c0,-25.85 -22.42,-45.13 -47.57,-45.13l-1644.69 0 0 150.8 1470.1 0c12.8,0 23.19,10.37 23.19,23.18 0,12.81 -10.39,23.18 -23.19,23.18l-1875.62 0 0 1450.78c0,26.76 21.61,48.8 48.46,48.8l1642.31 0 -1.08 -5.46c-7.87,-39.74 -12.1,-80.17 -12.74,-120.67l-0.07 -4.5 -1577.96 0c-12.8,0 -23.18,-10.39 -23.18,-23.18 0,-12.8 10.38,-23.19 23.18,-23.19l1579.14 0 0.28 -4.28c2.78,-42.22 9.5,-84.18 20.19,-125.12l1.5 -5.72 -1601.11 0c-12.8,0 -23.18,-10.37 -23.18,-23.18 0,-12.8 10.39,-23.18 23.18,-23.18l1615.5 0 1.09 -3.04c21.02,-58.83 50.35,-114.53 86.94,-165.17l5.24 -7.25 -101.22 0c-12.8,0 -23.18,-10.38 -23.18,-23.18l0 -291.26c0,-12.8 10.38,-23.19 23.18,-23.19l293.5 0c12.81,0 23.19,10.39 23.19,23.19l0 126.08 6.73 -3.61c21.1,-11.3 42.82,-21.46 65.03,-30.4l2.86 -1.15zm-612.34 200.35c0,12.8 -10.39,23.18 -23.18,23.18l-291.27 0c-12.8,0 -23.18,-10.38 -23.18,-23.18l0 -291.26c0,-12.8 10.38,-23.19 23.18,-23.19l291.27 0c12.8,0 23.18,10.39 23.18,23.19l0 291.26zm-535.48 0c0,12.8 -10.38,23.18 -23.18,23.18l-291.26 0c-12.8,0 -23.19,-10.38 -23.19,-23.18l0 -291.26c0,-12.8 10.38,-23.19 23.19,-23.19l291.26 0c12.81,0 23.18,10.39 23.18,23.19l0 291.26zm-535.47 0c0,12.8 -10.39,23.18 -23.18,23.18l-291.26 0c-12.8,0 -23.18,-10.38 -23.18,-23.18l0 -291.26c0,-12.8 10.37,-23.19 23.18,-23.19l291.26 0c12.8,0 23.18,10.39 23.18,23.19l0 291.26zm1608.67 -459.31c0,12.81 -10.39,23.19 -23.19,23.19l-1899.93 0c-12.8,0 -23.18,-10.38 -23.18,-23.19l0 -380.88c0,-12.8 10.38,-23.18 23.18,-23.18l1899.93 0c12.8,0 23.19,10.38 23.19,23.18l0 380.88zm-828.98 436.12l244.9 0 0 -244.9 -244.9 0 0 244.9zm-535.47 0l244.9 0 0 -244.9 -244.9 0 0 244.9zm-535.48 0l244.9 0 0 -244.9 -244.9 0 0 244.9zm0 -459.3l1853.56 0 0 -334.52 -1853.56 0 0 334.52zm1722.3 459.3l1.37 -1.52c8.27,-9.22 16.78,-18.21 25.54,-26.97 31.26,-31.26 65.57,-59.46 102.32,-84.04l2.03 -1.36 0 -131.01 -247.14 0 0 244.9 115.88 0zm-1486.37 -1116.45l-312.25 0c-26.02,0 -46.91,19.89 -46.91,46.13l0 104.67 359.16 0 0 -150.8z"/>
   <path class="fil0" d="M1107.96 176.54c11.12,0 20.15,-9.02 20.15,-20.15 0,-11.13 -9.02,-20.15 -20.15,-20.15l-589.25 0c-11.13,0 -20.15,9.02 -20.15,20.15 0,11.13 9.03,20.15 20.15,20.15l589.25 0zm508.58 -69.44c11.14,0 20.16,-9.03 20.16,-20.17 0,-11.13 -9.03,-20.15 -20.16,-20.15l-1097.83 0c-11.13,0 -20.15,9.02 -20.15,20.15 0,11.13 9.02,20.17 20.15,20.17l1097.83 0z"/>
   <path class="fil0" d="M296.31 165.76c25.94,0 47.06,-21.12 47.06,-47.06 0,-25.94 -21.12,-47.06 -47.06,-47.06 -25.94,0 -47.06,21.12 -47.06,47.06 0,25.94 21.11,47.06 47.06,47.06zm0 -70.37c12.85,0 23.3,10.46 23.3,23.31 0,12.85 -10.45,23.31 -23.3,23.31 -12.85,0 -23.31,-10.46 -23.31,-23.31 0,-12.85 10.45,-23.31 23.31,-23.31z"/>
   <path class="fil0" d="M167.15 165.76c25.94,0 47.06,-21.12 47.06,-47.06 0,-25.94 -21.12,-47.06 -47.06,-47.06 -25.94,0 -47.06,21.12 -47.06,47.06 0,25.94 21.11,47.06 47.06,47.06zm0 -70.37c12.85,0 23.3,10.46 23.3,23.31 0,12.85 -10.45,23.31 -23.3,23.31 -12.85,0 -23.31,-10.46 -23.31,-23.31 0,-12.85 10.45,-23.31 23.31,-23.31z"/>
   <path class="fil0" d="M2378.59 1996.96c-57.13,0 -93.36,-13.8 -102.75,-14.01l100.6 -291.71c2.31,-6.93 3.37,-14.43 8.37,-18.09 0.58,7 61.12,170.15 68.3,190.12 2.24,6.24 4.24,11.81 6.65,18.26l35.58 95.19c-20.39,4.75 -24.04,8.15 -54.34,14.16 -17.76,3.53 -41.09,6.08 -62.41,6.08zm396.98 -372.7l0 29.3c-1,28.6 -4.93,57 -11.81,84.06 -6.71,26.41 -15.62,48.57 -25.57,70.94 -12.01,27 -28.96,51.52 -46.46,74.97 -3.74,5.02 -6.63,7.99 -10.46,12.89l-22.04 24.67c-4.96,4.93 -8.39,6.68 -13.29,11.62 -22.92,23.11 -71.83,55.64 -100.33,67.81 -23.78,10.15 -43.59,18.54 -71.11,25.41 -44.39,11.1 -65.43,11.5 -109.38,11.5l-2.11 0c-78.91,0 -158.55,-32.28 -216.39,-73.17l-51.81 -43.15 -22.7 -25.56c-2.23,-2.76 -3.4,-3.59 -5.81,-6.65 -17.88,-22.77 -39.87,-55.58 -50.91,-81.42 -29.85,-69.93 -36.91,-105.06 -36.91,-182.59 0,-54.84 19.18,-118.83 37.34,-155.7 22,-44.66 30.86,-54.42 56.96,-87.82 4.47,-5.72 6.61,-7.21 11.19,-12.16 4.33,-4.67 6,-7.64 10.87,-12.48 31.83,-31.65 73.21,-60.19 113.51,-79.54 58.88,-28.28 110.97,-36.83 182.68,-36.83 55.04,0 118.7,19.11 155.7,37.34 22.33,11 55.98,30.68 75.07,46.36l43.6 38.91c27.88,31.65 56.55,68.25 73.24,107.35 10.15,23.78 18.53,43.58 25.41,71.11 6.68,26.69 10.51,54.67 11.5,82.84zm-756.6 14.64c0,-26.62 3.4,-54.54 8.43,-77.19 6.89,-31 18.96,-56.66 21.15,-66.04 4,2.93 4.22,7.27 6.23,12.45l143.68 393.41c3.87,9.81 6.9,19.36 10.24,28.68 3.26,9.08 7.2,21.26 11.09,29.38 -16.17,-3.76 -62.67,-37.29 -78.22,-51 -72.59,-64.01 -122.61,-159.31 -122.61,-269.7zm674.09 -166.58c5.2,5.99 13.81,27.55 16.68,34.7 34.56,86.34 33.68,196.24 -6.8,280.32 -7.06,14.65 -13.26,25.94 -21.26,39.45 -7.54,12.72 -16.04,24.17 -25.06,35.65 -16.83,21.41 -39.75,43.87 -61.41,60.03l-36.03 24.68c0.64,-7.73 33.01,-98.24 36.39,-108.39l65 -187.21c17.58,-48.62 34.05,-92.67 34.05,-152.76 0,-11.27 -1.55,-15.59 -1.55,-26.47zm-138.56 -40.48c0,46.22 17.08,58.26 36.31,92.9 33.96,61.16 32.76,95.41 16.94,158.07 -4.83,19.12 -12.13,37.99 -17.13,56.05 -4.54,16.41 -32.84,105.27 -33.02,113.32l-3.11 0c-0.55,-6.61 -4.94,-17.19 -7.2,-23.94 -2.85,-8.54 -4.96,-14.81 -7.78,-23.36 -2.82,-8.56 -5.56,-15.06 -8.18,-22.96 -2.83,-8.52 -5.34,-16 -8.18,-24.51 -10.57,-31.72 -21.09,-63.24 -31.91,-95.75l-64.41 -190.9c13,0 21.78,-0.61 34.04,-1.76 9.17,-0.86 20.44,-3.85 20.44,-15.36 0,-23.65 -29.41,-13.81 -48.24,-14l-62.63 2.59c-16.6,0.91 -74.2,-4.34 -93.15,-4.26 -23.19,0.11 -20.68,21.17 -12.79,26.97 3.22,2.37 9.55,3.43 13.25,3.88 11.44,1.38 20.21,1.94 32.31,1.94l34.44 94.77c5.27,15.87 11.71,31.26 17.52,47.89 5.76,16.5 1.37,17.26 -8.96,48.24l-48.65 145.96c-2.93,8.76 -5.51,16.54 -8.17,24.52 -2.69,8.08 -6.1,16.6 -7.98,24.71l-65.19 -191.68c-3.99,-11.97 -63.86,-186.93 -64.03,-194.4 22.41,0 52.93,1.63 52.93,-18.68 0,-19.21 -23.91,-14.39 -39.15,-12.68l-93.18 1.78c1.9,-7.13 35.95,-47.76 43.14,-54.94 3.58,-3.59 5,-3.78 8.61,-6.96 27.33,-24.06 28.61,-27.58 65.5,-49.7 90.75,-54.42 217.44,-65.39 318.61,-20.69 20.28,8.96 86.68,43.61 101.23,65.35 -38.13,0 -62.27,30.03 -62.27,57.6z"/>
  </g>
 </g>
</svg>
