<?xml version="1.0" encoding="UTF-8"?>
<!DOCTYPE svg PUBLIC "-//W3C//DTD SVG 1.1//EN" "http://www.w3.org/Graphics/SVG/1.1/DTD/svg11.dtd">
<!-- Creator: CorelDRAW 2017 -->
<svg xmlns="http://www.w3.org/2000/svg" xml:space="preserve" width="9.466in" height="4.383in" version="1.1" style="shape-rendering:geometricPrecision; text-rendering:geometricPrecision; image-rendering:optimizeQuality; fill-rule:evenodd; clip-rule:evenodd"
viewBox="0 0 9466 4383"
 xmlns:xlink="http://www.w3.org/1999/xlink">
 <defs>
  <style type="text/css">
   <![CDATA[
    .str4 {stroke:#1B0000;stroke-width:6.94;stroke-linecap:round;stroke-linejoin:round;stroke-miterlimit:2.61313}
    .str5 {stroke:#792D2E;stroke-width:27.09;stroke-miterlimit:2.61313}
    .str1 {stroke:#2B2B2B;stroke-width:13.19;stroke-linecap:round;stroke-linejoin:round;stroke-miterlimit:2.61313}
    .str2 {stroke:#303030;stroke-width:13.19;stroke-linecap:round;stroke-linejoin:round;stroke-miterlimit:2.61313}
    .str0 {stroke:#262626;stroke-width:18.96;stroke-linecap:round;stroke-linejoin:round;stroke-miterlimit:2.61313}
    .str3 {stroke:#1B0000;stroke-width:18.96;stroke-linecap:round;stroke-linejoin:round;stroke-miterlimit:2.61313}
    .fil6 {fill:none}
    .fil14 {fill:#242323}
    .fil15 {fill:#292929}
    .fil16 {fill:#373435}
    .fil9 {fill:#542915}
    .fil7 {fill:#733D19}
    .fil18 {fill:#792D2E}
    .fil17 {fill:#913460}
    .fil12 {fill:#92540B}
    .fil8 {fill:#B54D1A}
    .fil13 {fill:#CE8000}
    .fil5 {fill:#FBB699}
    .fil10 {fill:#FCB792}
    .fil3 {fill:#FDDDD0}
    .fil4 {fill:#FEFEFE}
    .fil19 {fill:#FFB2D2}
    .fil1 {fill:#252526;fill-rule:nonzero}
    .fil11 {fill:#262626;fill-rule:nonzero}
    .fil0 {fill:#FF6A00;fill-rule:nonzero}
    .fil2 {fill:#FF6A00;fill-rule:nonzero}
    .fil20 {fill:#B56989;fill-opacity:0.501961}
   ]]>
  </style>
 </defs>
 <g id="Layer_x0020_1">
  <metadata id="CorelCorpID_0Corel-Layer"/>
  <polygon class="fil0" points="5753.15,1701.45 5571.68,1226.17 5318.72,1557.02 4997.49,1175.98 4865.91,1691.24 4348.61,1516.18 4757.96,184.29 5302.67,789.4 5758.11,194.5 6252.35,1493.71 "/>
  <path class="fil0" d="M6949.39 1221.87l84 -241.56 112.13 203.47 -196.14 38.09zm483.45 478.55l473.14 -240.69 -949.92 -1329.36 -625.77 1500.33 412.17 186.48 85.93 -247.67 483.74 -85.34 120.71 216.25z"/>
  <path class="fil0" d="M8278.06 929.57c8.17,71.77 33.56,127.79 76.15,167.76 34.14,31.8 78.48,52.81 132.46,63.02 62.73,11.38 123.71,9.92 182.93,-4.09l-7.58 -477.03c-54.85,-17.22 -114.37,-23.63 -178.85,-19.55 -54.56,2.63 -98.61,18.38 -132.46,46.98 -27.13,23.34 -47.26,53.98 -59.81,92.2 -14.3,43.76 -18.38,87.53 -12.84,130.71zm-476.74 -16.05c-1.17,-30.93 1.46,-69.44 8.46,-115.54 6.13,-41.14 14.88,-80.52 25.68,-118.74 13.71,-48.43 30.93,-93.95 51.93,-136.84 121.37,-247.41 342.24,-370.83 662.59,-370.83 221.16,-1.75 423.64,25.67 607.74,82.86l-56.31 1364.28c-55.43,10.8 -124.58,18.96 -207.73,24.8 -167.18,11.96 -319.19,6.13 -456.61,-17.21 -191.98,-32.97 -341.65,-98.91 -448.73,-197.52 -133.33,-123.7 -195.77,-295.26 -187.02,-515.25z"/>
  <path class="fil1" d="M1217.37 2637.96c-0.98,148.15 -63,245.59 -186.04,292.84 -61.52,23.13 -123.04,31.5 -184.57,25.59l-18.7 -681.67c64.47,0.98 128.95,16.74 194.41,47.25 56.6,27.07 101.39,63 134.36,108.28 40.36,56.6 60.54,126 60.54,207.7zm-1165.48 1606.46l829.32 -60.54 -21.66 -620.14c66.44,21.16 157.99,24.12 275.62,8.37 140.27,-19.19 269.71,-61.52 387.83,-126.49 328.77,-183.58 483.31,-496.11 464.12,-937.6 -11.32,-244.12 -121.57,-430.65 -330.25,-559.11 -168.32,-103.85 -394.72,-168.82 -680.68,-194.9 -327.79,-30.52 -653.12,-16.74 -975.98,41.83l51.68 2448.58z"/>
  <path class="fil2" d="M3884.98 3157.2c-23.13,135.35 -93.52,246.58 -210.65,332.71 -119.11,87.61 -251.5,125.5 -396.69,114.19 -145.19,-10.83 -260.85,-67.92 -347.48,-171.77 -86.62,-102.86 -118.61,-221.97 -96.46,-357.32 23.13,-134.85 93.02,-245.59 210.65,-333.2 119.11,-86.62 251.01,-124.52 396.2,-114.19 145.19,11.81 261.35,69.4 348.95,173.25 85.64,102.87 117.14,221.48 95.48,356.33zm-307.12 -1260.46c-365.69,-28.05 -696.92,67.92 -995.18,286.94 -141.26,103.85 -257.9,226.89 -350.43,369.13 -93.02,146.17 -154.05,302.69 -183.09,470.03 -28.06,166.35 -19.69,328.28 24.61,486.27 42.33,151.59 114.68,288.91 217.54,411.95 102.87,123.04 228.37,221.97 376.52,295.8 152.57,77.76 318.93,124.03 499.07,138.3 365.2,28.05 696.92,-67.43 994.69,-286.94 141.26,-103.85 257.41,-226.89 347.48,-369.13 94.99,-146.17 156.51,-302.69 184.57,-470.03 28.06,-165.37 20.18,-327.3 -23.13,-485.78 -43.31,-152.08 -116.15,-289.4 -219.02,-412.44 -103.85,-123.04 -229.35,-221.48 -376.52,-295.8 -152.57,-77.76 -318.44,-124.03 -497.1,-138.3z"/>
  <path class="fil1" d="M5961.48 2637.96c-0.98,148.15 -63,245.59 -186.04,292.84 -61.52,23.13 -123.04,31.5 -184.57,25.59l-18.7 -681.67c64.47,0.98 128.95,16.74 194.41,47.25 56.6,27.07 101.39,63 134.36,108.28 40.36,56.6 60.54,126 60.54,207.7zm-1165.48 1606.46l829.32 -60.54 -21.66 -620.14c66.44,21.16 157.99,24.12 275.62,8.37 140.27,-19.19 269.71,-61.52 387.83,-126.49 328.77,-183.58 483.31,-496.11 464.12,-937.6 -11.32,-244.12 -121.57,-430.65 -330.25,-559.11 -168.32,-103.85 -394.72,-168.82 -680.68,-194.9 -327.79,-30.52 -653.12,-16.74 -975.98,41.83l51.68 2448.58z"/>
  <path class="fil1" d="M8629.09 3157.2c-23.13,135.35 -93.52,246.58 -210.65,332.71 -119.11,87.61 -251.5,125.5 -396.69,114.19 -145.19,-10.83 -260.85,-67.92 -347.48,-171.77 -86.62,-102.86 -118.61,-221.97 -96.46,-357.32 23.13,-134.85 93.02,-245.59 210.65,-333.2 119.11,-86.62 251.01,-124.52 396.2,-114.19 145.19,11.81 261.35,69.4 348.95,173.25 85.64,102.87 117.14,221.48 95.48,356.33zm-307.12 -1260.46c-365.69,-28.05 -696.92,67.92 -995.18,286.94 -141.26,103.85 -257.9,226.89 -350.43,369.13 -93.02,146.17 -154.05,302.69 -183.09,470.03 -28.06,166.35 -19.69,328.28 24.61,486.27 42.33,151.59 114.68,288.91 217.54,411.95 102.87,123.04 228.37,221.97 376.52,295.8 152.57,77.76 318.93,124.03 499.07,138.3 365.2,28.05 696.92,-67.43 994.69,-286.94 141.26,-103.85 257.41,-226.89 347.48,-369.13 94.99,-146.17 156.51,-302.69 184.57,-470.03 28.06,-165.37 20.18,-327.3 -23.13,-485.78 -43.31,-152.08 -116.15,-289.4 -219.02,-412.44 -103.85,-123.04 -229.35,-221.48 -376.52,-295.8 -152.57,-77.76 -318.44,-124.03 -497.1,-138.3z"/>
  <path class="fil3 str0" d="M1947.5 1885.78c0,0 -64,-256.01 -246.53,-274.98 0,0 -215.19,33.51 -198.6,367.74 16.59,334.24 114.07,302.5 116.13,305.46 0,0 -14.23,799.23 668.47,1401.33 682.7,602.09 1059.01,618.7 1485.7,419.58 105.03,-54.35 205.63,-125.51 300.42,-208.66 212.61,-186.5 527.49,-730.13 608.69,-1011.92 85.53,-296.79 58.57,-554.3 -39.75,-820.48 -56.96,-154.21 -272.91,-598.84 -378.98,-705.22l-32.8 -32.89c-154.13,-144.5 -766.38,-696.65 -1290.75,-861.1 0,0 -132.76,-118.54 -258.4,80.58 -125.64,199.13 -113.8,320.02 -246.54,395.88 0,0 -41.49,24.88 -61.64,117.33 -20.15,92.45 -93.63,182.54 -210.98,188.46 0,0 69.94,-58.07 67.57,-124.45 -476.11,330.63 -57.07,527.28 -274.11,755.22 -2.62,2.69 -5.23,5.49 -7.9,8.12z"/>
  <path class="fil4" d="M4110.32 3862.71c818.39,-1052.07 703.88,-1523.94 307.42,-2242.9 -61.43,-111.41 -103.1,-202.54 -194.66,-289.12 -152.53,-142.99 -746.5,-690.08 -1267.16,-860.72 447.77,225.83 2591.96,1564.33 1154.4,3392.74zm-1182.25 -3406.61c-9.25,-6.17 -23.72,-14.37 -41.93,-20 10.36,4.8 24.37,11.39 41.93,20z"/>
  <path class="fil5" d="M1628.03 2284.44c-0.48,-2.57 -14.91,567.22 408.62,1120.19 71.46,93.3 155.93,184.36 255.43,272.56 484.88,429.83 802.13,546.83 1088.44,536.38 140.52,-9.16 288.43,-72.7 332.02,-92.46 3.52,-1.59 -523.46,148.22 -1270.17,-476.83 -698,-584.27 -714.69,-1394.47 -714.69,-1394.47 -35.13,20.15 -92.87,71.26 -99.67,34.63z"/>
  <path class="fil5" d="M1855.76 2108.92c-134.71,77.03 -185.54,-170.48 -26.98,-235.16 0,0 -48.3,-123.09 -181.04,-114.79 -142.83,269.97 71.24,519.47 208.02,349.95z"/>
  <path class="fil6 str1" d="M1669.26 1758.5c0,0 163.56,-8.3 193.19,240.61"/>
  <path class="fil6 str2" d="M1730.9 2038.22c0,0 -3.82,-125.07 97.88,-164.46"/>
  <path class="fil7 str3" d="M1947.5 1885.78c0,0 -64.01,-256.01 -246.53,-274.98 -8.61,-1.32 -133.29,-342.35 199.8,-572.56 17.8,-12.3 -133.55,-1.36 -254.02,66.97 0,0 106.77,-204.53 391.98,-311.05 0,0 -187.28,9.48 -414.85,181.34 0,0 125.63,-408.92 559.42,-502.55 -7.77,7.38 -310.65,-38.18 -483.57,0 0,0 176.59,-374.54 784.63,-135.11 0,0 -24.14,-375.77 522.69,-334.96 0,0 -343.72,135.84 -327.12,276.29 0,0 170.9,-198.98 517.95,-100.15 0,0 -31.4,50.37 -74.07,87.11 0,0 224.02,-13.64 383.73,174.23 0,0 342.05,86.99 394.2,-211.68 0,0 84.33,185.01 -147.98,341.46 0,0 254.84,49.77 414.85,347.27 3.85,5.04 -136.3,-85.92 -363.87,-74.67 17.91,20.87 219.21,-3.16 380.97,314.17 28.76,56.41 56.27,123.62 81.28,203.77 0,0 -722.33,-706.26 -1327.48,-896.04 0,0 -132.76,-118.53 -258.4,80.59 -125.64,199.12 -113.8,320.02 -246.53,395.87 0,0 -41.49,24.89 -61.65,117.34 -20.14,92.44 -93.63,182.54 -210.97,188.46 0,0 69.93,-58.08 67.56,-124.45 -481.74,334.54 -46.9,531.92 -282.01,763.33z"/>
  <path class="fil8" d="M3186.83 366.06c17.68,2.59 232.2,85.24 407.02,94.76 155.29,8.46 281.96,-62.43 309.07,-194.36 33.4,162.68 -360.09,460.22 -716.09,99.6z"/>
  <path class="fil8" d="M3753.85 579.83c0,0 236.65,48.56 391.9,316.19 0,0 -50.78,-24.74 -109.45,-39.05 0,0 -35.84,-142.11 -282.45,-277.14z"/>
  <path class="fil8" d="M3067.28 270.03c0,0 260.78,-14.15 409.94,153.24 29.43,32.93 -47.71,9.37 -57.2,4.87 -69.93,-33.19 -146.76,-129.85 -352.73,-158.11z"/>
  <path class="fil8" d="M2723.48 253.65c-0,-0.26 181.34,-153.23 458.88,-69.15 0,0 -257.11,0.21 -458.88,69.15z"/>
  <path class="fil6 str4" d="M2994.88 386.09c0,0 -120.91,-46.84 -257.44,89.7"/>
  <path class="fil9" d="M2540.76 1300.39c3.18,-125.32 153.77,-209.65 239.9,-202.3 99.15,8.46 88.03,108.87 19.81,79.45 -30.93,-13.33 -199.81,-30.6 -259.71,122.85z"/>
  <path class="fil9" d="M3748.3 1275.09c-0.86,-125.36 -149.86,-212.46 -236.11,-206.71 -99.29,6.63 -90.03,107.22 -21.28,79.07 31.18,-12.76 200.35,-26.9 257.39,127.64z"/>
  <path class="fil10" d="M3386.59 1222.8c-227.09,118.93 -94.89,469.86 109.67,545.78 113.7,-76.8 155.33,-87.79 271.96,-119.1 90.93,-273.16 -161.31,-542.06 -381.63,-426.68z"/>
  <g>
   <path class="fil4" d="M3401.06 1253.24c-115.4,60.45 -149.69,222.62 -76.56,362.23 39.89,76.13 103.46,129.83 171.76,153.11 84.91,-52.56 166.47,-101.14 265.1,-117.26 30.48,-74.13 40.18,-141.89 -18.94,-254.76 -59.12,-112.87 -225.95,-203.77 -341.36,-143.33z"/>
   <path id="1" class="fil11" d="M3318.2 1618.77l0 0 -6.68 -13.41 -6.04 -13.53 -5.41 -13.63 -4.78 -13.69 -4.16 -13.74 -3.54 -13.76 -2.93 -13.76 -2.32 -13.74 -1.72 -13.69 -1.12 -13.62 -0.52 -13.53 0.06 -13.41 0.65 -13.28 1.24 -13.11 1.81 -12.93 2.38 -12.72 2.95 -12.5 3.52 -12.24 4.08 -11.96 4.63 -11.67 5.19 -11.35 5.74 -11 6.28 -10.63 6.82 -10.23 7.36 -9.81 7.89 -9.37 8.41 -8.9 8.94 -8.41 9.45 -7.88 9.96 -7.34 10.47 -6.77 10.96 -6.17 6.6 12.6 -10.2 5.75 -9.74 6.3 -9.27 6.83 -8.8 7.34 -8.33 7.83 -7.85 8.3 -7.37 8.75 -6.88 9.18 -6.39 9.59 -5.89 9.97 -5.39 10.34 -4.88 10.69 -4.37 11 -3.85 11.31 -3.33 11.58 -2.8 11.84 -2.26 12.08 -1.72 12.3 -1.17 12.48 -0.62 12.65 -0.06 12.79 0.5 12.91 1.07 13.01 1.64 13.09 2.22 13.14 2.81 13.17 3.39 13.18 3.99 13.17 4.58 13.13 5.19 13.07 5.8 12.99 6.41 12.89 0 0 -12.6 6.6zm181.8 155.86l-6.04 0.69 -6.56 -2.33 -6.53 -2.52 -6.49 -2.69 -6.45 -2.87 -6.4 -3.05 -6.36 -3.22 -6.3 -3.39 -6.24 -3.56 -6.19 -3.74 -6.13 -3.9 -6.06 -4.07 -6 -4.23 -5.92 -4.4 -5.84 -4.56 -5.77 -4.72 -5.69 -4.88 -5.6 -5.04 -5.5 -5.19 -5.41 -5.34 -5.32 -5.5 -5.22 -5.65 -5.11 -5.8 -5 -5.94 -4.9 -6.09 -4.78 -6.24 -4.67 -6.38 -4.54 -6.53 -4.42 -6.67 -4.29 -6.8 -4.16 -6.95 -4.03 -7.07 -3.88 -7.22 12.6 -6.6 3.73 6.93 3.86 6.8 3.99 6.67 4.12 6.53 4.24 6.4 4.36 6.26 4.47 6.12 4.58 5.98 4.69 5.83 4.8 5.7 4.89 5.56 5 5.41 5.09 5.26 5.18 5.11 5.27 4.96 5.35 4.81 5.43 4.66 5.51 4.51 5.58 4.35 5.65 4.2 5.71 4.04 5.78 3.88 5.84 3.72 5.89 3.56 5.94 3.39 6 3.23 6.04 3.06 6.08 2.89 6.12 2.72 6.16 2.56 6.18 2.38 6.22 2.21 -6.04 0.69 7.49 12.09zm0 0l-2.86 1.77 -3.18 -1.08 6.04 -0.69zm267.94 -120.6l-5.43 4.31 -9.05 1.58 -8.95 1.76 -8.86 1.94 -8.78 2.11 -8.7 2.28 -8.62 2.44 -8.54 2.6 -8.48 2.75 -8.41 2.9 -8.35 3.04 -8.29 3.18 -8.24 3.31 -8.19 3.44 -8.14 3.56 -8.1 3.68 -8.06 3.8 -8.03 3.9 -8 4.01 -7.97 4.1 -7.94 4.19 -7.92 4.28 -7.91 4.37 -7.9 4.44 -7.89 4.52 -7.88 4.58 -7.87 4.65 -7.88 4.7 -7.88 4.76 -7.9 4.8 -7.91 4.84 -7.92 4.88 -7.94 4.91 -7.49 -12.09 7.96 -4.92 7.95 -4.9 7.94 -4.86 7.94 -4.83 7.94 -4.79 7.94 -4.74 7.94 -4.69 7.96 -4.63 7.97 -4.57 7.99 -4.5 8.02 -4.43 8.04 -4.34 8.07 -4.26 8.1 -4.17 8.15 -4.08 8.19 -3.98 8.23 -3.87 8.28 -3.76 8.33 -3.64 8.39 -3.52 8.45 -3.39 8.51 -3.26 8.58 -3.13 8.65 -2.98 8.72 -2.83 8.8 -2.68 8.89 -2.52 8.97 -2.35 9.06 -2.18 9.15 -2 9.25 -1.81 9.35 -1.63 -5.43 4.31 13.16 5.41zm0 0l-1.51 3.67 -3.92 0.64 5.43 -4.31zm-19.22 -260.76l0 0 5.41 10.57 5.02 10.33 4.63 10.1 4.25 9.87 3.89 9.65 3.52 9.44 3.17 9.24 2.82 9.06 2.49 8.88 2.17 8.71 1.84 8.55 1.53 8.39 1.22 8.25 0.93 8.11 0.64 7.98 0.36 7.86 0.09 7.75 -0.17 7.64 -0.43 7.54 -0.67 7.46 -0.91 7.37 -1.13 7.29 -1.34 7.23 -1.55 7.17 -1.74 7.12 -1.93 7.08 -2.1 7.05 -2.27 7.02 -2.42 7 -2.57 7 -2.71 7.01 -2.83 7.03 -13.16 -5.41 2.76 -6.84 2.62 -6.8 2.48 -6.77 2.33 -6.74 2.17 -6.73 2.01 -6.72 1.83 -6.74 1.65 -6.75 1.46 -6.78 1.26 -6.82 1.06 -6.86 0.85 -6.92 0.62 -6.98 0.4 -7.07 0.16 -7.16 -0.09 -7.26 -0.33 -7.37 -0.6 -7.5 -0.87 -7.63 -1.15 -7.78 -1.45 -7.94 -1.74 -8.11 -2.06 -8.28 -2.38 -8.48 -2.7 -8.67 -3.05 -8.88 -3.39 -9.1 -3.75 -9.32 -4.12 -9.56 -4.49 -9.81 -4.88 -10.06 -5.28 -10.32 0 0 12.6 -6.6zm-350.96 -146.33l0 0 11.44 -5.46 11.72 -4.55 11.97 -3.68 12.17 -2.82 12.34 -1.99 12.48 -1.19 12.59 -0.42 12.67 0.33 12.71 1.04 12.74 1.74 12.73 2.41 12.68 3.04 12.62 3.66 12.53 4.24 12.41 4.81 12.26 5.35 12.08 5.87 11.87 6.35 11.64 6.82 11.38 7.26 11.09 7.69 10.77 8.08 10.43 8.46 10.06 8.81 9.65 9.14 9.22 9.44 8.77 9.73 8.28 10 7.76 10.23 7.21 10.45 6.63 10.65 6.03 10.82 -12.6 6.6 -5.68 -10.2 -6.27 -10.07 -6.84 -9.92 -7.39 -9.74 -7.89 -9.53 -8.38 -9.3 -8.83 -9.04 -9.25 -8.76 -9.65 -8.45 -10.02 -8.12 -10.35 -7.76 -10.65 -7.38 -10.93 -6.97 -11.17 -6.55 -11.39 -6.09 -11.57 -5.61 -11.72 -5.12 -11.84 -4.59 -11.94 -4.04 -12 -3.48 -12.03 -2.89 -12.03 -2.27 -12 -1.64 -11.94 -0.98 -11.85 -0.31 -11.73 0.39 -11.59 1.1 -11.41 1.84 -11.22 2.59 -10.99 3.38 -10.76 4.17 -10.48 5 0 0 -6.6 -12.6z"/>
  </g>
  <g>
   <path class="fil12" d="M3474.17 1449.24c-51,29.47 -62.61,104.82 -25.93,168.31 36.68,63.49 107.76,91.07 158.77,61.6 51,-29.47 62.62,-104.82 25.94,-168.31 -36.69,-63.49 -107.76,-91.07 -158.77,-61.6z"/>
   <path id="1" class="fil11" d="M3444.13 1619.93l0 0 -3.39 -6.15 -3.1 -6.22 -2.81 -6.27 -2.53 -6.31 -2.25 -6.34 -1.96 -6.36 -1.69 -6.37 -1.4 -6.37 -1.13 -6.35 -0.85 -6.33 -0.58 -6.3 -0.3 -6.26 -0.03 -6.2 0.24 -6.14 0.51 -6.06 0.78 -5.98 1.05 -5.87 1.31 -5.78 1.58 -5.65 1.84 -5.52 2.11 -5.38 2.37 -5.23 2.63 -5.07 2.89 -4.89 3.15 -4.7 3.42 -4.51 3.67 -4.3 3.93 -4.07 4.18 -3.84 4.43 -3.59 4.68 -3.33 4.92 -3.05 4.73 8.19 -4.41 2.74 -4.19 2.98 -3.97 3.21 -3.75 3.44 -3.52 3.66 -3.31 3.87 -3.08 4.07 -2.85 4.26 -2.63 4.44 -2.4 4.61 -2.16 4.78 -1.93 4.93 -1.69 5.07 -1.46 5.2 -1.21 5.33 -0.98 5.44 -0.72 5.54 -0.48 5.64 -0.23 5.72 0.03 5.79 0.28 5.85 0.54 5.9 0.8 5.94 1.06 5.97 1.32 5.98 1.58 6 1.85 5.98 2.12 5.98 2.39 5.95 2.66 5.92 2.93 5.87 3.21 5.81 0 0 -8.21 4.74zm165.24 63.32l0 0 -5.1 2.73 -5.22 2.39 -5.32 2.05 -5.41 1.7 -5.49 1.37 -5.56 1.04 -5.61 0.7 -5.65 0.39 -5.69 0.06 -5.7 -0.25 -5.72 -0.56 -5.72 -0.86 -5.7 -1.16 -5.69 -1.45 -5.66 -1.75 -5.61 -2.03 -5.56 -2.31 -5.51 -2.58 -5.43 -2.86 -5.36 -3.12 -5.27 -3.39 -5.17 -3.65 -5.06 -3.9 -4.94 -4.15 -4.81 -4.39 -4.68 -4.64 -4.52 -4.88 -4.37 -5.11 -4.2 -5.35 -4.02 -5.57 -3.83 -5.79 -3.64 -6.01 8.21 -4.74 3.44 5.68 3.62 5.48 3.8 5.26 3.96 5.04 4.12 4.82 4.26 4.59 4.4 4.37 4.52 4.13 4.64 3.9 4.74 3.66 4.84 3.41 4.92 3.17 5 2.92 5.06 2.66 5.12 2.4 5.17 2.14 5.2 1.88 5.22 1.61 5.23 1.34 5.24 1.07 5.23 0.79 5.22 0.5 5.19 0.23 5.15 -0.06 5.11 -0.35 5.06 -0.63 5 -0.93 4.93 -1.23 4.85 -1.53 4.77 -1.83 4.67 -2.14 4.57 -2.46 0 0 4.73 8.19zm27.68 -174.78l0 0 3.39 6.15 3.1 6.22 2.81 6.27 2.53 6.31 2.25 6.34 1.96 6.36 1.69 6.37 1.4 6.37 1.13 6.35 0.85 6.33 0.57 6.3 0.3 6.26 0.03 6.2 -0.24 6.14 -0.51 6.06 -0.78 5.98 -1.04 5.87 -1.31 5.78 -1.58 5.65 -1.85 5.52 -2.11 5.38 -2.37 5.23 -2.63 5.07 -2.89 4.89 -3.15 4.7 -3.42 4.51 -3.67 4.3 -3.93 4.07 -4.18 3.84 -4.43 3.59 -4.68 3.33 -4.92 3.05 -4.73 -8.19 4.41 -2.74 4.19 -2.98 3.97 -3.21 3.75 -3.44 3.52 -3.66 3.31 -3.87 3.08 -4.07 2.85 -4.26 2.63 -4.44 2.4 -4.61 2.16 -4.78 1.93 -4.93 1.69 -5.07 1.45 -5.2 1.21 -5.33 0.97 -5.44 0.72 -5.54 0.48 -5.63 0.22 -5.72 -0.03 -5.79 -0.29 -5.85 -0.54 -5.91 -0.8 -5.93 -1.06 -5.97 -1.32 -5.98 -1.58 -6 -1.85 -5.98 -2.12 -5.98 -2.39 -5.95 -2.66 -5.92 -2.93 -5.87 -3.21 -5.81 0 0 8.21 -4.75zm-165.24 -63.32l0 0 5.1 -2.74 5.22 -2.39 5.32 -2.05 5.41 -1.7 5.49 -1.37 5.55 -1.04 5.61 -0.7 5.65 -0.39 5.69 -0.06 5.7 0.25 5.72 0.56 5.72 0.86 5.7 1.16 5.69 1.45 5.65 1.75 5.62 2.03 5.57 2.31 5.5 2.58 5.44 2.86 5.35 3.12 5.27 3.39 5.17 3.65 5.06 3.9 4.94 4.15 4.81 4.4 4.67 4.64 4.53 4.88 4.37 5.11 4.2 5.35 4.03 5.57 3.83 5.8 3.64 6.01 -8.21 4.75 -3.44 -5.69 -3.62 -5.47 -3.8 -5.26 -3.96 -5.04 -4.12 -4.82 -4.27 -4.59 -4.4 -4.37 -4.52 -4.13 -4.64 -3.9 -4.75 -3.66 -4.84 -3.41 -4.93 -3.17 -5 -2.92 -5.07 -2.66 -5.12 -2.4 -5.17 -2.15 -5.19 -1.88 -5.22 -1.61 -5.23 -1.34 -5.24 -1.07 -5.24 -0.79 -5.21 -0.5 -5.19 -0.23 -5.15 0.06 -5.12 0.35 -5.06 0.63 -5 0.93 -4.93 1.23 -4.85 1.53 -4.77 1.83 -4.68 2.15 -4.57 2.45 0 0 -4.73 -8.19z"/>
  </g>
  <path class="fil13" d="M3463.22 1631.67c37.09,49.3 97.35,68.69 141.74,43.04 48.96,-28.28 60.1,-100.61 24.89,-161.55 -9.69,-16.78 -21.89,-30.93 -35.49,-42.06 3.8,5.05 7.36,10.42 10.63,16.08 35.21,60.94 24.06,133.26 -24.89,161.55 -35.47,20.5 -81.06,12.23 -116.88,-17.06z"/>
  <ellipse class="fil14" transform="matrix(-0.630384 0.36421 0.402478 0.69662 3543.74 1582.77)" rx="85.41" ry="89.58"/>
  <ellipse class="fil4" transform="matrix(-0.228688 0.132126 0.146009 0.252717 3591.21 1555.81)" rx="85.41" ry="89.58"/>
  <path class="fil15" d="M3959.44 1646.46c-219.11,-61.88 -541.29,65.62 -579.91,314.38 0,0 79.77,-176.61 263.37,-259.81 77.64,-35.18 185.63,-71.1 316.55,-54.57z"/>
  <path class="fil10" d="M2885.48 1260.35c240.53,88.66 154.67,453.71 -38.39,555.36 -122.66,-61.51 -165.35,-67.03 -285.04,-83.04 -125.38,-259.16 90.09,-558.33 323.44,-472.32z"/>
  <g>
   <path class="fil4" d="M2875.05 1292.4c122.23,45.07 177.14,201.46 122.62,349.33 -29.74,80.64 -85.87,142.08 -150.59,173.98 -86.89,-49.72 -183.65,-74.81 -277.9,-81.91 -39.78,-69.57 -47.81,-164.04 -14.18,-255.27 54.52,-147.87 197.8,-231.2 320.04,-186.14z"/>
   <path id="1" class="fil11" d="M3004.34 1644.19l-13.35 -4.92 0 0 4.69 -13.61 4.07 -13.62 3.46 -13.63 2.86 -13.61 2.25 -13.57 1.67 -13.51 1.08 -13.42 0.51 -13.32 -0.06 -13.19 -0.62 -13.04 -1.17 -12.87 -1.71 -12.67 -2.25 -12.46 -2.77 -12.23 -3.29 -11.96 -3.8 -11.69 -4.3 -11.38 -4.8 -11.06 -5.28 -10.72 -5.75 -10.35 -6.22 -9.96 -6.68 -9.56 -7.13 -9.13 -7.57 -8.69 -8.01 -8.21 -8.43 -7.72 -8.85 -7.22 -9.27 -6.69 -9.67 -6.15 -10.07 -5.58 -10.46 -4.99 -10.86 -4.39 4.92 -13.35 11.66 4.71 11.25 5.37 10.82 6 10.39 6.6 9.94 7.18 9.49 7.74 9.04 8.28 8.56 8.79 8.08 9.27 7.6 9.73 7.11 10.17 6.61 10.59 6.1 10.98 5.58 11.35 5.06 11.69 4.54 12.01 4 12.31 3.46 12.59 2.91 12.85 2.36 13.08 1.8 13.3 1.22 13.48 0.65 13.65 0.06 13.8 -0.53 13.92 -1.13 14.02 -1.74 14.11 -2.35 14.16 -2.98 14.2 -3.61 14.2 -4.24 14.2 -4.89 14.17 0 0zm-160.79 177.69l7.06 -12.35 -6.68 -0.2 5.88 -2.99 5.82 -3.16 5.77 -3.32 5.72 -3.5 5.67 -3.65 5.59 -3.81 5.53 -3.97 5.46 -4.13 5.39 -4.29 5.31 -4.44 5.23 -4.59 5.15 -4.74 5.06 -4.89 4.97 -5.04 4.88 -5.18 4.78 -5.32 4.69 -5.46 4.58 -5.6 4.48 -5.74 4.37 -5.87 4.26 -6.01 4.14 -6.14 4.02 -6.27 3.9 -6.4 3.78 -6.52 3.65 -6.64 3.51 -6.77 3.38 -6.89 3.24 -7.01 3.1 -7.12 2.96 -7.24 2.81 -7.35 13.35 4.92 -2.93 7.66 -3.07 7.54 -3.23 7.42 -3.37 7.3 -3.52 7.18 -3.66 7.06 -3.8 6.93 -3.94 6.8 -4.07 6.67 -4.2 6.54 -4.32 6.41 -4.44 6.28 -4.57 6.14 -4.68 6 -4.79 5.86 -4.91 5.72 -5 5.57 -5.11 5.43 -5.21 5.27 -5.3 5.13 -5.4 4.97 -5.49 4.82 -5.57 4.66 -5.66 4.5 -5.74 4.34 -5.81 4.18 -5.89 4.01 -5.96 3.85 -6.02 3.68 -6.09 3.51 -6.15 3.33 -6.2 3.16 -6.68 -0.2zm6.68 0.2l-3.39 1.67 -3.28 -1.88 6.68 0.2zm-287.22 -84.75l12.35 -7.06 -5.64 -3.56 8.93 0.72 8.94 0.83 8.95 0.94 8.96 1.05 8.97 1.17 8.96 1.28 8.97 1.39 8.97 1.5 8.97 1.62 8.96 1.74 8.96 1.86 8.95 1.98 8.93 2.1 8.93 2.22 8.9 2.35 8.89 2.47 8.87 2.6 8.84 2.73 8.81 2.85 8.79 2.99 8.76 3.12 8.73 3.25 8.69 3.38 8.65 3.52 8.61 3.65 8.57 3.8 8.53 3.93 8.48 4.07 8.43 4.21 8.39 4.36 8.33 4.5 8.28 4.65 -7.06 12.35 -8.07 -4.54 -8.13 -4.39 -8.18 -4.25 -8.24 -4.12 -8.28 -3.97 -8.33 -3.84 -8.38 -3.7 -8.42 -3.57 -8.46 -3.44 -8.49 -3.3 -8.53 -3.18 -8.56 -3.05 -8.6 -2.92 -8.62 -2.8 -8.65 -2.67 -8.68 -2.54 -8.7 -2.42 -8.72 -2.3 -8.74 -2.18 -8.75 -2.06 -8.76 -1.94 -8.78 -1.82 -8.78 -1.7 -8.79 -1.59 -8.8 -1.48 -8.79 -1.36 -8.8 -1.25 -8.79 -1.14 -8.79 -1.03 -8.78 -0.92 -8.77 -0.82 -8.76 -0.71 -5.64 -3.56zm5.64 3.56l-3.76 -0.28 -1.87 -3.28 5.64 3.56zm-20.31 -264.82l13.35 4.92 0 0 -2.97 8.39 -2.73 8.4 -2.5 8.41 -2.26 8.41 -2.03 8.41 -1.8 8.4 -1.57 8.39 -1.35 8.37 -1.12 8.35 -0.9 8.31 -0.67 8.28 -0.45 8.24 -0.24 8.2 -0.02 8.15 0.19 8.1 0.41 8.04 0.61 7.98 0.82 7.9 1.03 7.83 1.23 7.75 1.43 7.67 1.63 7.57 1.83 7.48 2.03 7.39 2.22 7.28 2.41 7.17 2.61 7.05 2.8 6.93 2.98 6.8 3.17 6.68 3.35 6.54 3.53 6.4 -12.35 7.06 -3.74 -6.79 -3.55 -6.93 -3.35 -7.06 -3.15 -7.2 -2.95 -7.32 -2.75 -7.44 -2.55 -7.56 -2.34 -7.67 -2.13 -7.76 -1.93 -7.87 -1.72 -7.97 -1.5 -8.05 -1.3 -8.14 -1.07 -8.21 -0.86 -8.29 -0.64 -8.35 -0.42 -8.41 -0.2 -8.48 0.02 -8.53 0.25 -8.57 0.48 -8.61 0.7 -8.65 0.94 -8.69 1.17 -8.71 1.4 -8.74 1.64 -8.75 1.88 -8.76 2.11 -8.77 2.36 -8.76 2.6 -8.76 2.85 -8.75 3.09 -8.74 0 0zm329.17 -190.35l-4.92 13.35 0 0 -11.11 -3.71 -11.2 -3 -11.28 -2.3 -11.35 -1.6 -11.39 -0.93 -11.42 -0.26 -11.43 0.41 -11.42 1.06 -11.4 1.69 -11.35 2.32 -11.28 2.93 -11.2 3.54 -11.09 4.14 -10.97 4.72 -10.82 5.31 -10.66 5.87 -10.48 6.42 -10.27 6.96 -10.04 7.5 -9.8 8.02 -9.53 8.53 -9.24 9.03 -8.93 9.52 -8.61 9.99 -8.26 10.46 -7.89 10.91 -7.5 11.36 -7.09 11.78 -6.67 12.2 -6.21 12.61 -5.75 13.01 -5.26 13.4 -13.35 -4.92 5.48 -13.95 5.99 -13.55 6.48 -13.15 6.95 -12.73 7.4 -12.3 7.83 -11.85 8.24 -11.4 8.63 -10.93 9.01 -10.46 9.35 -9.96 9.69 -9.46 9.99 -8.95 10.29 -8.42 10.56 -7.88 10.8 -7.33 11.04 -6.77 11.24 -6.19 11.44 -5.61 11.61 -5 11.76 -4.39 11.9 -3.76 12.01 -3.12 12.1 -2.47 12.16 -1.81 12.22 -1.13 12.24 -0.43 12.25 0.27 12.23 1 12.19 1.72 12.13 2.47 12.04 3.22 11.93 3.99 0 0z"/>
  </g>
  <g>
   <path class="fil12" d="M2828.54 1493.96c54.38,22.65 75.61,95.87 47.41,163.56 -28.19,67.69 -95.12,104.2 -149.5,81.56 -54.38,-22.65 -75.61,-95.88 -47.42,-163.57 28.19,-67.69 95.12,-104.2 149.5,-81.55z"/>
   <path id="1" class="fil11" d="M2880.33 1659.35l-8.76 -3.65 0 0 2.43 -6.19 2.15 -6.2 1.87 -6.21 1.6 -6.21 1.33 -6.2 1.06 -6.18 0.8 -6.15 0.54 -6.1 0.28 -6.05 0.02 -6 -0.22 -5.91 -0.48 -5.84 -0.72 -5.74 -0.96 -5.64 -1.2 -5.53 -1.43 -5.4 -1.66 -5.27 -1.89 -5.13 -2.11 -4.97 -2.33 -4.81 -2.55 -4.64 -2.76 -4.45 -2.97 -4.27 -3.17 -4.06 -3.38 -3.85 -3.58 -3.63 -3.78 -3.41 -3.96 -3.17 -4.16 -2.93 -4.35 -2.68 -4.54 -2.42 -4.73 -2.15 3.64 -8.72 5.27 2.39 5.07 2.7 4.85 2.98 4.64 3.26 4.42 3.54 4.19 3.79 3.96 4.03 3.74 4.26 3.5 4.48 3.26 4.69 3.03 4.88 2.78 5.07 2.54 5.24 2.3 5.4 2.05 5.56 1.8 5.69 1.55 5.83 1.29 5.94 1.03 6.06 0.77 6.15 0.51 6.24 0.24 6.32 -0.03 6.39 -0.3 6.44 -0.57 6.5 -0.85 6.54 -1.13 6.56 -1.41 6.58 -1.7 6.58 -1.98 6.58 -2.28 6.56 -2.57 6.54 0 0zm-155.7 84.09l3.64 -8.72 0 0 4.85 1.84 4.91 1.52 4.97 1.2 5.01 0.89 5.04 0.58 5.08 0.28 5.1 -0.02 5.11 -0.31 5.12 -0.61 5.12 -0.9 5.11 -1.18 5.09 -1.46 5.06 -1.73 5.02 -2 4.97 -2.27 4.91 -2.53 4.84 -2.79 4.77 -3.04 4.68 -3.29 4.58 -3.54 4.48 -3.78 4.36 -4.01 4.23 -4.24 4.1 -4.46 3.96 -4.68 3.8 -4.9 3.64 -5.11 3.46 -5.31 3.28 -5.51 3.09 -5.7 2.89 -5.9 2.68 -6.07 8.76 3.65 -2.83 6.43 -3.06 6.24 -3.27 6.04 -3.48 5.84 -3.67 5.63 -3.87 5.42 -4.04 5.2 -4.21 4.98 -4.37 4.75 -4.52 4.52 -4.65 4.28 -4.79 4.04 -4.91 3.79 -5.02 3.53 -5.13 3.28 -5.22 3 -5.31 2.74 -5.39 2.46 -5.44 2.18 -5.51 1.89 -5.56 1.59 -5.6 1.29 -5.62 0.98 -5.65 0.67 -5.65 0.35 -5.65 0.02 -5.65 -0.31 -5.62 -0.65 -5.59 -1 -5.54 -1.34 -5.48 -1.7 -5.41 -2.06 0 0zm-49.98 -169.75l8.76 3.65 0 0 -2.43 6.19 -2.15 6.2 -1.87 6.21 -1.6 6.21 -1.33 6.2 -1.06 6.17 -0.8 6.15 -0.54 6.11 -0.28 6.05 -0.02 5.99 0.22 5.92 0.47 5.83 0.72 5.74 0.96 5.64 1.2 5.53 1.43 5.4 1.67 5.27 1.89 5.13 2.11 4.97 2.33 4.81 2.55 4.64 2.76 4.45 2.97 4.26 3.17 4.06 3.38 3.85 3.58 3.63 3.77 3.41 3.97 3.17 4.17 2.93 4.35 2.67 4.54 2.42 4.73 2.15 -3.64 8.72 -5.27 -2.39 -5.06 -2.69 -4.86 -2.99 -4.64 -3.26 -4.42 -3.53 -4.2 -3.79 -3.96 -4.03 -3.74 -4.26 -3.5 -4.48 -3.26 -4.68 -3.03 -4.89 -2.78 -5.06 -2.54 -5.24 -2.3 -5.4 -2.05 -5.56 -1.8 -5.69 -1.54 -5.83 -1.29 -5.94 -1.03 -6.06 -0.77 -6.15 -0.5 -6.24 -0.24 -6.31 0.03 -6.39 0.3 -6.44 0.57 -6.49 0.85 -6.54 1.13 -6.56 1.41 -6.58 1.7 -6.58 1.98 -6.58 2.27 -6.56 2.57 -6.54 0 0zm155.7 -84.09l-3.64 8.72 0 0 -4.85 -1.85 -4.91 -1.52 -4.97 -1.21 -5.01 -0.89 -5.05 -0.58 -5.07 -0.28 -5.1 0.02 -5.11 0.31 -5.12 0.61 -5.12 0.89 -5.11 1.18 -5.09 1.46 -5.06 1.73 -5.02 2 -4.97 2.27 -4.91 2.53 -4.84 2.79 -4.77 3.05 -4.68 3.29 -4.59 3.54 -4.47 3.77 -4.37 4.01 -4.23 4.24 -4.1 4.46 -3.96 4.68 -3.8 4.9 -3.64 5.11 -3.46 5.31 -3.28 5.51 -3.09 5.7 -2.89 5.9 -2.68 6.07 -8.76 -3.65 2.83 -6.43 3.06 -6.24 3.27 -6.04 3.48 -5.84 3.68 -5.63 3.86 -5.42 4.04 -5.2 4.21 -4.98 4.37 -4.75 4.52 -4.52 4.66 -4.28 4.79 -4.04 4.91 -3.79 5.02 -3.53 5.12 -3.28 5.22 -3.01 5.31 -2.74 5.39 -2.46 5.45 -2.18 5.51 -1.89 5.56 -1.59 5.59 -1.29 5.63 -0.98 5.64 -0.67 5.66 -0.35 5.65 -0.02 5.64 0.31 5.62 0.65 5.59 1 5.54 1.34 5.48 1.7 5.41 2.06 0 0z"/>
  </g>
  <path class="fil13" d="M2862.91 1673.45c-30.43,53.67 -87.68,80.67 -135.01,60.95 -52.2,-21.74 -72.57,-92.02 -45.51,-156.99 7.44,-17.89 17.72,-33.5 29.78,-46.28 -3.12,5.5 -5.96,11.28 -8.47,17.32 -27.06,64.97 -6.68,135.25 45.51,156.99 37.82,15.75 81.96,1.68 113.71,-31.99z"/>
  <ellipse class="fil14" transform="matrix(0.672076 0.279904 -0.309315 0.742693 2776.76 1635.34)" rx="85.41" ry="89.58"/>
  <ellipse class="fil4" transform="matrix(0.243813 0.101542 -0.112212 0.269431 2726.21 1614.73)" rx="85.41" ry="89.58"/>
  <path class="fil15" d="M2387.72 1756.57c209.31,-89.61 545.23,-4.71 615.6,237 0,0 -101.87,-164.86 -294.67,-223.7 -81.52,-24.88 -193.24,-46.58 -320.94,-13.3z"/>
  <path class="fil5" d="M2972.82 3460.55c610.17,177.72 1004.41,-573.46 1147.06,-254.87 -247.37,-95.53 -292.56,413.84 -576.03,480.3 -234.12,54.88 -535.57,-85.6 -571.03,-225.42z"/>
  <g>
   <path class="fil11" d="M2822.75 3357.55c-3.54,-3.43 -3.93,-9.44 -0.87,-13.42 3.05,-3.98 8.4,-4.41 11.94,-0.98l-11.06 14.4zm648.5 284.58l0.94 19 0 0 -22.29 0.89 -22.31 -0.07 -22.31 -1 -22.3 -1.91 -22.27 -2.79 -22.23 -3.63 -22.17 -4.45 -22.1 -5.24 -22.01 -5.98 -21.91 -6.72 -21.8 -7.41 -21.67 -8.08 -21.52 -8.72 -21.36 -9.33 -21.19 -9.91 -21 -10.46 -20.8 -10.98 -20.59 -11.48 -20.35 -11.94 -20.11 -12.37 -19.86 -12.78 -19.59 -13.16 -19.29 -13.51 -19 -13.83 -18.68 -14.12 -18.35 -14.38 -18.01 -14.62 -17.65 -14.83 -17.28 -15 -16.89 -15.15 -16.49 -15.27 -16.07 -15.36 11.06 -14.4 15.87 15.17 16.28 15.08 16.68 14.96 17.06 14.81 17.43 14.64 17.78 14.44 18.12 14.2 18.44 13.94 18.75 13.65 19.04 13.33 19.32 12.98 19.57 12.6 19.82 12.2 20.06 11.76 20.27 11.3 20.47 10.81 20.65 10.28 20.83 9.74 20.98 9.16 21.12 8.56 21.25 7.93 21.35 7.26 21.45 6.57 21.53 5.86 21.59 5.12 21.64 4.34 21.68 3.54 21.7 2.72 21.7 1.86 21.69 0.98 21.67 0.07 21.63 -0.87 0 0zm671.68 -437.23l-11.02 14.44 -24.31 -21.55 -22.61 -16.27 -20.99 -11.33 -19.46 -6.79 -18.11 -2.66 -17.02 1.09 -16.23 4.55 -15.72 7.83 -15.36 10.95 -15.11 13.89 -14.93 16.58 -14.81 18.99 -14.78 21.12 -14.85 22.94 -15.02 24.46 -15.3 25.68 -15.7 26.59 -16.23 27.21 -16.87 27.54 -17.64 27.57 -18.54 27.3 -19.57 26.74 -20.73 25.87 -22.03 24.71 -23.45 23.25 -25 21.47 -26.69 19.39 -28.5 16.99 -30.41 14.27 -32.43 11.24 -34.55 7.91 -36.76 4.27 -0.94 -19 35.15 -4.08 32.92 -7.54 30.85 -10.7 28.93 -13.58 27.16 -16.2 25.51 -18.54 24 -20.61 22.61 -22.41 21.33 -23.94 20.18 -25.18 19.13 -26.14 18.21 -26.81 17.4 -27.19 16.71 -27.28 16.14 -27.08 15.7 -26.59 15.39 -25.82 15.21 -24.76 15.16 -23.42 15.26 -21.79 15.51 -19.88 15.93 -17.67 16.52 -15.17 17.29 -12.31 18.21 -9.06 19.22 -5.37 20.2 -1.29 21.13 3.1 22.03 7.68 23.04 12.43 24.17 17.38 25.48 22.58zm0 0c3.55,3.42 3.96,9.43 0.91,13.42 -3.04,3.98 -8.39,4.44 -11.94,1.02l11.02 -14.44z"/>
  </g>
  <ellipse class="fil5" transform="matrix(1.35638 -0.156671 0.156671 1.35638 3366.38 2268.57)" rx="218.75" ry="95.05"/>
  <path class="fil10" d="M3574.02 2260.1c-94.53,-183.35 -358.32,-183.35 -452.85,0 122.97,-106.37 329.89,-106.37 452.85,0z"/>
  <path class="fil16" d="M3574.02 2260.1c-94.53,-183.35 -358.32,-183.35 -452.85,0 140.74,-167.8 330.6,-156.39 452.85,0z"/>
  <ellipse class="fil5" transform="matrix(0.569696 -0.264418 0.264418 0.569696 3774.11 1772.88)" rx="177.95" ry="103.3"/>
  <ellipse class="fil5" transform="matrix(-0.599029 -0.188769 -0.188769 0.599029 2637.19 1882.59)" rx="177.95" ry="103.3"/>
  <path class="fil8" d="M4246.41 1327.96c-118.97,-166.12 -313.3,-377.66 -431.38,-469.92 234.85,43.12 355.85,244.24 431.38,469.92z"/>
  <path class="fil6 str4" d="M3186.42 355.53c0,0 181.22,60.5 321.11,84.83"/>
  <path class="fil17" d="M3278.64 2619.28c-177.13,-5.66 -337.44,-52.44 -469.49,-154.94 72.89,293.92 243.84,489.53 502.26,603.92 41.61,7.34 81.3,7.91 123.31,2.43 5.94,-160.02 -46.08,-310.48 -156.08,-451.41z"/>
  <path class="fil18" d="M3666.52 2940.93c-60.5,70.44 -137.76,113.69 -231.8,129.76 6.06,-159.67 -45.97,-310.14 -156.08,-451.41 79.97,4.95 200.3,-7.92 361.62,-43.06 -76.06,145.59 -67.31,267.16 26.26,364.7z"/>
  <path class="fil19 str5" d="M3309.63 3067.46c-64.5,-29.26 -128.48,-67.09 -200.55,-119.51 113.11,-126.11 305.56,-123.08 455,24.3 -29.91,-30.35 -65.95,-56.45 -108.13,-78.31 258.3,-188.2 444.76,117.96 350.23,342.42 -134.87,264.38 -520.91,108.19 -495.21,-132.91 4.26,-64.44 -9.56,-112.69 -41.48,-144.75 26.34,25.98 38.39,58.53 40.12,108.75z"/>
  <path class="fil16" d="M3618.13 2596.27c-327.59,69.24 -583.87,38.82 -780.4,-99.32 69.91,266.56 216.59,434.55 457.2,548.61 1.59,7.63 2.65,24.68 2.94,31.84 -264.19,-104.95 -430.9,-306.13 -502.2,-605.48 -88.21,-81.83 -140.29,-181.66 -156.24,-299.48 -33,19.66 -57.31,53.3 -72.92,100.91 -8.35,-2.65 -17.04,-6.34 -26.04,-11.07 33.04,-93.66 97.93,-140.76 194.66,-141.28 0.76,9.4 0.33,18.51 -1.3,27.34 -28.29,-1.06 -51.95,2.85 -70.96,11.72 16.15,213.35 169.15,356.8 459,430.34 148.65,27.89 314.09,23.11 495.97,-24.83 263.94,-69.54 440.07,-268.58 509.9,-529.22 8.48,2.91 14.34,4.65 23.22,6.29 -54.07,244.95 -218.89,428 -500.1,548.07 -36.94,65.38 -49.96,143.07 -39.07,233.07 -11.26,-0.14 -20.7,0.89 -28.32,3.09 -5.5,-107.34 6.06,-184.22 34.67,-230.63z"/>
  <path class="fil20" d="M3280.65 3070.37c6.4,2.68 12.64,4.72 17.71,6.72 -0.58,27.2 -3.5,62.49 2.49,90.41 22.81,106.31 105.43,189.85 244.86,217.32 -213.43,15.1 -310.33,-154.94 -265.06,-314.45z"/>
 </g>
</svg>
